<svg width="40" height="40" viewBox="0 0 40 40" fill="none" xmlns="http://www.w3.org/2000/svg">
<path d="M21.4518 10.5432C23.4516 10.8784 25.2682 11.8229 26.7184 13.2702C28.1687 14.7175 29.1075 16.5304 29.451 18.5261M21.7571 4C25.314 4.60176 28.558 6.28517 31.1379 8.85218C33.7178 11.4268 35.397 14.6641 36 18.2138M33.2216 32.3361C33.2216 32.3361 31.2905 34.2328 30.8172 34.7889C30.0463 35.6115 29.138 36 27.9473 36C27.8328 36 27.7107 36 27.5962 35.9924C25.3292 35.8476 23.2226 34.9641 21.6426 34.2099C17.3224 32.1228 13.5289 29.1597 10.3765 25.4044C7.77374 22.2737 6.03345 19.3792 4.8809 16.2714C4.17104 14.3747 3.91153 12.8969 4.02602 11.503C4.10235 10.6118 4.44582 9.87288 5.07935 9.24065L7.68214 6.64318C8.05615 6.29278 8.45306 6.10235 8.84233 6.10235C9.3232 6.10235 9.71248 6.39181 9.95673 6.63556C9.96436 6.64318 9.97199 6.65079 9.97962 6.65841C10.4452 7.09259 10.8879 7.54201 11.3535 8.0219C11.5902 8.26565 11.8344 8.5094 12.0787 8.76077L14.1624 10.8403C14.9715 11.6477 14.9715 12.3942 14.1624 13.2016C13.9411 13.4225 13.7273 13.6434 13.506 13.8567C12.8648 14.5118 13.3685 14.0091 12.7044 14.6033C12.6892 14.6185 12.6739 14.6261 12.6663 14.6414C12.0099 15.2965 12.132 15.9363 12.2694 16.3705C12.277 16.3933 12.2846 16.4162 12.2923 16.439C12.8342 17.7492 13.5975 18.9832 14.7577 20.4533L14.7653 20.4609C16.872 23.0508 19.0931 25.0694 21.5433 26.6157C21.8562 26.8137 22.1768 26.9737 22.4821 27.126C22.7569 27.2631 23.0164 27.3926 23.2377 27.5297C23.2683 27.545 23.2988 27.5678 23.3293 27.583C23.5889 27.7125 23.8331 27.7735 24.085 27.7735C24.7185 27.7735 25.1154 27.3774 25.2452 27.2479L26.7413 25.7548C27.0008 25.4958 27.413 25.1835 27.8939 25.1835C28.3671 25.1835 28.7564 25.4806 28.993 25.7396C29.0006 25.7472 29.0006 25.7472 29.0083 25.7548L33.214 29.9519C34.0001 30.7289 33.2216 32.3361 33.2216 32.3361Z" stroke="#0046C6" stroke-width="3" stroke-linecap="round" stroke-linejoin="round"/>
</svg>
