<svg width="40" height="40" viewBox="0 0 40 40" fill="none" xmlns="http://www.w3.org/2000/svg">
<path d="M12 10.1999V11.1999C12.3557 11.1999 12.6846 11.011 12.8638 10.7038L12 10.1999ZM14.8 5.3999V4.3999C14.4443 4.3999 14.1154 4.58881 13.9362 4.89603L14.8 5.3999ZM25.2 5.3999L26.0638 4.89603C25.8846 4.58881 25.5557 4.3999 25.2 4.3999V5.3999ZM28 10.1999L27.1362 10.7038C27.3154 11.011 27.6443 11.1999 28 11.1999V10.1999ZM5 30.5999V14.1999H3V30.5999H5ZM8 11.1999H12V9.1999H8V11.1999ZM12.8638 10.7038L15.6638 5.90377L13.9362 4.89603L11.1362 9.69603L12.8638 10.7038ZM14.8 6.3999H25.2V4.3999H14.8V6.3999ZM24.3362 5.90377L27.1362 10.7038L28.8638 9.69603L26.0638 4.89603L24.3362 5.90377ZM28 11.1999H32V9.1999H28V11.1999ZM35 14.1999V30.5999H37V14.1999H35ZM35 30.5999C35 32.2568 33.6569 33.5999 32 33.5999V35.5999C34.7614 35.5999 37 33.3613 37 30.5999H35ZM32 11.1999C33.6568 11.1999 35 12.543 35 14.1999H37C37 11.4385 34.7614 9.1999 32 9.1999V11.1999ZM5 14.1999C5 12.543 6.34314 11.1999 8 11.1999V9.1999C5.23858 9.1999 3 11.4385 3 14.1999H5ZM8 33.5999C6.34315 33.5999 5 32.2568 5 30.5999H3C3 33.3613 5.23858 35.5999 8 35.5999V33.5999ZM25 21.3999C25 24.1613 22.7614 26.3999 20 26.3999V28.3999C23.866 28.3999 27 25.2659 27 21.3999H25ZM20 26.3999C17.2386 26.3999 15 24.1613 15 21.3999H13C13 25.2659 16.134 28.3999 20 28.3999V26.3999ZM15 21.3999C15 18.6385 17.2386 16.3999 20 16.3999V14.3999C16.134 14.3999 13 17.5339 13 21.3999H15ZM20 16.3999C22.7614 16.3999 25 18.6385 25 21.3999H27C27 17.5339 23.866 14.3999 20 14.3999V16.3999ZM32 33.5999H8V35.5999H32V33.5999Z" fill="#181F27"/>
</svg>
