<svg width="20" height="20" viewBox="0 0 20 20" fill="none" xmlns="http://www.w3.org/2000/svg">
<path d="M3.77705 9.11111C3.77705 5.18375 6.9608 2 10.8882 2C14.8155 2 17.9993 5.18375 17.9993 9.11111C17.9993 10.1334 17.7836 11.1052 17.3952 11.9837L18.0006 16.2215L14.3688 15.3136C13.34 15.8922 12.1526 16.2222 10.8882 16.2222M2.00011 13.5556C2.00011 14.1945 2.13491 14.8019 2.37761 15.3509L1.99927 17.9996L4.26893 17.4321C4.9119 17.7937 5.65393 18 6.44413 18C8.8985 18 10.8882 16.0102 10.8882 13.5556C10.8882 11.101 8.8985 9.11111 6.44413 9.11111C3.98977 9.11111 2.00011 11.101 2.00011 13.5556Z" stroke="#181F27" stroke-width="1.5" stroke-linecap="round" stroke-linejoin="round"/>
</svg>
