<svg width="20" height="20" viewBox="0 0 20 20" fill="none" xmlns="http://www.w3.org/2000/svg">
<circle cx="10" cy="10" r="10" fill="#313D4A"/>
<path d="M15.6487 10.3656C15.4547 10.3656 15.2974 10.5229 15.2974 10.7169C15.2974 12.1945 14.187 13.3966 12.8221 13.3966C11.8212 13.3966 10.9256 12.7398 10.5426 11.7626C10.7859 11.6615 11.0002 11.4936 11.1562 11.2728L11.777 10.394C11.777 10.394 12.9222 8.76649 12.9556 8.70665C12.9557 8.7064 12.9558 8.70614 12.956 8.70588C13.2836 8.11889 13.274 7.41878 12.9302 6.83294C12.5877 6.24932 11.9785 5.90088 11.3005 5.90088H8.69949C8.02149 5.90088 7.41227 6.24929 7.06981 6.83291C6.72608 7.41869 6.71643 8.11865 7.04388 8.70562C7.04407 8.70597 7.04421 8.70635 7.04442 8.7067C7.07784 8.76651 8.22297 10.3939 8.22297 10.3939C8.22299 10.3939 8.84383 11.2728 8.84383 11.2728C8.99983 11.4936 9.21407 11.6615 9.45745 11.7626C9.07446 12.7398 8.17885 13.3966 7.17796 13.3966C5.81301 13.3966 4.70259 12.1945 4.70259 10.7169C4.70259 10.5229 4.5453 10.3656 4.3513 10.3656C4.15729 10.3656 4 10.5229 4 10.7169C4 12.5819 5.4256 14.0992 7.17794 14.0992C8.38054 14.0992 9.46251 13.3756 10 12.2737C10.5375 13.3756 11.6195 14.0992 12.8221 14.0992C14.5744 14.0992 16 12.5819 16 10.7169C16 10.5229 15.8427 10.3656 15.6487 10.3656ZM11.3695 9.75307C11.257 9.66262 11.1858 9.524 11.1858 9.37337C11.1858 9.10498 11.4042 8.88663 11.6726 8.88663H11.9816L11.3695 9.75307ZM8.63047 9.75307L8.01842 8.88663H8.32742C8.59581 8.88663 8.81415 9.10498 8.81415 9.37337C8.81418 9.52402 8.74296 9.66262 8.63047 9.75307ZM9.03589 10.327C9.32965 10.107 9.51677 9.75565 9.51677 9.37339C9.51677 8.71759 8.98324 8.18407 8.32745 8.18407H7.57607C7.46007 7.85891 7.49377 7.49874 7.67582 7.18852C7.89079 6.82219 8.27349 6.60349 8.69954 6.60349H11.3006C11.7266 6.60349 12.1093 6.82219 12.3243 7.18852C12.5063 7.49876 12.54 7.85891 12.424 8.18407H11.6726C11.0168 8.18407 10.4833 8.71759 10.4833 9.37339C10.4833 9.75565 10.6704 10.107 10.9642 10.327L10.5824 10.8674C10.447 11.0591 10.2347 11.169 10.0001 11.169C9.76537 11.169 9.55312 11.0591 9.41773 10.8674L9.03589 10.327Z" fill="white"/>
</svg>
