<svg width="102" height="102" viewBox="0 0 102 102" fill="none" xmlns="http://www.w3.org/2000/svg">
<path d="M99.014 54.107C97.3649 54.107 96.028 55.4439 96.028 57.093C96.028 69.6524 86.5894 79.8701 74.9877 79.8701C66.4802 79.8701 58.8672 74.2872 55.6119 65.9817C57.6804 65.122 59.5017 63.6953 60.8277 61.8182L66.1043 54.3484C66.1045 54.3482 75.8385 40.5144 76.1226 40.0058C76.1238 40.0036 76.1246 40.0014 76.1258 39.9993C78.9105 35.0098 78.8287 29.0589 75.9066 24.0792C72.9959 19.1185 67.8173 16.1567 62.0543 16.1567H39.9457C34.1827 16.1567 29.0043 19.1183 26.0934 24.079C23.1717 29.0581 23.0896 35.0078 25.873 39.9971C25.8746 40 25.8758 40.0032 25.8776 40.0062C26.1616 40.5146 35.8953 54.3476 35.8953 54.3476C35.8955 54.3478 41.1725 61.8182 41.1725 61.8182C42.4985 63.6951 44.3196 65.122 46.3883 65.9817C43.1329 74.2872 35.5202 79.8701 27.0127 79.8701C15.4106 79.8701 5.97202 69.6524 5.97202 57.093C5.97202 55.4439 4.63509 54.107 2.98601 54.107C1.33694 54.107 0 55.4439 0 57.093C0 72.9453 12.1176 85.8421 27.0125 85.8421C37.2346 85.8421 46.4313 79.6917 51.0001 70.3258C55.5689 79.6917 64.7658 85.8421 74.9877 85.8421C89.8824 85.8421 102 72.9453 102 57.093C102 55.4439 100.663 54.107 99.014 54.107ZM62.641 48.9004C61.6848 48.1316 61.0797 46.9533 61.0797 45.6729C61.0797 43.3916 62.9356 41.5357 65.2169 41.5357H67.8434L62.641 48.9004ZM39.359 48.9004L34.1566 41.5357H36.7831C39.0644 41.5357 40.9203 43.3916 40.9203 45.6729C40.9205 46.9535 40.3151 48.1316 39.359 48.9004ZM42.8051 53.7787C45.302 51.9085 46.8925 48.9223 46.8925 45.6731C46.8925 40.0988 42.3576 35.5638 36.7833 35.5638H30.3966C29.4106 32.8 29.6971 29.7385 31.2444 27.1017C33.0717 23.9879 36.3246 22.129 39.9461 22.129H62.0547C65.6761 22.129 68.9291 23.9879 70.7563 27.1017C72.3037 29.7387 72.59 32.8 71.6042 35.5638H65.2173C59.643 35.5638 55.1081 40.0988 55.1081 45.6731C55.1081 48.9223 56.6984 51.9085 59.1955 53.7787L55.9501 58.3726C54.7993 60.002 52.9951 60.9362 51.0005 60.9362C49.0056 60.9362 47.2015 60.0018 46.0507 58.3726L42.8051 53.7787Z" fill="white"/>
</svg>
