<svg width="20" height="20" viewBox="0 0 20 20" fill="none" xmlns="http://www.w3.org/2000/svg">
<path d="M19 10C19 11.78 18.4722 13.5201 17.4832 15.0001C16.4943 16.4802 15.0887 17.6337 13.4442 18.3149C11.7996 18.9961 9.99002 19.1743 8.24419 18.8271C6.49836 18.4798 4.89471 17.6226 3.63604 16.364C2.37737 15.1053 1.5202 13.5016 1.17294 11.7558C0.82567 10.01 1.0039 8.20038 1.68509 6.55585C2.36628 4.91131 3.51983 3.50571 4.99987 2.51677C6.47991 1.52784 8.21997 1 10 1C12.3861 1.00262 14.6738 1.95167 16.3611 3.63893C18.0483 5.32619 18.9974 7.61385 19 10Z" fill="#DB0000"/>
<path d="M10.0003 12.7366C9.84517 12.7366 9.69642 12.675 9.58675 12.5653C9.47707 12.4556 9.41546 12.3069 9.41546 12.1517V9.81246C9.41546 9.65736 9.47707 9.50861 9.58675 9.39893C9.69642 9.28926 9.84517 9.22764 10.0003 9.22764C10.3473 9.22764 10.6865 9.12475 10.975 8.93196C11.2635 8.73918 11.4884 8.46517 11.6212 8.14458C11.754 7.824 11.7887 7.47123 11.721 7.1309C11.6533 6.79057 11.4862 6.47795 11.2409 6.23259C10.9955 5.98722 10.6829 5.82012 10.3426 5.75243C10.0022 5.68473 9.64946 5.71947 9.32887 5.85227C9.00829 5.98506 8.73428 6.20993 8.54149 6.49845C8.34871 6.78697 8.24581 7.12618 8.24581 7.47318C8.24581 7.62828 8.1842 7.77704 8.07452 7.88671C7.96485 7.99639 7.8161 8.058 7.66099 8.058C7.50589 8.058 7.35714 7.99639 7.24746 7.88671C7.13779 7.77704 7.07617 7.62828 7.07617 7.47318C7.07622 6.91991 7.23323 6.378 7.52897 5.9104C7.82471 5.4428 8.24705 5.0687 8.74692 4.83155C9.24679 4.5944 9.80369 4.50394 10.3529 4.57066C10.9022 4.63738 11.4212 4.85856 11.8497 5.2085C12.2783 5.55844 12.5988 6.02278 12.7739 6.54759C12.9491 7.07239 12.9718 7.63613 12.8394 8.17333C12.707 8.71052 12.4248 9.19911 12.0258 9.58237C11.6268 9.96562 11.1272 10.2278 10.5851 10.3385V12.1517C10.5851 12.3069 10.5235 12.4556 10.4138 12.5653C10.3041 12.675 10.1554 12.7366 10.0003 12.7366Z" fill="white"/>
<path d="M9.99986 15.0762C9.84476 15.0762 9.696 15.0146 9.58633 14.905C9.47665 14.7953 9.41504 14.6465 9.41504 14.4914V13.9066C9.41504 13.7515 9.47665 13.6027 9.58633 13.4931C9.696 13.3834 9.84476 13.3218 9.99986 13.3218C10.155 13.3218 10.3037 13.3834 10.4134 13.4931C10.5231 13.6027 10.5847 13.7515 10.5847 13.9066V14.4914C10.5847 14.6465 10.5231 14.7953 10.4134 14.905C10.3037 15.0146 10.155 15.0762 9.99986 15.0762Z" fill="white"/>
</svg>
