<svg width="20" height="20" viewBox="0 0 20 20" fill="none" xmlns="http://www.w3.org/2000/svg">
<path d="M9.61031 11.163C10.4808 11.163 11.1864 10.4573 11.1864 9.58687C11.1864 8.7164 10.4808 8.01074 9.61031 8.01074C8.73984 8.01074 8.03418 8.7164 8.03418 9.58687C8.03418 10.4573 8.73984 11.163 9.61031 11.163Z" stroke="#DB0000" stroke-miterlimit="10" stroke-linecap="round" stroke-linejoin="round"/>
<path d="M12.4296 12.6073C13.3001 12.6073 14.0058 11.9017 14.0058 11.0312C14.0058 10.1607 13.3001 9.45508 12.4296 9.45508C11.5592 9.45508 10.8535 10.1607 10.8535 11.0312C10.8535 11.9017 11.5592 12.6073 12.4296 12.6073Z" stroke="#DB0000" stroke-miterlimit="10" stroke-linecap="round" stroke-linejoin="round"/>
<path d="M6.79 12.6073C7.66047 12.6073 8.36613 11.9017 8.36613 11.0312C8.36613 10.1607 7.66047 9.45508 6.79 9.45508C5.91953 9.45508 5.21387 10.1607 5.21387 11.0312C5.21387 11.9017 5.91953 12.6073 6.79 12.6073Z" stroke="#DB0000" stroke-miterlimit="10" stroke-linecap="round" stroke-linejoin="round"/>
<path d="M11.9859 13.1039C11.7051 12.8799 11.4765 12.5952 11.3276 12.2684C11.0305 11.6163 10.3731 11.1631 9.60977 11.1631C8.84648 11.1631 8.18906 11.6163 7.89199 12.2684C7.74305 12.5952 7.51449 12.88 7.23367 13.1039C6.88949 13.3784 6.66895 13.8014 6.66895 14.2759C6.66895 15.1034 7.33977 15.7742 8.16727 15.7742H11.0523C11.8798 15.7742 12.5506 15.1034 12.5506 14.2759C12.5506 13.8014 12.3301 13.3784 11.9859 13.1039Z" stroke="#DB0000" stroke-miterlimit="10" stroke-linecap="round" stroke-linejoin="round"/>
<path d="M16.1014 0.782243H4.1123C5.14324 0.815368 5.96676 1.67763 5.96676 2.72263C5.96676 3.309 5.70746 3.83783 5.29773 4.20041V4.69795H16.1014C17.1893 4.69795 18.0793 3.80904 18.0793 2.72263C18.0793 1.63623 17.1893 0.74736 16.1014 0.782243Z" stroke="#DB0000" stroke-miterlimit="10" stroke-linecap="round" stroke-linejoin="round"/>
<path d="M4.14148 0.782209H3.89547C2.78813 0.757678 1.9209 1.69533 1.9209 2.80123V16.8749C1.9209 18.1694 2.97023 19.2187 4.26465 19.2187H14.8775C16.172 19.2187 17.2213 18.1694 17.2213 16.8749V16.8558" stroke="#DB0000" stroke-miterlimit="10" stroke-linecap="round" stroke-linejoin="round"/>
<path d="M17.2217 12.9496V4.42236" stroke="#DB0000" stroke-miterlimit="10" stroke-linecap="round" stroke-linejoin="round"/>
</svg>
