<svg width="40" height="40" viewBox="0 0 40 40" fill="none" xmlns="http://www.w3.org/2000/svg">
<mask id="path-1-inside-1_194_1626" fill="white">
<path d="M38.5 20C39.3284 20 40.0059 20.6725 39.9438 21.4986C39.6862 24.9264 38.5485 28.2392 36.6294 31.1114C34.4318 34.4004 31.3082 36.9638 27.6537 38.4776C23.9991 39.9913 19.9778 40.3874 16.0982 39.6157C12.2186 38.844 8.65491 36.9392 5.85786 34.1421C3.06081 31.3451 1.156 27.7814 0.384294 23.9018C-0.38741 20.0222 0.00865672 16.0009 1.52241 12.3463C3.03616 8.69181 5.59961 5.56824 8.8886 3.37061C11.7608 1.45149 15.0736 0.313762 18.5014 0.0562148C19.3275 -0.0058539 20 0.671573 20 1.5C20 2.32843 19.3271 2.99313 18.5019 3.06613C15.6682 3.3168 12.934 4.27565 10.5553 5.86502C7.75967 7.733 5.58074 10.388 4.29405 13.4944C3.00736 16.6007 2.6707 20.0189 3.32665 23.3165C3.9826 26.6142 5.60169 29.6433 7.97918 32.0208C10.3567 34.3983 13.3858 36.0174 16.6835 36.6734C19.9811 37.3293 23.3993 36.9926 26.5056 35.706C29.612 34.4193 32.267 32.2403 34.135 29.4447C35.7243 27.066 36.6832 24.3318 36.9339 21.4981C37.0069 20.6729 37.6716 20 38.5 20Z"/>
</mask>
<path d="M38.5 20C39.3284 20 40.0059 20.6725 39.9438 21.4986C39.6862 24.9264 38.5485 28.2392 36.6294 31.1114C34.4318 34.4004 31.3082 36.9638 27.6537 38.4776C23.9991 39.9913 19.9778 40.3874 16.0982 39.6157C12.2186 38.844 8.65491 36.9392 5.85786 34.1421C3.06081 31.3451 1.156 27.7814 0.384294 23.9018C-0.38741 20.0222 0.00865672 16.0009 1.52241 12.3463C3.03616 8.69181 5.59961 5.56824 8.8886 3.37061C11.7608 1.45149 15.0736 0.313762 18.5014 0.0562148C19.3275 -0.0058539 20 0.671573 20 1.5C20 2.32843 19.3271 2.99313 18.5019 3.06613C15.6682 3.3168 12.934 4.27565 10.5553 5.86502C7.75967 7.733 5.58074 10.388 4.29405 13.4944C3.00736 16.6007 2.6707 20.0189 3.32665 23.3165C3.9826 26.6142 5.60169 29.6433 7.97918 32.0208C10.3567 34.3983 13.3858 36.0174 16.6835 36.6734C19.9811 37.3293 23.3993 36.9926 26.5056 35.706C29.612 34.4193 32.267 32.2403 34.135 29.4447C35.7243 27.066 36.6832 24.3318 36.9339 21.4981C37.0069 20.6729 37.6716 20 38.5 20Z" stroke="white" stroke-width="8" mask="url(#path-1-inside-1_194_1626)"/>
</svg>
