<svg width="40" height="40" viewBox="0 0 40 40" fill="none" xmlns="http://www.w3.org/2000/svg">
<path d="M7.55458 18.2222C7.55458 10.3675 13.9221 4 21.7768 4C29.6315 4 35.999 10.3675 35.999 18.2222C35.999 20.2667 35.5676 22.2104 34.7909 23.9673L36.0017 32.4431L28.7381 30.6272C26.6804 31.7844 24.3057 32.4444 21.7768 32.4444M4.00071 27.1111C4.00071 28.3889 4.27031 29.6037 4.75572 30.7018L3.99902 35.9992L8.53834 34.8642C9.82428 35.5875 11.3083 36 12.8888 36C17.7975 36 21.7768 32.0203 21.7768 27.1111C21.7768 22.2019 17.7975 18.2222 12.8888 18.2222C7.98002 18.2222 4.00071 22.2019 4.00071 27.1111Z" stroke="#0046C6" stroke-width="3" stroke-linecap="round" stroke-linejoin="round"/>
</svg>
