<svg width="124" height="124" viewBox="0 0 124 124" fill="none" xmlns="http://www.w3.org/2000/svg">
<path d="M23.2497 85.25L16.9141 95.9062L28.6553 102.688L34.9231 91.7852L23.2497 85.25Z" fill="#B5BAC0"/>
<path d="M13.5625 93.8965L32.0191 104.553L22.3316 121.331L3.875 110.675L13.5625 93.8965Z" fill="#0046C6"/>
<path d="M48.8174 98.71C72.3585 98.71 91.4424 79.6261 91.4424 56.085C91.4424 32.5438 72.3585 13.46 48.8174 13.46C25.2762 13.46 6.19238 32.5438 6.19238 56.085C6.19238 79.6261 25.2762 98.71 48.8174 98.71Z" fill="#0046C6"/>
<path d="M48.9434 89.2817C67.1342 89.2817 81.8809 74.5351 81.8809 56.3442C81.8809 38.1534 67.1342 23.4067 48.9434 23.4067C30.7525 23.4067 16.0059 38.1534 16.0059 56.3442C16.0059 74.5351 30.7525 89.2817 48.9434 89.2817Z" fill="#F5F5F5"/>
<path d="M50.3059 71.6825V89.2138C55.5237 89.0045 60.6166 87.5554 65.163 84.9863C69.7093 82.4172 73.5783 78.8021 76.4496 74.4403L70.7574 64.9191V59.5083L75.5293 56.8029L74.3291 49.4422C74.2787 49.2114 74.1691 48.9978 74.0109 48.8225C73.8527 48.6472 73.6515 48.5162 73.4271 48.4424L68.0305 46.6577H55.7596L50.363 48.4423C50.1386 48.516 49.9374 48.647 49.7792 48.8224C49.621 48.9977 49.5114 49.2113 49.461 49.4421L48.2607 56.8028L53.0328 59.5083V64.9191L50.3059 71.6825Z" fill="#CEDDE6"/>
<path d="M29.9266 53.2382L25.8365 50.5327V62.707L19.8828 71.8417C22.2369 76.2443 25.5608 80.0544 29.6033 82.9841C33.6458 85.9137 38.3013 87.8864 43.2181 88.7529L43.5611 88.4216V73.5286L40.8343 68.1178L43.2732 63.2783C43.4648 62.1966 43.5612 61.1002 43.5611 60.0017V50.5327L39.4708 53.2382H29.9266Z" fill="#99BBCC"/>
<path d="M48.9424 91.2197C55.84 91.2197 62.5827 89.1744 68.3179 85.3422C74.0531 81.5101 78.5231 76.0634 81.1627 69.6908C83.8023 63.3183 84.4929 56.3061 83.1473 49.541C81.8016 42.7759 78.4801 36.5617 73.6027 31.6844C68.7254 26.807 62.5112 23.4855 55.7462 22.1399C48.9811 20.7942 41.9689 21.4848 35.5963 24.1244C29.2237 26.764 23.777 31.2341 19.9449 36.9692C16.1128 42.7044 14.0674 49.4471 14.0674 56.3447C14.0781 65.5909 17.7559 74.4552 24.2939 80.9932C30.8319 87.5312 39.6963 91.209 48.9424 91.2197ZM52.2441 87.1635V72.0586L54.8306 65.6444C54.9232 65.414 54.9707 65.168 54.9707 64.9197V59.5083C54.9708 59.1655 54.88 58.8289 54.7074 58.5327C54.5349 58.2365 54.2869 57.9914 53.9887 57.8225L50.3898 55.7828L51.3018 50.1727L56.0718 48.5947H67.7176L72.4838 50.1727L73.3996 55.7828L69.8027 57.8224C69.5045 57.9914 69.2565 58.2365 69.084 58.5327C68.9115 58.8289 68.8206 59.1655 68.8208 59.5083V64.9197C68.8205 65.2939 68.9289 65.66 69.133 65.9736L74.3588 74.0418C71.826 77.6838 68.5412 80.7399 64.726 83.0036C60.9109 85.2673 56.6544 86.6858 52.2441 87.1635ZM17.9424 56.3447C17.9312 51.6558 18.9839 47.0255 21.0211 42.8022C23.0583 38.579 26.0271 34.8729 29.7038 31.963C33.3805 29.0531 37.6694 27.0151 42.2477 26.0025C46.826 24.9899 51.5743 25.0291 56.1353 26.1171C60.6963 27.205 64.951 29.3135 68.5792 32.2837C72.2074 35.2539 75.1146 39.0084 77.0819 43.2647C79.0491 47.521 80.0253 52.168 79.9368 56.8561C79.8483 61.5442 78.6974 66.1512 76.5709 70.3301L72.6957 64.3464V60.6379L76.4854 58.4885C76.83 58.2931 77.1064 57.9968 77.2775 57.6396C77.4487 57.2824 77.5064 56.8814 77.4428 56.4904L76.2224 49.0356C76.101 48.4753 75.8355 47.9564 75.4523 47.53C75.0691 47.1037 74.5813 46.7846 74.0371 46.6043L68.639 44.8181C68.4423 44.7535 68.2367 44.7202 68.0297 44.7197H55.7595C55.5525 44.7202 55.3469 44.7535 55.1502 44.8181L49.7559 46.6043C49.198 46.7935 48.6999 47.1268 48.3122 47.5703C47.9245 48.0139 47.6608 48.552 47.5478 49.1302L46.3482 56.4904C46.2847 56.8814 46.3424 57.2824 46.5135 57.6396C46.6847 57.9968 46.9611 58.2931 47.3056 58.4885L51.0957 60.6379V64.5432L48.5091 70.9574C48.4166 71.1878 48.3691 71.4337 48.3691 71.682V87.3157C47.4016 87.2978 46.4429 87.2466 45.4988 87.1417V73.5287C45.4985 73.2257 45.4272 72.927 45.2907 72.6565L43.0031 68.1173L45.005 64.1496C45.3649 62.7975 45.5312 61.4011 45.4988 60.0022V50.5322C45.4989 50.1821 45.4041 49.8385 45.2244 49.5379C45.0448 49.2374 44.7871 48.9911 44.4787 48.8254C44.1702 48.6596 43.8227 48.5806 43.4729 48.5966C43.1231 48.6126 42.7842 48.7231 42.4923 48.9164L38.8878 51.3004H30.5097L26.9052 48.9164C26.6132 48.7231 26.2744 48.6126 25.9246 48.5966C25.5748 48.5806 25.2272 48.6597 24.9188 48.8254C24.6104 48.9912 24.3527 49.2374 24.1731 49.538C23.9934 49.8385 23.8986 50.1821 23.8987 50.5323V62.1327L20.1774 67.8406C18.704 64.1869 17.9452 60.2844 17.9424 56.3447ZM27.4596 63.7655C27.6645 63.4508 27.7736 63.0834 27.7737 62.7078V54.1367L28.8579 54.8538C29.1749 55.0636 29.5467 55.1754 29.9269 55.1754H39.4706C39.8508 55.1754 40.2226 55.0636 40.5396 54.8538L41.6238 54.1367V60.0022C41.6238 60.4487 41.5424 62.0399 41.4573 62.5792L39.1035 67.245C38.9664 67.5153 38.8949 67.8142 38.8949 68.1173C38.8949 68.4204 38.9664 68.7192 39.1035 68.9895L41.6238 73.9903V86.4357C37.5693 85.4425 33.7565 83.6425 30.4131 81.1432C27.0696 78.6439 24.2641 75.4965 22.164 71.8889L27.4596 63.7655Z" fill="#181F27"/>
<path d="M2.00366 111.179C2.13678 111.676 2.46136 112.099 2.90619 112.356L21.3635 123.012C21.8087 123.269 22.3376 123.339 22.8339 123.206C23.3302 123.073 23.7535 122.748 24.0106 122.303L33.6981 105.524C33.9546 105.079 34.024 104.55 33.891 104.054C33.758 103.557 33.4334 103.134 32.9885 102.877L31.3024 101.903L33.5896 97.9464C43.9792 101.718 55.4001 101.491 65.6318 97.3102C75.8636 93.1292 84.175 85.2929 88.9501 75.3246C93.7253 65.3563 94.6231 53.9685 91.4688 43.3752C88.3145 32.7818 81.3337 23.7399 71.8835 18.0074C62.4333 12.2748 51.189 10.2613 40.3368 12.3583C29.4845 14.4552 19.7998 20.5128 13.1655 29.3533C6.53119 38.1938 3.42139 49.1855 4.4407 60.1914C5.46002 71.1973 10.5356 81.4309 18.6807 88.9026L16.2043 93.1865L14.5312 92.2206C14.3108 92.0934 14.0675 92.0108 13.8152 91.9776C13.5629 91.9444 13.3065 91.9612 13.0607 92.0271C12.8149 92.093 12.5845 92.2067 12.3826 92.3616C12.1807 92.5165 12.0114 92.7097 11.8842 92.9301L2.19665 109.709C1.93998 110.154 1.87056 110.683 2.00366 111.179ZM9.51715 66.6168C8.13405 61.4558 7.78106 56.0729 8.47833 50.7754C9.1756 45.478 10.9095 40.3697 13.581 35.7424C16.2524 31.115 19.8092 27.0592 24.0482 23.8065C28.2871 20.5537 33.1253 18.1678 38.2864 16.7849C41.7422 15.855 45.3052 15.3829 48.884 15.3809C56.4775 15.3916 63.9165 17.5264 70.3601 21.5441C76.8036 25.5617 81.9947 31.302 85.3462 38.1158C88.6978 44.9296 90.0763 52.5452 89.3257 60.1015C88.5751 67.6578 85.7255 74.8534 81.099 80.8748C76.4726 86.8961 70.2538 91.5031 63.1458 94.1747C56.0378 96.8463 48.3241 97.476 40.8769 95.9926C33.4297 94.5093 26.546 90.972 21.0042 85.7808C15.4623 80.5895 11.4834 73.9513 9.51715 66.6168ZM29.9782 96.4499L27.946 99.9656L19.5607 95.1244L21.6957 91.4309C23.2369 92.6175 24.854 93.7024 26.5365 94.6784C27.6662 95.3306 28.8178 95.9073 29.9782 96.4499ZM14.272 96.5459L29.3727 105.265L21.6227 118.687L6.52197 109.968L14.272 96.5459Z" fill="#181F27"/>
<path d="M97.4697 14.2769L104.321 7.42538L107.061 10.1654L100.21 17.0169L97.4697 14.2769Z" fill="#181F27"/>
<path d="M100.216 33.4683L102.956 30.7282L109.806 37.5783L107.066 40.3184L100.216 33.4683Z" fill="#181F27"/>
<path d="M104.332 21.9189H112.551V25.7939H104.332V21.9189Z" fill="#181F27"/>
<path d="M74.1826 7.4248L76.9227 4.68477L83.7728 11.5349L81.0327 14.2749L74.1826 7.4248Z" fill="#181F27"/>
<path d="M88.6953 1.9375H92.5703V10.1564H88.6953V1.9375Z" fill="#181F27"/>
<path d="M112.375 100.589C114.561 100.22 116.595 99.2336 118.239 97.7464C119.882 96.2592 121.066 94.3332 121.652 92.1953C122.237 90.0574 122.199 87.7968 121.542 85.6799C120.885 83.5629 119.636 81.6779 117.943 80.247C116.251 78.8161 114.184 77.899 111.987 77.6037C109.79 77.3083 107.555 77.6472 105.544 78.5802C103.534 79.5132 101.832 81.0016 100.639 82.8699C99.4465 84.7382 98.8127 86.9085 98.8125 89.125H102.688C102.688 87.5922 103.142 86.0938 103.994 84.8193C104.845 83.5448 106.056 82.5515 107.472 81.9649C108.888 81.3784 110.446 81.2249 111.949 81.5239C113.453 81.8229 114.834 82.5611 115.918 83.6449C117.001 84.7288 117.74 86.1097 118.039 87.613C118.338 89.1164 118.184 90.6747 117.598 92.0908C117.011 93.5069 116.018 94.7173 114.743 95.5689C113.469 96.4205 111.97 96.875 110.438 96.875C110.183 96.8749 109.931 96.9249 109.696 97.0222C109.461 97.1195 109.247 97.2622 109.067 97.4422C108.887 97.6221 108.744 97.8357 108.647 98.0709C108.55 98.306 108.5 98.558 108.5 98.8125V110.438H112.375V100.589Z" fill="#181F27"/>
<path d="M110.438 118.188C111.508 118.188 112.375 117.32 112.375 116.25C112.375 115.18 111.508 114.312 110.438 114.312C109.367 114.312 108.5 115.18 108.5 116.25C108.5 117.32 109.367 118.188 110.438 118.188Z" fill="#181F27"/>
<path d="M31.4844 61.5156C32.2869 61.5156 32.9375 60.865 32.9375 60.0625C32.9375 59.26 32.2869 58.6094 31.4844 58.6094C30.6818 58.6094 30.0312 59.26 30.0312 60.0625C30.0312 60.865 30.6818 61.5156 31.4844 61.5156Z" fill="#181F27"/>
<path d="M37.9424 61.5156C38.7449 61.5156 39.3955 60.865 39.3955 60.0625C39.3955 59.26 38.7449 58.6094 37.9424 58.6094C37.1398 58.6094 36.4893 59.26 36.4893 60.0625C36.4893 60.865 37.1398 61.5156 37.9424 61.5156Z" fill="#181F27"/>
<path d="M57.6406 57.1562C58.4432 57.1562 59.0938 56.5057 59.0938 55.7031C59.0938 54.9006 58.4432 54.25 57.6406 54.25C56.8381 54.25 56.1875 54.9006 56.1875 55.7031C56.1875 56.5057 56.8381 57.1562 57.6406 57.1562Z" fill="#181F27"/>
<path d="M66.3594 57.1562C67.1619 57.1562 67.8125 56.5057 67.8125 55.7031C67.8125 54.9006 67.1619 54.25 66.3594 54.25C65.5568 54.25 64.9062 54.9006 64.9062 55.7031C64.9062 56.5057 65.5568 57.1562 66.3594 57.1562Z" fill="#181F27"/>
<path d="M62.3213 59.5767H61.3525C60.9671 59.5767 60.5975 59.7298 60.325 60.0023C60.0525 60.2748 59.8994 60.6444 59.8994 61.0298C59.8994 61.4152 60.0525 61.7848 60.325 62.0573C60.5975 62.3298 60.9671 62.4829 61.3525 62.4829H62.3213C62.7067 62.4829 63.0763 62.3298 63.3488 62.0573C63.6213 61.7848 63.7744 61.4152 63.7744 61.0298C63.7744 60.6444 63.6213 60.2748 63.3488 60.0023C63.0763 59.7298 62.7067 59.5767 62.3213 59.5767Z" fill="#181F27"/>
</svg>
