<svg width="54" height="54" viewBox="0 0 54 54" fill="none" xmlns="http://www.w3.org/2000/svg">
<path d="M50.625 18.0054C50.9607 18.0054 51.2826 17.8721 51.5199 17.6347C51.7573 17.3974 51.8906 17.0754 51.8906 16.7398V8.20947C51.8906 7.87381 51.7573 7.55189 51.5199 7.31454C51.2826 7.07719 50.9607 6.94385 50.625 6.94385H3.375C3.03934 6.94385 2.71742 7.07719 2.48007 7.31454C2.24272 7.55189 2.10938 7.87381 2.10938 8.20947V16.7398C2.10938 17.0754 2.24272 17.3974 2.48007 17.6347C2.71742 17.8721 3.03934 18.0054 3.375 18.0054C4.47822 18.0054 5.53625 18.4437 6.31634 19.2238C7.09644 20.0038 7.53469 21.0619 7.53469 22.1651C7.53469 23.2683 7.09644 24.3263 6.31634 25.1064C5.53625 25.8865 4.47822 26.3248 3.375 26.3248C3.2088 26.3248 3.04422 26.3575 2.89067 26.4211C2.73711 26.4847 2.59759 26.578 2.48007 26.6955C2.36254 26.813 2.26932 26.9525 2.20572 27.1061C2.14211 27.2596 2.10937 27.4242 2.10938 27.5904V36.1207C2.10938 36.4564 2.24272 36.7783 2.48007 37.0157C2.71742 37.253 3.03934 37.3863 3.375 37.3863H50.625C50.9607 37.3863 51.2826 37.253 51.5199 37.0157C51.7573 36.7783 51.8906 36.4564 51.8906 36.1207V27.5904C51.8906 27.2547 51.7573 26.9328 51.5199 26.6955C51.2826 26.4581 50.9607 26.3248 50.625 26.3248C49.5218 26.3248 48.4637 25.8865 47.6837 25.1064C46.9036 24.3263 46.4653 23.2683 46.4653 22.1651C46.4653 21.0619 46.9036 20.0038 47.6837 19.2238C48.4637 18.4437 49.5218 18.0054 50.625 18.0054Z" fill="#8B95A1"/>
<path d="M17.4662 13.2635C17.4684 13.43 17.4375 13.5953 17.3754 13.7498C17.3132 13.9043 17.2209 14.0449 17.104 14.1634C16.987 14.282 16.8477 14.3761 16.694 14.4403C16.5404 14.5045 16.3755 14.5376 16.209 14.5376C15.8748 14.5376 15.5541 14.4054 15.317 14.1699C15.0799 13.9344 14.9456 13.6146 14.9434 13.2804V9.4751V6.94385H17.4746V9.4751L17.4662 13.2635Z" fill="#F07561"/>
<path d="M16.2775 26.3921C16.444 26.3921 16.6089 26.359 16.7625 26.2948C16.9161 26.2306 17.0555 26.1365 17.1724 26.0179C17.2894 25.8994 17.3817 25.7588 17.4438 25.6043C17.506 25.4498 17.5369 25.2845 17.5346 25.118V19.2118C17.5324 18.8776 17.3981 18.5578 17.161 18.3223C16.9239 18.0868 16.6032 17.9546 16.269 17.9546C16.1025 17.9546 15.9376 17.9876 15.784 18.0519C15.6303 18.1161 15.491 18.2102 15.374 18.3288C15.2571 18.4473 15.1648 18.5879 15.1026 18.7424C15.0405 18.8968 15.0096 19.0621 15.0118 19.2287V25.1349C15.0141 25.4691 15.1484 25.7889 15.3855 26.0244C15.6226 26.2599 15.9432 26.3921 16.2775 26.3921Z" fill="#F07561"/>
<path d="M17.6095 37.3862H15.0782V34.855V31.0665C15.076 30.9 15.1069 30.7347 15.169 30.5803C15.2312 30.4258 15.3235 30.2852 15.4404 30.1666C15.5574 30.0481 15.6968 29.954 15.8504 29.8898C16.004 29.8255 16.1689 29.7925 16.3354 29.7925C16.6696 29.7925 16.9903 29.9247 17.2274 30.1602C17.4645 30.3957 17.5988 30.7155 17.6011 31.0497V34.855L17.6095 37.3862Z" fill="#F07561"/>
<path d="M41.0982 25.481C38.9642 25.481 36.8781 26.1137 35.1036 27.2991C33.3291 28.4845 31.9459 30.1694 31.1289 32.1408C30.3119 34.1122 30.0977 36.2816 30.5134 38.3747C30.9291 40.4679 31.9561 42.3908 33.4644 43.9003C34.9728 45.4099 36.8949 46.4383 38.9877 46.8557C41.0805 47.273 43.2501 47.0605 45.2221 46.245C47.1942 45.4295 48.8802 44.0477 50.067 42.2741C51.2538 40.5006 51.8881 38.415 51.8898 36.281C51.8909 34.8631 51.6126 33.4589 51.0707 32.1486C50.5289 30.8383 49.7342 29.6477 48.732 28.6447C47.7298 27.6417 46.5397 26.8461 45.2299 26.3032C43.9201 25.7604 42.5161 25.481 41.0982 25.481Z" fill="#DB0000"/>
<path d="M42.896 36.1209L44.9969 34.0115C45.2205 33.7716 45.3422 33.4543 45.3364 33.1264C45.3306 32.7985 45.1978 32.4857 44.9659 32.2538C44.734 32.0219 44.4212 31.8891 44.0933 31.8833C43.7654 31.8775 43.4481 31.9992 43.2082 32.2228L41.0988 34.3322L38.9894 32.2228C38.8725 32.1044 38.7332 32.0104 38.5797 31.9463C38.4262 31.8821 38.2614 31.8491 38.095 31.8491C37.9287 31.8491 37.7639 31.8821 37.6104 31.9463C37.4569 32.0104 37.3176 32.1044 37.2007 32.2228C36.9657 32.4612 36.834 32.7824 36.834 33.1172C36.834 33.4519 36.9657 33.7732 37.2007 34.0115L39.31 36.1209L37.2007 38.2303C36.9657 38.4687 36.834 38.7899 36.834 39.1247C36.834 39.4594 36.9657 39.7807 37.2007 40.019C37.4393 40.2541 37.76 40.3873 38.095 40.3903C38.2613 40.3906 38.4259 40.358 38.5794 40.2942C38.7329 40.2305 38.8723 40.137 38.9894 40.019L41.0988 37.9097L43.2082 40.019C43.4468 40.2541 43.7675 40.3873 44.1025 40.3903C44.3527 40.3901 44.5972 40.3157 44.8051 40.1766C45.013 40.0375 45.1751 39.84 45.2708 39.6088C45.3665 39.3777 45.3915 39.1234 45.3428 38.8781C45.2941 38.6327 45.1737 38.4073 44.9969 38.2303L42.896 36.1209Z" fill="#CCCCCC"/>
<path d="M16.2417 17.938C16.0751 17.938 15.9103 17.971 15.7566 18.0353C15.603 18.0995 15.4637 18.1936 15.3467 18.3122C15.2297 18.4307 15.1375 18.5713 15.0753 18.7258C15.0131 18.8802 14.9823 19.0455 14.9845 19.2121V25.1183C14.9867 25.4525 15.121 25.7723 15.3582 26.0078C15.5953 26.2433 15.9159 26.3755 16.2501 26.3755C16.4166 26.3755 16.5815 26.3424 16.7351 26.2782C16.8888 26.214 17.0281 26.1199 17.1451 26.0013C17.2621 25.8828 17.3543 25.7422 17.4165 25.5877C17.4787 25.4332 17.5095 25.2679 17.5073 25.1014V19.1952C17.5051 18.861 17.3707 18.5412 17.1336 18.3057C16.8965 18.0702 16.5759 17.938 16.2417 17.938Z" fill="#181F27"/>
<path d="M50.625 18.0054C50.9607 18.0054 51.2826 17.8721 51.5199 17.6347C51.7573 17.3974 51.8906 17.0754 51.8906 16.7398V8.20947C51.8906 7.87381 51.7573 7.55189 51.5199 7.31454C51.2826 7.07719 50.9607 6.94385 50.625 6.94385H3.375C3.03934 6.94385 2.71742 7.07719 2.48007 7.31454C2.24272 7.55189 2.10938 7.87381 2.10938 8.20947V16.7398C2.10938 17.0754 2.24272 17.3974 2.48007 17.6347C2.71742 17.8721 3.03934 18.0054 3.375 18.0054C4.47822 18.0054 5.53625 18.4437 6.31634 19.2238C7.09644 20.0038 7.53469 21.0619 7.53469 22.1651C7.53469 23.2683 7.09644 24.3263 6.31634 25.1064C5.53625 25.8865 4.47822 26.3248 3.375 26.3248C3.2088 26.3248 3.04422 26.3575 2.89067 26.4211C2.73711 26.4847 2.59759 26.578 2.48007 26.6955C2.36254 26.813 2.26932 26.9525 2.20572 27.1061C2.14211 27.2596 2.10937 27.4242 2.10938 27.5904V36.1207C2.10938 36.4564 2.24272 36.7783 2.48007 37.0157C2.71742 37.253 3.03934 37.3863 3.375 37.3863H30.375C30.6431 40.1484 31.9657 42.7009 34.0678 44.5126C36.1699 46.3243 38.8895 47.2559 41.6609 47.1135C44.4323 46.9712 47.0422 45.7658 48.9475 43.7482C50.8529 41.7306 51.907 39.0561 51.8906 36.281V27.5904C51.8906 27.2547 51.7573 26.9328 51.5199 26.6955C51.2826 26.4581 50.9607 26.3248 50.625 26.3248C49.5218 26.3248 48.4637 25.8865 47.6837 25.1064C46.9036 24.3263 46.4653 23.2683 46.4653 22.1651C46.4653 21.0619 46.9036 20.0038 47.6837 19.2238C48.4637 18.4437 49.5218 18.0054 50.625 18.0054ZM41.0991 44.5245C39.4646 44.5245 37.8669 44.0396 36.5081 43.1312C35.1494 42.2228 34.0906 40.9317 33.4659 39.4213C32.8412 37.911 32.6786 36.2492 32.9987 34.6464C33.3188 33.0436 34.1072 31.5718 35.2641 30.4173C36.421 29.2627 37.8945 28.4773 39.4979 28.1605C41.1014 27.8437 42.7628 28.0097 44.2719 28.6375C45.7809 29.2653 47.0698 30.3266 47.9755 31.6873C48.8811 33.0479 49.3627 34.6466 49.3594 36.281C49.3527 38.4682 48.4797 40.5636 46.9316 42.1086C45.3834 43.6536 43.2862 44.5223 41.0991 44.5245ZM43.9341 22.1651C43.9393 23.7043 44.4758 25.1945 45.4528 26.3838C43.9229 25.704 42.2554 25.3906 40.5831 25.4687C38.9108 25.5467 37.2797 26.0139 35.8197 26.8332C34.3598 27.6525 33.1111 28.8012 32.1732 30.188C31.2353 31.5748 30.634 33.1613 30.4172 34.8213H17.6091V31.016C17.6068 30.6818 17.4725 30.3621 17.2354 30.1266C16.9983 29.891 16.6776 29.7588 16.3434 29.7588C16.1769 29.7588 16.012 29.7919 15.8584 29.8561C15.7048 29.9204 15.5654 30.0145 15.4485 30.133C15.3315 30.2516 15.2392 30.3921 15.1771 30.5466C15.1149 30.7011 15.084 30.8664 15.0862 31.0329V34.8213H4.64062V28.7379C6.1705 28.4466 7.55082 27.6307 8.54371 26.4309C9.53659 25.231 10.0799 23.7225 10.0799 22.1651C10.0799 20.6077 9.53659 19.0991 8.54371 17.8993C7.55082 16.6995 6.1705 15.8836 4.64062 15.5923V9.4751H14.9091V13.2804C14.9113 13.6146 15.0456 13.9344 15.2827 14.1699C15.5198 14.4054 15.8405 14.5376 16.1747 14.5376C16.3412 14.5376 16.5061 14.5045 16.6597 14.4403C16.8134 14.3761 16.9527 14.282 17.0697 14.1634C17.1866 14.0449 17.2789 13.9043 17.3411 13.7498C17.4032 13.5953 17.4341 13.43 17.4319 13.2635V9.4751H49.3594V15.5923C47.8371 15.8969 46.4664 16.7169 45.4782 17.9142C44.49 19.1114 43.9446 20.6127 43.9341 22.1651Z" fill="#181F27"/>
<path d="M44.9969 32.2228C44.88 32.1044 44.7407 32.0104 44.5872 31.9463C44.4337 31.8821 44.2689 31.8491 44.1025 31.8491C43.9362 31.8491 43.7714 31.8821 43.6179 31.9463C43.4644 32.0104 43.3251 32.1044 43.2082 32.2228L41.0988 34.3322L38.9894 32.2228C38.8725 32.1044 38.7332 32.0104 38.5797 31.9463C38.4262 31.8821 38.2614 31.8491 38.095 31.8491C37.9287 31.8491 37.7639 31.8821 37.6104 31.9463C37.4569 32.0104 37.3176 32.1044 37.2007 32.2228C36.9657 32.4612 36.834 32.7824 36.834 33.1172C36.834 33.4519 36.9657 33.7732 37.2007 34.0115L39.31 36.1209L37.2007 38.2303C36.9657 38.4687 36.834 38.7899 36.834 39.1247C36.834 39.4594 36.9657 39.7807 37.2007 40.019C37.4393 40.2541 37.76 40.3873 38.095 40.3903C38.2613 40.3906 38.4259 40.358 38.5794 40.2942C38.7329 40.2305 38.8723 40.137 38.9894 40.019L41.0988 37.9097L43.2082 40.019C43.4468 40.2541 43.7675 40.3873 44.1025 40.3903C44.3527 40.3901 44.5972 40.3157 44.8051 40.1766C45.013 40.0375 45.1751 39.84 45.2708 39.6088C45.3665 39.3777 45.3915 39.1234 45.3428 38.8781C45.2941 38.6327 45.1737 38.4073 44.9969 38.2303L42.896 36.1209L44.9969 34.0115C45.1153 33.8946 45.2093 33.7553 45.2734 33.6018C45.3376 33.4483 45.3706 33.2835 45.3706 33.1172C45.3706 32.9508 45.3376 32.786 45.2734 32.6325C45.2093 32.479 45.1153 32.3397 44.9969 32.2228Z" fill="#181F27"/>
</svg>
