<svg width="54" height="54" viewBox="0 0 54 54" fill="none" xmlns="http://www.w3.org/2000/svg">
<g clip-path="url(#clip0_342_2637)">
<path d="M47.6719 54H6.32812C2.83711 54 0 51.1629 0 47.6719V11.8125C0 8.32148 2.83711 5.48438 6.32812 5.48438H47.6719C51.1629 5.48438 54 8.32148 54 11.8125V47.6719C54 51.1629 51.1629 54 47.6719 54Z" fill="#CCCCCC"/>
<path d="M54 18.668H0V11.8125C0 8.32148 2.83711 5.48438 6.32812 5.48438H47.6719C51.1629 5.48438 54 8.32148 54 11.8125V18.668Z" fill="#0046C6"/>
<path d="M40.2891 10.5469C38.8336 10.5469 37.6523 9.36563 37.6523 7.91016V2.63672C37.6523 1.18125 38.8336 0 40.2891 0C41.7445 0 42.9258 1.18125 42.9258 2.63672V7.91016C42.9258 9.36563 41.7445 10.5469 40.2891 10.5469Z" fill="#CCCCCC"/>
<path d="M13.7109 10.5469C12.2555 10.5469 11.0742 9.36563 11.0742 7.91016V2.63672C11.0742 1.18125 12.2555 0 13.7109 0C15.1664 0 16.3477 1.18125 16.3477 2.63672V7.91016C16.3477 9.36563 15.1664 10.5469 13.7109 10.5469Z" fill="#CCCCCC"/>
<path d="M27 23.1504C19.7184 23.1504 13.8164 29.0524 13.8164 36.334C13.8164 43.6155 19.7184 49.5176 27 49.5176C34.2816 49.5176 40.1836 43.6155 40.1836 36.334C40.1836 29.0524 34.2816 23.1504 27 23.1504ZM32.593 40.0634C33.1077 40.578 33.1077 41.4134 32.593 41.928C32.0783 42.4427 31.243 42.4427 30.7283 41.928L26.9989 38.1987L23.2696 41.928C22.7549 42.4427 21.9196 42.4427 21.4049 41.928C20.8902 41.4134 20.8902 40.578 21.4049 40.0634L25.1343 36.334L21.4049 32.6046C20.8902 32.0899 20.8902 31.2546 21.4049 30.7399C21.9196 30.2252 22.7549 30.2252 23.2696 30.7399L26.9989 34.4693L30.7283 30.7399C31.243 30.2252 32.0783 30.2252 32.593 30.7399C33.1077 31.2546 33.1077 32.0899 32.593 32.6046L28.8636 36.334L32.593 40.0634Z" fill="#0046C6"/>
</g>
<defs>
<clipPath id="clip0_342_2637">
<rect width="54" height="54" fill="white"/>
</clipPath>
</defs>
</svg>
