<svg width="20" height="20" viewBox="0 0 20 20" fill="none" xmlns="http://www.w3.org/2000/svg">
<path d="M7.29701 3.54606L8.30651 2.09533C8.49346 1.82667 8.80004 1.6665 9.12734 1.6665H10.4578C10.7839 1.6665 11.0895 1.82549 11.2766 2.0925L12.275 3.51677M7.29701 3.54606C7.00797 3.95843 6.52751 4.16049 6.01756 4.12447M7.29701 3.54606C7.00656 3.95744 6.52751 4.16217 6.01756 4.12447M6.01756 4.12447L4.22847 4.01215C3.90762 3.99201 3.59666 4.12734 3.39274 4.37587L2.55427 5.39776C2.33807 5.66125 2.27097 6.01672 2.37623 6.3409L2.89462 7.93737M2.89462 7.93737C2.96872 8.17765 2.9782 8.43506 2.92517 8.67817M2.89462 7.93737C2.96977 8.17722 2.97891 8.43412 2.92482 8.68066M2.92517 8.67817C2.87144 8.91841 2.75624 9.14525 2.5852 9.32894M2.92517 8.67817L2.92482 8.68066M2.5852 9.32894L1.40774 10.5953C1.17934 10.841 1.08931 11.1848 1.16799 11.5108L1.46154 12.7273C1.53996 13.0523 1.77561 13.3166 2.08951 13.4316L3.70731 14.0246C3.94473 14.1164 4.14983 14.2658 4.30507 14.4539M2.5852 9.32894C2.75729 9.14675 2.87144 8.92064 2.92482 8.68066M4.30507 14.4539C4.45925 14.6426 4.56426 14.8703 4.605 15.1168M4.30507 14.4539C4.46065 14.6426 4.56601 14.8697 4.605 15.1168M4.30507 14.4539L4.30261 14.4512C4.29242 14.4389 4.28154 14.426 4.271 14.414M4.605 15.1168L4.88053 16.8093C4.93379 17.1364 5.14574 17.416 5.44642 17.5556L6.64567 18.1124C6.93673 18.2475 7.27497 18.2348 7.55503 18.0781L9.07553 17.2274M9.07553 17.2274C9.29644 17.1033 9.54299 17.0411 9.78953 17.0408M9.07553 17.2274C9.16298 17.1776 9.25464 17.1379 9.34877 17.1081C9.49171 17.0628 9.64062 17.0405 9.78953 17.0408M9.78953 17.0408C9.91772 17.041 10.0459 17.058 10.1709 17.0915C10.2872 17.1226 10.4003 17.168 10.5074 17.2274M9.78953 17.0408C10.0371 17.0404 10.2851 17.1027 10.5074 17.2274M10.5074 17.2274L12.1024 18.0908C12.3836 18.2431 12.7208 18.2516 13.0094 18.1138L14.2031 17.5437C14.5027 17.4006 14.7117 17.1181 14.761 16.7897L15.0074 15.1481M15.0074 15.1481C15.0464 14.9002 15.15 14.6708 15.3039 14.4805M15.0074 15.1481C15.045 14.8997 15.1493 14.6706 15.3039 14.4805M15.3039 14.4805C15.4566 14.2921 15.6593 14.1421 15.8953 14.0493M15.3039 14.4805C15.4563 14.2914 15.6582 14.1409 15.8953 14.0493M15.8953 14.0493L17.5324 13.4077C17.8404 13.287 18.0687 13.0218 18.1424 12.6993L18.4246 11.4638C18.4981 11.1421 18.4082 10.805 18.1844 10.5626L16.9981 9.27814M16.9981 9.27814C16.8239 9.09381 16.7024 8.87363 16.6434 8.63962M16.9981 9.27814C16.9162 9.19205 16.846 9.09793 16.7888 8.99815C16.7234 8.88483 16.6746 8.76422 16.6434 8.63962M16.6434 8.63962C16.5854 8.40728 16.5889 8.16108 16.6623 7.92277L17.1744 6.2815C17.2748 5.9597 17.2063 5.60898 16.9922 5.3486L16.1772 4.3573C15.9709 4.10641 15.6556 3.97134 15.3317 3.99506L13.565 4.12447M13.565 4.12447C13.3114 4.14237 13.0621 4.09407 12.8401 3.99016M13.565 4.12447C13.3111 4.1434 13.0621 4.09471 12.8401 3.99016M12.8401 3.99016C12.6168 3.88492 12.4208 3.72309 12.275 3.51677M12.8401 3.99016C12.6164 3.88531 12.4201 3.7239 12.275 3.51677M2.92482 8.68066L2.92552 8.67702M12.6136 10.0087C12.6136 11.5628 11.3254 12.8226 9.7365 12.8226C8.14764 12.8226 6.8594 11.5628 6.8594 10.0087C6.8594 8.45456 8.14764 7.19472 9.7365 7.19472C11.3254 7.19472 12.6136 8.45456 12.6136 10.0087Z" stroke="#313D4A" stroke-width="1.5"/>
</svg>
