<svg width="24" height="24" viewBox="0 0 24 24" fill="none" xmlns="http://www.w3.org/2000/svg">
<path d="M15.3632 15.1119C15.7562 15.2429 16.1809 15.0305 16.3119 14.6376C16.4429 14.2446 16.2305 13.8199 15.8376 13.6889L15.3632 15.1119ZM12.0004 13.2004H11.2504C11.2504 13.5232 11.457 13.8098 11.7632 13.9119L12.0004 13.2004ZM12.7504 8.18265C12.7504 7.76844 12.4146 7.43265 12.0004 7.43265C11.5862 7.43265 11.2504 7.76844 11.2504 8.18265H12.7504ZM15.8376 13.6889L12.2376 12.4889L11.7632 13.9119L15.3632 15.1119L15.8376 13.6889ZM12.7504 13.2004V8.18265H11.2504V13.2004H12.7504ZM20.8504 12.0004C20.8504 16.8881 16.8881 20.8504 12.0004 20.8504V22.3504C17.7165 22.3504 22.3504 17.7165 22.3504 12.0004H20.8504ZM12.0004 20.8504C7.11267 20.8504 3.15039 16.8881 3.15039 12.0004H1.65039C1.65039 17.7165 6.28424 22.3504 12.0004 22.3504V20.8504ZM3.15039 12.0004C3.15039 7.11267 7.11267 3.15039 12.0004 3.15039V1.65039C6.28424 1.65039 1.65039 6.28424 1.65039 12.0004H3.15039ZM12.0004 3.15039C16.8881 3.15039 20.8504 7.11267 20.8504 12.0004H22.3504C22.3504 6.28424 17.7165 1.65039 12.0004 1.65039V3.15039Z" fill="#313D4A"/>
</svg>
