<svg width="48" height="49" viewBox="0 0 48 49" fill="none" xmlns="http://www.w3.org/2000/svg">
<path d="M19.472 8.35579C19.366 8.67031 19.5594 8.99121 19.6027 9.30644C19.6713 9.80826 19.5913 10.3226 19.5182 10.8192C19.4704 11.1444 19.4411 11.5265 19.6815 11.7509C19.8838 11.9399 20.1942 11.9347 20.4706 11.9181C22.2951 11.8079 24.1199 11.698 25.9444 11.5878C26.3062 11.566 26.6666 11.5265 27.0272 11.492C27.2326 11.4724 27.7034 11.5693 27.8527 11.3875C27.9185 11.3073 27.9282 11.1936 27.9086 11.0919C27.8068 10.5678 27.6014 10.0663 27.8482 9.44384C28.0834 8.85004 28.255 8.21438 28.0515 7.7303C27.8837 7.33112 27.4928 7.09251 27.0362 7.07288C26.6448 7.05609 26.1898 7.21146 25.7492 7.29234C24.9823 7.43304 24.8756 7.29092 24.86 7.16298C24.8087 6.74465 25.0477 6.40672 25.0462 5.97916C25.0448 5.56248 24.8912 5.15455 24.5638 4.89301C24.1312 4.54751 23.68 4.51866 23.4015 4.53261C22.8048 4.56264 22.2679 5.84082 22.3197 6.41429C22.3341 6.57462 22.2906 7.31173 22.1962 7.4898C22.1034 7.66479 21.8976 7.6201 21.7353 7.61726C21.2124 7.60828 20.6733 7.69365 20.1682 7.83553C19.8968 7.91168 19.5733 8.05735 19.4728 8.35603L19.472 8.35579ZM23.4176 5.46718C23.8937 5.15621 24.3167 5.58944 24.3577 6.07257C24.3986 6.55523 23.995 7.4723 23.3892 7.10197C23.2719 7.03032 23.1893 6.90924 23.1391 6.77847C22.9829 6.3703 23.0139 5.73086 23.4176 5.46718Z" fill="url(#paint0_linear_30_622)"/>
<path d="M19.1665 8.28746C19.0605 8.60198 19.2538 8.92288 19.2971 9.23811C19.3658 9.73992 19.2858 10.2543 19.2127 10.7509C19.1649 11.076 19.1355 11.4582 19.3759 11.6826C19.5782 11.8716 19.8887 11.8664 20.1651 11.8498C21.9896 11.7396 23.8144 11.6296 25.6389 11.5194C26.0007 11.4977 26.3611 11.4582 26.7217 11.4237C26.9481 11.4019 27.202 11.4785 27.4232 11.4336C27.9551 11.3258 27.6828 10.4815 27.6535 10.1583C27.6288 9.88891 27.68 9.62098 27.7495 9.36156C27.8177 9.10758 27.8969 8.85099 27.9556 8.59252C27.9939 8.42391 28.0188 8.19429 27.9719 7.96443C27.9088 7.65653 27.7292 7.45221 27.4975 7.36235C26.6729 7.04263 24.8981 7.39049 24.797 7.35904C24.5209 7.27319 24.5869 6.9258 24.638 6.71344C24.7022 6.44622 24.8164 6.18349 24.7968 5.90326C24.7677 5.49013 24.5857 5.08575 24.2583 4.8242C23.8257 4.4787 23.1639 4.42904 22.6938 4.73245C22.1919 5.05642 21.9624 5.77202 22.0142 6.34548C22.0286 6.50581 21.9851 7.24292 21.8907 7.42099C21.7979 7.59599 21.5921 7.5513 21.4298 7.54846C20.9068 7.53947 20.3678 7.62484 19.8627 7.76673C19.5913 7.84288 19.2678 7.98855 19.1672 8.28722L19.1665 8.28746ZM23.1121 5.39909C23.5882 5.08811 24.0112 5.52135 24.0522 6.00448C24.0931 6.48713 23.6894 7.4042 23.0837 7.03388C22.9663 6.96222 22.8838 6.84114 22.8336 6.71037C22.6774 6.3022 22.7084 5.66276 23.1121 5.39909Z" fill="url(#paint1_linear_30_622)"/>
<path d="M35.2943 44.479L10.2166 44.5C9.13786 44.5 8.23707 43.2906 7.96046 42.944C7.72385 42.6474 7.71249 42.1785 7.75319 41.7675L11.7754 11.777C11.8485 11.0366 12.4488 10.4588 13.1918 10.4137L36.3796 7.8053C36.3796 7.8053 37.0533 7.94388 37.6242 8.12336C38.1952 8.30262 38.9192 8.84132 38.8617 9.75059L36.806 43.0596C36.7556 43.8573 36.094 44.4785 35.2945 44.479H35.2943Z" fill="url(#paint2_linear_30_622)"/>
<path d="M34.0536 43.3122L8.97596 43.3332C8.07942 43.3339 7.3781 42.5611 7.46612 41.6693L10.5348 10.6102C10.6079 9.86978 11.2082 9.29206 11.9512 9.24689L36.0159 7.78118C36.9257 7.72585 37.6786 8.47975 37.6211 9.38902L35.5654 41.8928C35.515 42.6905 34.8534 43.3117 34.0539 43.3122H34.0536Z" fill="url(#paint3_linear_30_622)"/>
<path d="M13.4792 9.77507C13.0725 9.79943 12.7417 10.1113 12.6944 10.516C12.4263 12.8091 11.5972 20.0617 11.6168 21.8741C11.6774 27.5064 10.27 33.1481 7.57141 38.0927C7.06245 39.0254 6.56604 40.3601 7.63033 40.9274C7.84707 41.0428 8.09126 41.0965 8.33687 41.0991C13.3687 41.149 18.4008 41.1989 23.4327 41.2488C25.1361 41.2656 28.3339 41.5869 28.9011 41.0549C30.1235 39.9082 30.8016 38.2317 31.47 36.7509C32.8282 33.7417 33.1961 30.3851 33.3234 27.0864C33.4179 24.6424 33.5127 22.2002 33.7297 19.7635C33.9502 17.285 34.2344 14.8119 34.4185 12.33C34.494 11.3105 34.5529 10.2899 34.5839 9.26806C34.5886 9.10962 34.6289 8.50659 34.6289 8.50659L13.4792 9.77507Z" fill="url(#paint4_radial_30_622)"/>
<path d="M34.6289 8.50671C33.3469 8.59491 17.152 9.55739 13.5036 9.77401C13.0862 9.79884 12.751 10.1259 12.7159 10.5421C12.5744 12.2282 12.0151 16.3851 11.7222 19.872C11.5071 22.4307 11.5265 24.6981 11.4993 25.0147C11.1088 29.5819 9.76795 34.0677 7.57145 38.0926C7.06249 39.0252 6.56607 40.3599 7.63036 40.9273C7.8471 41.0427 8.09129 41.0963 8.3369 41.0989C13.3688 41.1488 18.4009 41.1987 23.4327 41.2486C25.1361 41.2654 28.334 41.5868 28.9011 41.0547C30.1235 39.908 30.8016 38.2316 31.4701 36.7508C32.8282 33.7416 33.1962 30.385 33.3235 27.0863C33.4858 22.8762 33.8388 18.7007 34.211 14.5048C34.3854 12.5389 34.6286 8.50647 34.6286 8.50647L34.6289 8.50671Z" fill="url(#paint5_linear_30_622)"/>
<path d="M35.1845 8.91457C35.2789 9.15814 35.2806 9.46226 35.2678 9.68975C35.0714 13.1398 34.7579 16.5579 34.6095 20.0083C34.4261 24.2721 34.3092 28.6699 33.1976 32.8116C32.6577 34.8236 31.8882 36.794 30.8052 38.5766C30.4316 39.1914 30.0206 39.784 29.571 40.3459C29.2357 40.7647 28.7857 41.3663 28.1762 41.0828C27.6469 40.8364 27.5184 40.0929 27.8967 39.6604C28.4492 39.0301 28.9551 38.3347 29.4139 37.5756C30.4034 35.9382 31.1059 34.1128 31.5965 32.2718C32.2294 29.8956 32.52 27.4171 32.6872 24.9761C32.8718 22.2826 32.935 19.5841 33.143 16.8915C33.2963 14.9006 33.4179 12.8498 33.6489 10.8471C33.721 10.2216 33.7135 9.31682 34.0996 8.78876C34.2927 8.52461 34.6649 8.4111 34.9495 8.6017C35.0607 8.67619 35.1355 8.7871 35.185 8.91433L35.1845 8.91457Z" fill="url(#paint6_linear_30_622)"/>
<path d="M27.8969 25.0111C27.8903 25.0111 27.8839 25.0116 27.8773 25.0118C23.7585 25.1513 19.6398 25.2908 15.5215 25.4304C14.9517 25.4559 14.4432 25.9407 14.3796 26.5127C14.3164 27.0748 14.7123 27.509 15.2747 27.4953C15.2775 27.4953 15.2804 27.4953 15.2832 27.4951C15.2903 27.4955 27.8099 27.0008 27.8103 27.0008C28.3879 26.9708 28.8727 26.5037 28.8872 25.9565C28.9014 25.4157 28.4568 24.9976 27.8969 25.0113V25.0111Z" fill="url(#paint7_linear_30_622)"/>
<path d="M28.3707 20.129C28.3641 20.129 28.3577 20.1295 28.3511 20.1297C24.2323 20.2692 20.1135 20.4088 15.9952 20.5483C15.4255 20.5738 14.917 21.0586 14.8533 21.6307C14.7902 22.1928 15.186 22.627 15.7484 22.6132C15.7513 22.6132 15.7541 22.6132 15.757 22.613C15.7641 22.6135 28.2836 22.1188 28.2841 22.1188C28.8617 22.0887 29.3465 21.6217 29.3609 21.0745C29.3751 20.5336 28.9305 20.1153 28.3707 20.1292V20.129Z" fill="url(#paint8_linear_30_622)"/>
<path d="M28.8081 15.2464C28.8015 15.2464 28.7951 15.2469 28.7885 15.2471C24.6697 15.3867 20.5509 15.5262 16.4326 15.6657C15.8629 15.6913 15.3544 16.176 15.2907 16.7481C15.2276 17.3102 15.6234 17.7444 16.1859 17.7307C16.1887 17.7307 16.1915 17.7307 16.1944 17.7304C16.2015 17.7309 28.721 17.2362 28.7215 17.2362C29.2991 17.2062 29.7839 16.7391 29.7983 16.1919C29.8125 15.6511 29.3679 15.2327 28.8081 15.2467V15.2464Z" fill="url(#paint9_linear_30_622)"/>
<path d="M17.0533 32.2737C16.4696 32.277 16.0808 31.8565 16.1745 31.2984C16.2699 30.7328 16.8169 30.2556 17.4042 30.2333C19.662 30.1539 21.9193 30.0751 24.1766 29.9971C24.7639 29.9727 25.1926 30.4024 25.1292 30.9527C25.066 31.503 24.527 31.9698 23.9319 31.9968C23.9319 31.9961 17.0611 32.2737 17.0535 32.2737H17.0533Z" fill="url(#paint10_linear_30_622)"/>
<path d="M26.0005 7.10233C25.3389 7.15128 24.6788 7.26645 24.024 7.34732C23.8629 7.36719 23.663 7.43364 23.5522 7.26928C23.4396 7.10209 23.6173 6.91291 23.6838 6.76605C23.7668 6.58278 23.8132 6.37089 23.8381 6.17225C23.8882 5.77165 23.8272 5.34504 23.5733 5.01941C23.2293 4.57813 22.3687 4.3854 21.8465 4.56938C21.0514 4.84938 20.9618 5.75084 21.0261 6.53217C21.0453 6.76487 21.1556 6.98291 21.0659 7.21655C20.9556 7.50411 20.3541 7.50056 20.1014 7.50529C19.7205 7.51239 19.3301 7.46722 18.961 7.58688C18.5303 7.72664 18.1676 8.07426 18.0112 8.49922C17.798 9.07907 17.9792 9.68399 18.2577 10.1986C18.2774 10.235 18.2942 10.2712 18.3079 10.3071C18.4581 10.6952 18.2871 11.0506 18.2523 11.454C18.2433 11.5574 18.2608 11.5848 18.3349 11.6577C18.5026 11.8227 18.965 11.7612 19.1711 11.7591C19.5333 11.7553 19.8958 11.7565 20.2578 11.7402C22.0838 11.6572 23.91 11.5739 25.736 11.4909C26.0126 11.4784 26.3218 11.4507 26.5028 11.2415C26.7182 10.9929 26.6486 10.616 26.5667 10.2977C26.4051 9.67004 26.2416 9.01711 26.3663 8.38122C26.5856 7.26455 27.4682 7.35134 27.4914 7.35678C27.5482 7.37002 27.5794 7.33976 27.5794 7.28253C27.5794 7.21962 27.5103 7.17895 27.4595 7.1605C27.1807 7.05882 26.4479 7.06922 26.0003 7.10233H26.0005ZM22.7151 6.76865C22.62 6.87767 22.4957 6.96635 22.354 6.99591C21.6219 7.14821 21.5372 6.12945 21.745 5.67848C21.953 5.22727 22.5246 4.95272 22.8914 5.41244C23.2025 5.80239 23.012 6.42836 22.7151 6.76889V6.76865Z" fill="url(#paint11_linear_30_622)"/>
<path d="M25.6952 7.10892C25.0348 7.17703 24.3775 7.27044 23.7188 7.35202C23.5576 7.37189 23.3577 7.43834 23.247 7.27399C23.1343 7.10679 23.312 6.91761 23.3785 6.77076C23.4616 6.58748 23.508 6.3756 23.5328 6.17695C23.583 5.77635 23.5219 5.34974 23.268 5.02411C22.924 4.58284 22.2828 4.41233 21.7606 4.59608C20.9655 4.87607 20.6565 5.75554 20.7209 6.53688C20.74 6.76957 20.8503 6.98761 20.7606 7.22125C20.6504 7.50881 20.0567 7.48682 19.804 7.49155C19.4845 7.49746 18.1382 7.32885 17.7059 8.50416C17.4927 9.08401 17.674 9.68893 17.9525 10.2035C18.1858 10.6346 17.9851 11.0182 17.947 11.4587C17.9129 11.8537 18.2901 11.8601 18.6103 11.8575C19.9379 11.8468 22.9945 11.6122 25.4309 11.4956C25.7075 11.4824 26.0168 11.4554 26.1978 11.2462C26.4131 10.9976 26.3436 10.6207 26.2617 10.3024C26.1001 9.67474 25.9366 9.02181 26.0613 8.38592C26.1223 8.07495 26.2697 7.77627 26.4841 7.54216C26.6656 7.34398 27.0562 7.08527 27.4601 7.16048C26.9247 6.93322 26.2676 7.05004 25.6955 7.10892H25.6952ZM22.4096 6.77336C22.3145 6.88237 22.1902 6.97105 22.0485 7.00061C21.3164 7.15291 21.2317 6.13415 21.4395 5.68318C21.6474 5.23198 22.2191 4.95742 22.5859 5.41714C22.897 5.8071 22.7065 6.43306 22.4096 6.77359V6.77336Z" fill="url(#paint12_linear_30_622)"/>
<defs>
<linearGradient id="paint0_linear_30_622" x1="23.7841" y1="4.47869" x2="23.7943" y2="10.3302" gradientUnits="userSpaceOnUse">
<stop stop-color="#BA7CED"/>
<stop offset="0.5" stop-color="#9A6CF0"/>
<stop offset="0.58" stop-color="#9769EB"/>
<stop offset="0.66" stop-color="#8E63DE"/>
<stop offset="0.75" stop-color="#8059C9"/>
<stop offset="0.84" stop-color="#6C4AAB"/>
<stop offset="0.93" stop-color="#523784"/>
<stop offset="0.98" stop-color="#402A69"/>
</linearGradient>
<linearGradient id="paint1_linear_30_622" x1="37.5816" y1="8.19476" x2="37.5934" y2="8.19476" gradientUnits="userSpaceOnUse">
<stop stop-color="#BA7CED"/>
<stop offset="0.02" stop-color="#B177ED"/>
<stop offset="0.05" stop-color="#A471EF"/>
<stop offset="0.1" stop-color="#9C6DEF"/>
<stop offset="0.2" stop-color="#9A6CF0"/>
<stop offset="0.25" stop-color="#9669EB"/>
<stop offset="0.31" stop-color="#8E62DE"/>
<stop offset="0.37" stop-color="#7F56C9"/>
<stop offset="0.43" stop-color="#6A46AB"/>
<stop offset="0.44" stop-color="#6945A9"/>
<stop offset="0.47" stop-color="#6C47AD"/>
<stop offset="0.51" stop-color="#754EBA"/>
<stop offset="0.55" stop-color="#845AD0"/>
<stop offset="0.59" stop-color="#9A6CF0"/>
</linearGradient>
<linearGradient id="paint2_linear_30_622" x1="23.2539" y1="7.79891" x2="23.3456" y2="43.8842" gradientUnits="userSpaceOnUse">
<stop stop-color="#F0592A"/>
<stop offset="1" stop-color="#C72F00"/>
</linearGradient>
<linearGradient id="paint3_linear_30_622" x1="23.3496" y1="2.18345" x2="21.6477" y2="51.451" gradientUnits="userSpaceOnUse">
<stop stop-color="#F0592A"/>
<stop offset="0.11" stop-color="#F56934"/>
<stop offset="0.25" stop-color="#F9753C"/>
<stop offset="0.38" stop-color="#FB793F"/>
<stop offset="0.54" stop-color="#F8753B"/>
<stop offset="0.68" stop-color="#F06A32"/>
<stop offset="0.81" stop-color="#E35822"/>
<stop offset="0.94" stop-color="#D13E0D"/>
<stop offset="1" stop-color="#C72F00"/>
</linearGradient>
<radialGradient id="paint4_radial_30_622" cx="0" cy="0" r="1" gradientUnits="userSpaceOnUse" gradientTransform="translate(-40.7478 13.1998) scale(80.7727 80.7267)">
<stop offset="0.63" stop-color="#C0D9DA"/>
<stop offset="0.65" stop-color="#D7E7E9"/>
<stop offset="0.67" stop-color="#E6F0F3"/>
<stop offset="0.7" stop-color="#F0F6F9"/>
<stop offset="0.74" stop-color="#F3F8FB"/>
<stop offset="0.82" stop-color="#F3F8FB"/>
<stop offset="0.85" stop-color="#EAF2F5"/>
<stop offset="0.89" stop-color="#D1E3E5"/>
<stop offset="0.92" stop-color="#BED8D9"/>
<stop offset="0.95" stop-color="#B9D2D3"/>
<stop offset="0.99" stop-color="#ABC1C3"/>
<stop offset="1" stop-color="#A6BBBE"/>
</radialGradient>
<linearGradient id="paint5_linear_30_622" x1="20.8489" y1="5.96099" x2="20.7801" y2="42.3199" gradientUnits="userSpaceOnUse">
<stop stop-color="#BED8D9"/>
<stop offset="0.21" stop-color="#F3F8FB"/>
<stop offset="0.72" stop-color="#BED8D9"/>
<stop offset="0.9" stop-color="#BED8D9"/>
<stop offset="0.99" stop-color="#A6BBBE"/>
</linearGradient>
<linearGradient id="paint6_linear_30_622" x1="32.4052" y1="3.23288" x2="30.7576" y2="41.6996" gradientUnits="userSpaceOnUse">
<stop stop-color="#BED8D9"/>
<stop offset="1" stop-color="#A6BBBE"/>
</linearGradient>
<linearGradient id="paint7_linear_30_622" x1="21.5743" y1="24.8443" x2="21.7017" y2="27.9478" gradientUnits="userSpaceOnUse">
<stop stop-color="#9A6CF0"/>
<stop offset="0.05" stop-color="#AE77F5"/>
<stop offset="0.12" stop-color="#C081FA"/>
<stop offset="0.2" stop-color="#CB87FD"/>
<stop offset="0.28" stop-color="#CF8AFF"/>
<stop offset="0.37" stop-color="#BF7FF1"/>
<stop offset="0.57" stop-color="#9764CF"/>
<stop offset="0.76" stop-color="#6945A8"/>
<stop offset="0.82" stop-color="#6B47AC"/>
<stop offset="0.87" stop-color="#744DB8"/>
<stop offset="0.93" stop-color="#8259CD"/>
<stop offset="0.99" stop-color="#9568E9"/>
<stop offset="1" stop-color="#9A6CF0"/>
</linearGradient>
<linearGradient id="paint8_linear_30_622" x1="22.0537" y1="20.0249" x2="22.1689" y2="23.0195" gradientUnits="userSpaceOnUse">
<stop stop-color="#9A6CF0"/>
<stop offset="0.05" stop-color="#AE77F5"/>
<stop offset="0.12" stop-color="#C081FA"/>
<stop offset="0.2" stop-color="#CB87FD"/>
<stop offset="0.28" stop-color="#CF8AFF"/>
<stop offset="0.37" stop-color="#BF7FF1"/>
<stop offset="0.57" stop-color="#9764CF"/>
<stop offset="0.76" stop-color="#6945A8"/>
<stop offset="0.82" stop-color="#6B47AC"/>
<stop offset="0.87" stop-color="#744DB8"/>
<stop offset="0.93" stop-color="#8259CD"/>
<stop offset="0.99" stop-color="#9568E9"/>
<stop offset="1" stop-color="#9A6CF0"/>
</linearGradient>
<linearGradient id="paint9_linear_30_622" x1="22.4909" y1="15.1422" x2="22.6072" y2="18.1747" gradientUnits="userSpaceOnUse">
<stop stop-color="#9A6CF0"/>
<stop offset="0.05" stop-color="#AE77F5"/>
<stop offset="0.12" stop-color="#C081FA"/>
<stop offset="0.2" stop-color="#CB87FD"/>
<stop offset="0.28" stop-color="#CF8AFF"/>
<stop offset="0.37" stop-color="#BF7FF1"/>
<stop offset="0.57" stop-color="#9764CF"/>
<stop offset="0.76" stop-color="#6945A8"/>
<stop offset="0.82" stop-color="#6B47AC"/>
<stop offset="0.87" stop-color="#744DB8"/>
<stop offset="0.93" stop-color="#8259CD"/>
<stop offset="0.99" stop-color="#9568E9"/>
<stop offset="1" stop-color="#9A6CF0"/>
</linearGradient>
<linearGradient id="paint10_linear_30_622" x1="20.6291" y1="29.8028" x2="20.6651" y2="32.7929" gradientUnits="userSpaceOnUse">
<stop stop-color="#9A6CF0"/>
<stop offset="0.05" stop-color="#AE77F5"/>
<stop offset="0.12" stop-color="#C081FA"/>
<stop offset="0.2" stop-color="#CB87FD"/>
<stop offset="0.28" stop-color="#CF8AFF"/>
<stop offset="0.37" stop-color="#BF7FF1"/>
<stop offset="0.57" stop-color="#9764CF"/>
<stop offset="0.76" stop-color="#6945A8"/>
<stop offset="0.82" stop-color="#6B47AC"/>
<stop offset="0.87" stop-color="#744DB8"/>
<stop offset="0.93" stop-color="#8259CD"/>
<stop offset="0.99" stop-color="#9568E9"/>
<stop offset="1" stop-color="#9A6CF0"/>
</linearGradient>
<linearGradient id="paint11_linear_30_622" x1="23.4195" y1="4.12338" x2="22.3117" y2="10.6937" gradientUnits="userSpaceOnUse">
<stop stop-color="#BA7CED"/>
<stop offset="0.14" stop-color="#AA74EE"/>
<stop offset="0.32" stop-color="#9E6EEF"/>
<stop offset="0.5" stop-color="#9A6CF0"/>
<stop offset="0.95" stop-color="#9A6CF0"/>
<stop offset="1" stop-color="#9A6CF0"/>
</linearGradient>
<linearGradient id="paint12_linear_30_622" x1="22.3521" y1="4.63486" x2="22.7187" y2="11.5917" gradientUnits="userSpaceOnUse">
<stop stop-color="#BA7CED"/>
<stop offset="0.36" stop-color="#CF8AFF"/>
<stop offset="0.41" stop-color="#C584FC"/>
<stop offset="0.6" stop-color="#A672F3"/>
<stop offset="0.71" stop-color="#9A6CF0"/>
<stop offset="0.79" stop-color="#9E6EEF"/>
<stop offset="0.88" stop-color="#AB74EE"/>
<stop offset="0.94" stop-color="#BA7CED"/>
<stop offset="0.96" stop-color="#B579ED"/>
<stop offset="0.97" stop-color="#A873EE"/>
<stop offset="0.98" stop-color="#9A6CF0"/>
</linearGradient>
</defs>
</svg>
