<svg width="164" height="140" viewBox="0 0 164 140" fill="none" xmlns="http://www.w3.org/2000/svg">
<g clip-path="url(#clip0_306_2987)">
<path d="M9.86281 45.6074C9.86281 45.6074 10.1127 48.4862 12.0528 48.6855C10.1116 48.8847 9.86281 51.7624 9.86281 51.7624C9.86281 51.7624 9.614 48.8836 7.67285 48.6855C9.614 48.4862 9.86281 45.6074 9.86281 45.6074Z" fill="#EFE7D3"/>
<path d="M105.665 4.24658C105.665 4.24658 105.834 6.1975 107.15 6.33293C105.834 6.46837 105.665 8.41928 105.665 8.41928C105.665 8.41928 105.495 6.46837 104.18 6.33293C105.495 6.1975 105.665 4.24658 105.665 4.24658Z" fill="#EFE7D3"/>
<path d="M6.93973 91.5039C6.93973 91.5039 7.11457 93.522 8.47516 93.6619C7.11457 93.8018 6.93973 95.8188 6.93973 95.8188C6.93973 95.8188 6.76489 93.8007 5.4043 93.6619C6.76489 93.522 6.93973 91.5039 6.93973 91.5039Z" fill="#EFE7D3"/>
<path d="M24.5403 73.0034C23.5047 73.0034 23.5036 71.1196 24.5403 71.1196C25.577 71.1196 25.577 73.0034 24.5403 73.0034Z" fill="#EFE7D3"/>
<path d="M43.67 84.2499C43.1522 84.2499 43.1511 83.3086 43.67 83.3086C44.1889 83.3086 44.1889 84.2499 43.67 84.2499Z" fill="#EFE7D3"/>
<path d="M14.1695 64.162C13.6517 64.162 13.6506 63.2207 14.1695 63.2207C14.6884 63.2207 14.6884 64.162 14.1695 64.162Z" fill="#EFE7D3"/>
<path d="M29.9039 43.2367C29.3861 43.2367 29.385 42.2954 29.9039 42.2954C30.4228 42.2954 30.4228 43.2367 29.9039 43.2367Z" fill="#EFE7D3"/>
<path d="M114.295 18.1269C113.777 18.1269 113.776 17.1855 114.295 17.1855C114.813 17.1855 114.813 18.1269 114.295 18.1269Z" fill="#EFE7D3"/>
<path d="M99.0969 30.1064C98.0614 30.1064 98.0602 28.2227 99.0969 28.2227C100.134 28.2227 100.134 30.1064 99.0969 30.1064Z" fill="#EFE7D3"/>
<path d="M98.3819 15.6151C97.8641 15.6151 97.863 14.6738 98.3819 14.6738C98.9008 14.6738 98.9008 15.6151 98.3819 15.6151Z" fill="#EFE7D3"/>
<path d="M113.759 6.19864C113.241 6.19864 113.24 5.25732 113.759 5.25732C114.278 5.25732 114.278 6.19864 113.759 6.19864Z" fill="#EFE7D3"/>
<path d="M119.659 5.96341C119.4 5.96341 119.4 5.49219 119.659 5.49219C119.917 5.49219 119.917 5.96341 119.659 5.96341Z" fill="#EFE7D3"/>
<path d="M144.511 46.1402C144.252 46.1402 144.252 45.6689 144.511 45.6689C144.77 45.6689 144.77 46.1402 144.511 46.1402Z" fill="#EFE7D3"/>
<path d="M129.85 44.5185C129.073 44.5185 129.072 43.106 129.85 43.106C130.627 43.106 130.627 44.5185 129.85 44.5185Z" fill="#EFE7D3"/>
<path d="M158.994 70.0204C158.476 70.0204 158.475 69.0791 158.994 69.0791C159.513 69.0791 159.513 70.0204 158.994 70.0204Z" fill="#EFE7D3"/>
<path d="M32.7643 16.8317C31.5999 16.8317 31.5976 14.7129 32.7643 14.7129C33.931 14.7129 33.931 16.8317 32.7643 16.8317Z" fill="#EFE7D3"/>
<path d="M52.9682 1.41254C52.1915 1.41254 52.1904 0 52.9682 0C53.746 0 53.746 1.41254 52.9682 1.41254Z" fill="#EFE7D3"/>
<path d="M71.0269 6.82657C70.5092 6.82657 70.508 5.88525 71.0269 5.88525C71.5459 5.88525 71.5459 6.82657 71.0269 6.82657Z" fill="#EFE7D3"/>
<path d="M39.7375 10.2663C39.3498 10.2663 39.3486 9.56006 39.7375 9.56006C40.1264 9.56006 40.1264 10.2663 39.7375 10.2663Z" fill="#EFE7D3"/>
<path d="M24.0032 21.3571C23.6154 21.3571 23.6143 20.6509 24.0032 20.6509C24.3921 20.6509 24.3921 21.3571 24.0032 21.3571Z" fill="#EFE7D3"/>
<path d="M39.0222 42.4914C38.6344 42.4914 38.6333 41.7852 39.0222 41.7852C39.4111 41.7852 39.4111 42.4914 39.0222 42.4914Z" fill="#EFE7D3"/>
<path d="M102.852 43.7463C102.464 43.7463 102.463 43.04 102.852 43.04C103.241 43.04 103.241 43.7463 102.852 43.7463Z" fill="#EFE7D3"/>
<path d="M108.778 129.281C108.778 129.281 108.323 134.247 108.622 135.867C108.662 136.084 108.75 136.358 108.853 136.66C109.161 137.568 108.316 140.341 108.316 140.341L96.9841 140.382C96.3666 140.384 96.779 139.994 97.2823 139.635C98.1049 139.049 98.7661 138.662 101.384 137.439C101.555 137.36 102.178 136.976 102.402 136.843C102.971 136.506 103.545 135.972 104.04 135.436C104.865 134.543 104.991 130.166 104.991 130.166L108.779 129.28L108.778 129.281Z" fill="#F7A491"/>
<path d="M102.402 136.843C105.389 137.646 107.61 137.153 108.855 136.67C109.164 137.577 109.744 140.643 109.398 140.643C106.556 140.643 104.151 141.18 96.0094 141.051C95.718 141.047 95.7527 140.046 95.9433 139.826C96.4689 139.216 102.177 136.976 102.402 136.843Z" fill="#0B0A08"/>
<path d="M122.991 70.325C122.991 70.325 122.829 77.4145 120.795 81.9544C118.813 86.3767 109.331 97.2819 106.81 103.646C107.589 107.237 109.731 112.283 109.576 116.262C109.4 120.771 109.664 132.703 109.664 132.703L104.574 132.864L97.8979 102.074L107.958 68.8509L112.523 60.7842L122.989 70.325H122.991Z" fill="#FEF6E4"/>
<path d="M144.732 122.219C144.732 122.219 147.859 126.505 149.236 127.588C149.974 128.168 151.978 128.947 152.188 129.907C152.399 130.866 143.117 139.352 143.117 139.352C142.626 139.786 142.681 139.185 142.83 138.547C143.074 137.503 143.331 136.73 144.563 133.919C144.643 133.736 144.871 132.992 144.956 132.729C145.173 132.061 145.256 131.233 145.275 130.457C145.307 129.167 142.33 125.583 142.33 125.583L144.732 122.219Z" fill="#F7A491"/>
<path d="M144.956 132.727C147.906 131.276 149.333 129.324 149.988 128.065C150.871 128.574 153.247 129.656 153.039 129.958C151.397 132.338 149.693 135.296 143.101 140.901C142.865 141.102 141.897 139.946 141.894 139.635C141.885 138.78 144.87 132.99 144.956 132.726V132.727Z" fill="#0B0A08"/>
<path d="M107.297 19.6245C108.175 13.9083 113.353 9.79824 118.769 12.5718C119.987 13.1953 121.636 14.4612 122.477 15.5402C124.79 18.5052 125.351 22.1809 127.804 25.0328C129.919 27.4919 135.562 27.0274 138.198 28.919C140.834 30.8095 142.681 34.1998 142.681 38.2561C142.681 42.7914 141.656 47.6066 138.136 50.4731C134.617 53.3407 129.616 54.0548 125.241 52.8404C120.866 51.6248 117.111 48.6475 114.41 45.002C111.708 41.3565 109.797 37.3607 108.451 33.029C106.948 28.1948 106.73 23.3203 107.297 19.6267V19.6245Z" fill="#0B0A08"/>
<path d="M87.3526 74.0744C88.0856 73.4431 89.6513 72.0608 89.5089 71.9175C89.324 71.7317 88.6404 71.8638 88.424 71.9466C88.2077 72.0294 87.9466 72.1044 87.7292 72.1873C87.5129 72.2701 87.2719 72.1772 87.1509 71.9153C87.0287 71.6534 87.8211 71.1374 88.1304 71.0142C89.0943 70.6281 91.8782 70.1155 92.1707 70.0483C92.5171 69.9688 96.4823 65.1447 97.9718 63.599C100.335 60.9966 102.635 58.204 102.884 57.9275L109.359 44.3428L115.267 44.7759C115.267 44.7759 108.294 59.9535 107.858 60.6732C107.651 61.0157 101.704 66.621 101.702 66.6188C98.5994 69.1954 95.8591 71.4575 95.3458 71.9074C95.3458 71.9074 94.1702 73.6647 93.4876 74.8277C93.0505 75.5731 92.4442 76.1663 92.0004 76.576C90.7732 75.4701 89.2153 75.1343 87.7684 74.3553C87.6227 74.268 87.486 74.174 87.3515 74.0755L87.3526 74.0744Z" fill="#F48C7F"/>
<path d="M112.192 33.8281C112.192 33.8281 107.624 36.0074 105.372 49.5731L113.115 51.73L116.338 42.9861L112.192 33.8292V33.8281Z" fill="#287540"/>
<path d="M122.632 65.7852C122.632 65.7852 126.567 71.6883 127.504 76.5728C128.416 81.3309 126.899 95.6947 128.484 102.353C131.183 104.85 135.833 107.761 137.988 111.111C140.431 114.907 147.491 124.536 147.491 124.536L143.413 127.58L120.278 106.162L110.912 77.5892L107.699 69.2337L122.633 65.7852H122.632Z" fill="#EFE7D3"/>
<path d="M119.446 32.2008C119.446 32.2008 125.635 32.3273 126.717 34.1092C128.295 36.7104 122.145 54.0594 121.77 56.9091C121.395 59.7588 124.844 65.4403 124.844 65.4403C124.844 65.4403 110.506 72.1358 107.008 69.829C107.008 69.829 107.569 46.9922 107.944 44.9562C108.318 42.9202 111.442 34.6431 112.192 33.8283C112.942 33.0145 119.446 32.1997 119.446 32.1997V32.2008Z" fill="#35974D"/>
<path d="M117.712 25.2624C117.712 25.2624 117.739 25.4157 117.787 25.6754C118.019 26.9234 118.913 31.0648 119.517 32.2031C120.248 33.5787 117.017 37.9674 113.908 37.4313C112.982 37.2723 114.69 33.3996 114.608 32.9888C114.452 32.2031 114.239 31.1319 114.02 30.0339C113.897 29.4138 113.772 28.7859 113.656 28.1961C113.323 26.5182 113.052 25.146 113.052 25.146L117.711 25.2613L117.712 25.2624Z" fill="#F7A491"/>
<path d="M117.788 25.6753C117.74 25.4156 117.713 25.2623 117.713 25.2623L113.054 25.147C113.054 25.147 113.325 26.5192 113.658 28.197C113.774 28.7847 113.898 29.4092 114.02 30.0248C114.739 29.9196 115.49 29.5704 116.244 28.9134C117.066 28.197 117.604 27.3352 117.929 26.4162C117.872 26.123 117.824 25.87 117.788 25.6764V25.6753Z" fill="#F47458"/>
<path d="M114.577 14.7073C114.577 14.7073 116.772 14.4543 118.15 16.2284C119.526 18.0025 121.01 23.4903 117.59 26.4732C114.171 29.4561 110.793 26.0792 110.292 22.4998C109.791 18.9192 109.596 14.5786 114.578 14.7073H114.577Z" fill="#F7A491"/>
<path d="M109.279 22.4463C109.687 23.2376 110.372 23.6753 110.809 23.4246C111.246 23.1738 111.269 22.3299 110.861 21.5386C110.453 20.7483 109.769 20.3096 109.332 20.5603C108.894 20.811 108.871 21.655 109.28 22.4463H109.279Z" fill="#F7A491"/>
<path d="M114.33 14.1209C114.33 14.1209 117.264 19.339 119.362 19.5797C121.46 19.8203 121.737 22.5939 121.737 22.5939C121.737 22.5939 120.986 16.205 118.909 14.9727C116.832 13.7403 114.331 14.1209 114.331 14.1209H114.33Z" fill="#0B0A08"/>
<path d="M118.813 20.8914C118.643 21.8182 118.986 22.6677 119.58 22.7897C120.174 22.9117 120.794 22.2592 120.965 21.3324C121.135 20.4056 120.792 19.5561 120.198 19.4341C119.604 19.3121 118.985 19.9646 118.813 20.8914Z" fill="#F7A491"/>
<path d="M44.4492 92.6925L44.5557 93.4827L47.7409 92.4787L47.2197 90.5815L44.4492 92.6925ZM44.9031 92.8503L46.7714 91.4747L47.0695 92.3299L44.9031 92.8503Z" fill="#FEF6E4"/>
<path d="M36.5488 84.0629L37.5822 79.4111L43.7833 83.2548L40.2361 86.1078C40.2361 86.1078 39.1187 83.2066 36.5488 84.0618V84.0629Z" fill="#F47458"/>
<path d="M76.9219 101.374C76.9219 101.374 84.0813 104.568 92.0016 108.524C99.922 112.478 101.826 112.099 102.969 110.958C104.111 109.817 104.188 107.269 104.188 107.269C104.188 107.269 106.054 109.969 105.102 113.43C104.151 116.891 101.408 116.929 101.408 116.929L99.4277 115.751L100.722 118.071C100.722 118.071 97.9237 119.535 95.3146 116.93C92.7055 114.326 92.154 112.67 92.154 112.67C92.154 112.67 93.1818 116.702 94.2106 117.729C94.2106 117.729 91.3168 119.021 89.6032 116.702C87.8896 114.382 87.1275 111.416 87.1275 111.416L87.7753 116.854C87.7753 116.854 85.1101 115.828 83.6621 111.606L84.4242 115.6C84.4242 115.6 81.7355 111.878 80.6428 107.73C79.55 103.582 77.2648 103.125 77.2648 103.125L76.9219 101.376V101.374Z" fill="#0B0A08"/>
<path d="M63.2698 115.666C63.2698 115.666 63.0087 124.407 68.9016 127.609C70.3339 128.387 72.6438 131.224 72.1888 132.789C71.7561 134.274 68.2314 137.322 68.2314 137.322C68.2314 137.322 65.7803 137.499 64.673 140.251C64.497 140.688 65.2928 140.579 65.2928 140.579L71.5354 140.586L76.9195 131.492L76.5541 125.792L73.0506 116.918L66.3485 115.854L63.2687 115.668L63.2698 115.666Z" fill="#0B0A08"/>
<path d="M33.8142 109.826C33.8142 109.826 25.8132 121.833 24.0659 124.439C22.8477 126.257 22.8477 128.537 22.8477 128.537C22.8477 128.537 23.1884 132.189 23.9124 132.912C24.0256 133.025 24.2105 133.107 24.4436 133.165C26.2772 133.621 27.9112 131.892 27.3923 130.078C27.1525 129.239 26.9608 128.47 26.9608 128.157C26.9608 127.32 27.3419 127.245 27.3419 127.245L36.1768 122.158L39.0706 113.706L33.8154 109.827L33.8142 109.826Z" fill="#0B0A08"/>
<path d="M39.6154 112.479L41.0623 123.903L40.3764 136.895C40.3764 136.895 37.5588 137.58 36.7205 139.025C35.8833 140.47 36.0346 140.699 36.0346 140.699H42.7367C42.7367 140.699 48.2206 127.674 48.2206 126.229C48.2206 124.784 49.6674 116.721 49.6674 115.657C49.6674 114.593 48.754 109.818 45.5543 109.438C42.3556 109.058 39.6132 112.48 39.6132 112.48L39.6154 112.479Z" fill="#352424"/>
<path d="M30.3277 82.2341L32.0547 79.9015C32.0547 79.9015 37.7415 78.2786 40.1791 80.713C40.958 81.4909 41.8322 82.6192 42.1785 84.1089C42.359 84.8857 42.3915 86.465 42.3769 87.872C42.3612 89.4502 42.6817 90.4933 43.3105 91.9148C44.4324 93.6229 49.0689 97.2035 50.917 97.6534L49.617 97.4844C49.617 97.4844 52.114 98.8063 54.1728 99.1577C62.1806 100.414 74.2523 100.644 76.9387 101.411C80.1374 102.324 82.0796 111.755 81.2043 116.509C80.329 121.263 86.8428 119.357 88.4141 122.429C89.898 125.329 84.1911 138.672 84.1911 138.672C84.1911 138.672 82.7151 140.468 82.4484 140.734H75.9995C75.9995 140.734 76.2024 136.575 79.4268 135.511C82.6512 134.447 82.1939 127.575 82.1939 127.575C82.1939 127.575 73.1719 128.69 68.4087 122.86C65.256 119.002 65.3423 117.2 65.5653 116.686C63.8786 117.621 52.1006 123.988 46.1695 122.86C39.7723 121.643 37.7403 117.789 37.7403 117.789L38.1718 120.579C38.1718 120.579 33.8681 119.019 34.2873 115.521C34.2873 115.521 33.6406 115.977 33.6406 116.966C33.6406 116.966 31.7746 114.569 31.7746 106.964C31.7746 102.72 31.927 91.9697 31.927 91.9697C31.927 91.9697 24.2778 90.5694 23.2826 89.5755C22.6068 88.9006 21.7236 83.9769 21.7236 83.9769L30.3277 82.2352V82.2341Z" fill="#352424"/>
<path d="M43.7835 83.2548C43.7835 83.2548 42.2391 86.597 40.6398 87.104C39.0405 87.611 37.5835 79.4111 37.5835 79.4111C37.5835 79.4111 39.8272 78.5504 41.7449 80.4655C42.5025 81.2221 43.7835 83.2548 43.7835 83.2548Z" fill="#0B0A08"/>
<path d="M38.8789 114.447C40.7887 116.659 39.037 114.63 40.346 116.151C40.6172 113.468 39.7688 110.12 39.0706 107.465C40.2608 108.74 41.8467 111.278 42.5953 112.361C41.246 110.036 41.5867 105.549 41.8523 102.912C41.8601 102.921 43.4101 104.752 44.0456 105.51C44.17 104.314 44.3751 101.67 43.9672 100.512C43.5491 99.3233 42.3309 97.9309 41.4242 97.0635C42.4418 97.9074 43.7027 99.2114 44.1958 100.427C44.8738 102.097 44.3852 106.246 44.3717 106.544C42.1067 103.981 43.6522 105.726 42.2322 104.111C42.0843 106.335 41.8646 110.954 42.898 112.796C41.6797 112.026 40.5276 110.362 39.8271 109.09C41.6562 113.808 40.4715 116.573 40.4682 116.645C40.4771 116.657 40.3695 116.518 38.9226 114.643C38.8431 114.933 38.6783 115.551 38.6626 115.852C38.6604 115.741 38.8072 114.792 38.8778 114.447H38.8789Z" fill="#0B0A08"/>
<path d="M43.8675 91.4746L44.9031 93.646C44.9031 93.646 43.9145 100.996 31.825 100.178L31.4282 97.0643C31.4282 97.0643 42.452 96.6815 43.8664 91.4746H43.8675Z" fill="#35974D"/>
<path d="M82.3407 74.5928L46.7749 91.626L47.1616 92.4314L82.7274 75.3982L82.3407 74.5928Z" fill="#FEF6E4"/>
<path d="M82.1504 75.1097L83.1198 74.1146L88.6609 72.0977L94.9247 75.1097L87.632 82.479L87.1041 80.6882L91.6846 76.1506L88.0467 73.771L87.5054 74.0855L85.6146 75.1846L82.1504 75.1097Z" fill="#35974D"/>
<path d="M78.5271 79.0509C78.4329 82.0182 80.8605 84.4425 83.8316 84.3485C86.5225 84.2623 88.7136 82.0741 88.7999 79.3867C88.8952 76.4195 86.4665 73.994 83.4942 74.0891C80.8033 74.1753 78.6122 76.3646 78.5259 79.0509H78.5271Z" fill="#287540"/>
<path d="M81.0599 78.9233C80.922 80.6682 82.3689 82.1144 84.1162 81.9767C85.4902 81.8681 86.6043 80.7567 86.713 79.3833C86.8508 77.6383 85.4039 76.1922 83.6567 76.3299C82.2826 76.4373 81.1686 77.5499 81.0599 78.9221V78.9233Z" fill="#FAA928"/>
<path d="M88.8032 70.6473C88.8032 70.6473 87.2139 73.6033 87.3787 74.1596C87.4683 74.4618 89.9743 76.2258 91.4347 76.2258C92.895 76.2258 91.159 73.0873 90.8474 73.3996C90.5358 73.7108 90.7353 74.4137 90.7353 74.4137C90.7353 74.4137 90.4697 72.2524 90.1212 71.9031C89.7715 71.5539 89.6392 72.2938 89.6392 72.2938C89.6392 72.2938 90.1626 70.4525 89.6392 70.2858C89.1158 70.1179 88.8032 70.6484 88.8032 70.6484V70.6473Z" fill="#F79C8D"/>
<path d="M123.321 45.4809C123.321 45.4809 126.864 58.1792 127.495 61.1039C128.126 64.0297 127.085 75.6087 127.087 76.0307C127.089 76.4526 122.568 79.8217 123.15 80.2123C123.731 80.603 125.37 78.3756 125.939 78.9274C126.509 79.4792 126.25 86.2195 126.75 86.0673C127.684 85.7819 127.071 81.9461 127.533 81.8913C127.995 81.8364 127.789 85.9543 128.589 86.13C129.389 86.3057 128.407 82.217 128.728 82.0077C129.048 81.7984 130.185 85.7304 130.845 85.229C131.204 84.957 129.745 81.7569 130.276 81.7066C130.805 81.6551 132.314 83.934 132.696 83.5825C133.079 83.231 131.164 81.8386 130.964 80.4317C130.763 79.0236 129.864 78.1125 130.223 75.7788C130.582 73.4462 131.989 63.5473 131.991 60.589C131.994 57.4606 129.293 45.2671 129.293 45.2671L123.321 45.4798V45.4809Z" fill="#F79C8D"/>
<path d="M124.349 52.8237C124.349 52.8237 121.339 43.4105 121.251 40.0527C121.163 36.6948 122.954 32.6979 125.857 33.403C128.761 34.1082 130.826 49.6315 130.826 49.6315L124.349 52.8249V52.8237Z" fill="#287540"/>
<path d="M82.9428 23.2186C82.2524 22.8481 81.432 22.6321 80.5578 22.6209C79.7475 21.0572 77.859 20.0129 75.7128 20.0129C74.425 20.0129 73.2034 20.4002 72.262 21.0651C71.2141 19.122 68.8067 17.7632 66.0799 17.7632C64.2878 17.7632 62.5887 18.3374 61.3301 19.3526C61.1497 19.3291 60.9681 19.3179 60.7854 19.3179C58.8342 19.3179 57.2461 20.6062 57.2461 22.19C57.2461 22.5459 57.3279 22.8929 57.4815 23.2186H82.9428Z" fill="#EFE7D3"/>
<path d="M72.1676 53.4615C70.9594 52.8134 69.5215 52.4351 67.9928 52.4138C66.5739 49.6749 63.2677 47.8471 59.5098 47.8471C57.2548 47.8471 55.1153 48.5254 53.4667 49.6895C51.632 46.2857 47.4168 43.9072 42.6402 43.9072C39.5032 43.9072 36.5276 44.9123 34.3219 46.6909C34.0059 46.6506 33.6876 46.6293 33.3682 46.6293C29.951 46.6293 27.1704 48.8858 27.1704 51.6583C27.1704 52.2806 27.3127 52.8906 27.5828 53.4592H72.1676V53.4615Z" fill="#EFE7D3"/>
</g>
<defs>
<clipPath id="clip0_306_2987">
<rect width="164" height="143" fill="white"/>
</clipPath>
</defs>
</svg>
