<svg width="111" height="160" viewBox="0 0 111 160" fill="none" xmlns="http://www.w3.org/2000/svg">
<g clip-path="url(#clip0_306_3133)">
<path d="M39.0169 62.7701C39.0169 62.7701 13.1861 83.2701 13.6377 95.3501C14.0993 107.42 16.3673 113.58 13.6377 119.96C13.6377 119.96 30.5672 127.02 35.5948 132.95C40.6225 138.87 57.542 146.62 71.7218 135C71.7218 135 86.584 146.39 96.8701 138.42C107.156 130.45 108.069 122.02 109.214 115.87C110.358 109.72 112.415 91.0401 108.3 86.0201C104.186 81.0101 93.2073 57.3101 93.2073 57.3101C93.2073 57.3101 93.2073 40.2201 82.4595 23.1401L39.0169 62.7801V62.7701Z" fill="#F7F7F7"/>
<path d="M80.7739 32.04C80.7739 32.04 85.4203 57.44 78.1046 65.45C70.7889 73.47 57.9538 79.28 42.1984 73.53C26.433 67.77 80.7739 32.04 80.7739 32.04Z" fill="#E0E0E0"/>
<path d="M92.8763 127.18C84.0553 132.01 76.579 128.42 73.5484 126.47C72.6753 125.9 71.5413 126.01 70.7586 126.7C62.4393 133.94 53.1668 129.94 53.1668 129.94L45.7607 139.35C53.1567 141.95 62.9511 142.17 71.7019 134.99C71.7019 134.99 86.5641 146.38 96.8502 138.41C97.1413 138.19 97.4223 137.96 97.6932 137.74L92.8662 127.19L92.8763 127.18Z" fill="#E0E0E0"/>
<path d="M13.6379 119.95C13.6379 119.95 8.6002 140.23 13.6379 150.71C16.789 157.26 20.8231 159.18 23.4122 159.7C24.8373 159.99 25.7505 161.39 25.5197 162.82C24.4961 169.13 22.0474 183.51 20.2812 187.38L31.2598 189.2C31.2598 189.2 32.2633 171.47 35.9463 156.36C36.2373 155.16 36.0165 153.9 35.304 152.89C33.0862 149.77 28.8313 141.78 33.1565 130.62C38.8063 116.06 13.6479 119.94 13.6479 119.94L13.6379 119.95Z" fill="#F7F7F7"/>
<path d="M39.6997 131.57C39.6997 131.57 44.2758 155.26 43.8142 163.69C43.3525 172.12 43.8443 201.74 43.8443 201.74H57.5324C57.5324 201.74 59.128 134.53 59.8204 131.8C60.5028 129.07 51.1299 126.56 39.6997 131.57Z" fill="#F7F7F7"/>
<path d="M82.6904 134.76C82.6904 134.76 90.0061 189.44 89.0929 197.18L102.129 194.9C102.129 194.9 102.36 163 102.129 160.5C101.898 157.99 105.711 125.82 103.724 122.23C97.7032 111.29 82.6904 134.76 82.6904 134.76Z" fill="#F7F7F7"/>
<path d="M65.9917 136.75C65.9917 136.75 65.1287 153.88 62.4192 160.84C62.2586 161.25 62.1884 161.69 62.2586 162.13C62.7604 165.45 64.9782 180.3 65.5402 185.47L75.9267 185.27C75.9267 185.27 74.2106 168.7 72.6652 162.2C72.6652 162.2 79.429 155.45 80.3823 150.24C81.446 144.43 79.9307 134.84 79.9307 134.84C79.9307 134.84 74.5518 123.58 65.9717 136.74L65.9917 136.75Z" fill="#E0E0E0"/>
<path d="M66.6842 15.1499C66.6842 15.1499 55.0233 18.3399 52.5044 17.4299C49.9856 16.5199 43.1315 16.1799 43.1315 16.1799C43.1315 16.1799 28.6004 32.4099 29.2929 34.9199C29.9753 37.4299 31.3902 41.5299 31.3902 41.5299C31.3902 41.5299 20.7328 47.5899 19.5888 49.0299C18.4448 50.4699 20.5421 65.3599 22.3685 66.6099C24.195 67.8599 24.7268 68.2399 24.7268 68.2399C24.7268 68.2399 26.0414 70.8899 29.2728 71.4099C29.2728 71.4099 39.2478 76.1999 54.5616 71.4099C69.8755 66.6299 81.7672 51.3799 82.6804 49.2099C83.5936 47.0499 80.7737 40.8699 82.4496 23.1199L66.6742 15.1499H66.6842Z" fill="#F7F7F7"/>
<path d="M65.4199 19.14C65.4199 19.14 67.2564 -0.110019 69.3136 -1.86422e-05C71.3708 0.109981 78.5761 6.94998 81.9982 11.16C85.4302 15.37 81.2054 27.61 81.2054 27.61L65.4199 19.13V19.14Z" fill="#CCA98F"/>
<path d="M44.1651 17.7698C44.1651 17.7698 36.0466 5.46984 33.9893 4.77984C31.9321 4.09984 35.1534 25.7598 35.1534 25.7598C35.1534 25.7598 42.2183 26.6498 44.1551 17.7598L44.1651 17.7698Z" fill="#A68674"/>
<path d="M32.6946 130.89C20.5821 109.71 32.8552 89.6902 32.9756 89.4902L33.8487 90.0302C33.7283 90.2202 21.7763 109.74 33.5878 130.37L32.6946 130.88V130.89Z" fill="#8A8A8A"/>
<path d="M108.291 85.9999C104.176 80.9899 93.1977 57.2899 93.1977 57.2899C93.1977 57.2899 93.1977 50.3299 90.4079 40.8599C90.2373 43.1899 90.0968 46.4799 90.0065 51.1399C89.6151 71.5099 90.9899 78.0299 87.036 80.5299C83.032 83.0599 77.1513 79.2199 75.1443 82.1199C74.3615 83.2499 74.7027 84.6299 75.8267 88.2699C79.1483 98.9499 80.8543 104.3 83.1424 104.45C85.5508 104.61 86.4139 100.55 88.17 100.8C91.4014 101.27 91.1104 115.32 93.4285 131.56C94.7431 140.77 96.8706 143.2 97.543 151.84C98.135 159.46 97.4526 164.39 98.4562 164.6C99.2791 164.77 100.774 161.48 102.27 157.3C102.741 151.73 103.805 139.74 104.206 131.27C108.532 125.41 108.361 120.33 109.194 115.84C110.338 109.69 112.395 91.0099 108.281 85.9899L108.291 85.9999Z" fill="#CCA98F"/>
<path d="M82.4598 23.1199C82.4598 23.1199 72.1034 15.7099 66.6844 15.1499C61.2654 14.5799 51.6516 16.7699 51.6516 16.7699C47.9987 15.5399 43.1316 16.1799 43.1316 16.1799C43.1316 16.1799 28.6006 32.4098 29.293 34.9198C29.9754 37.4298 31.3904 41.5299 31.3904 41.5299L38.0739 37.6799C38.4853 37.4399 38.7061 37.0198 38.9269 36.5998C41.1146 32.2898 41.1748 32.0599 43.794 30.1399C45.4297 28.9399 49.1428 28.5699 50.1363 30.3699C51.5713 32.9599 50.2165 36.4398 44.9079 43.9398C43.0213 46.5998 42.5095 51.1599 42.5095 51.1599C42.0177 53.0499 48.9421 59.6598 48.9421 62.6898C48.9421 69.4398 38.3448 72.3399 37.833 72.4599C46.2827 79.0999 54.5718 71.4198 54.5718 71.4198C69.8856 66.6398 80.2521 54.9699 81.6068 53.0499C85.641 47.3099 80.7839 37.6799 82.4598 23.1399V23.1199Z" fill="#CCA98F"/>
<path d="M18.3645 83.7601C18.3645 83.7601 -0.120453 70.7901 7.978 44.4601C8.27906 43.4701 6.95441 42.8001 6.34225 43.6501C2.64928 48.7601 -1.43507 59.1101 0.491698 70.1201C3.33168 86.3301 14.5511 92.9301 14.5511 92.9301L18.3645 83.7601Z" fill="#CCA98F"/>
<path d="M14.5513 92.9302L18.3647 83.7602C18.3647 83.7602 17.5017 83.1602 16.2473 81.9502C14.1901 83.7602 11.621 86.1802 9.53369 88.6502C12.2834 91.5902 14.5513 92.9302 14.5513 92.9302Z" fill="#A68674"/>
<path d="M33.608 49.9399C33.608 49.9399 33.6782 47.4799 25.65 47.1799C22.6595 47.0699 20.8431 47.4999 19.7393 47.9899C18.5651 48.5099 17.3609 52.5899 20.0102 54.2199C22.1578 55.5399 22.2882 57.8699 24.6766 58.0399C27.1654 58.2099 26.784 56.9999 28.3997 55.7099C29.4835 54.8499 31.7113 56.1199 33.1865 53.3699C33.9191 52.0099 33.608 49.9399 33.608 49.9399Z" fill="#474747"/>
<path d="M30.6878 53.04C30.6878 53.04 28.2893 53.04 27.8979 55.79Z" fill="#8A8A8A"/>
<path d="M20.7531 54.7998C20.7531 54.7998 20.4822 52.6698 18.9468 52.5098Z" fill="#8A8A8A"/>
<path d="M32.6748 49.7298C32.7651 49.0198 28.8213 47.8898 26.7239 47.7198C23.4323 47.4598 21.0439 48.0498 21.0439 48.2598C21.0439 48.4798 23.4323 48.0698 27.7074 49.0498C29.2929 49.4198 30.8183 50.5798 31.7716 50.2898C32.2132 50.1498 32.6146 50.0398 32.6648 49.7298H32.6748Z" fill="#8A8A8A"/>
<path d="M65.6709 103.42C65.6709 103.42 63.995 123.25 73.3178 127.86C73.3178 127.86 67.3869 112.8 65.6709 103.42Z" fill="#E0E0E0"/>
<path d="M57.2211 36.5802C57.1408 37.8102 56.4584 38.7602 55.6957 38.7102C54.933 38.6602 54.3811 37.6202 54.4614 36.3902C54.5417 35.1602 55.2241 34.2102 55.9867 34.2602C56.7494 34.3102 57.3013 35.3502 57.2211 36.5802Z" fill="#474747"/>
<path d="M55.7461 38.6702C55.8364 38.3402 56.0371 38.1102 56.2579 37.9202C56.4787 37.7302 56.7296 37.6102 56.9905 37.5102C57.5223 37.3502 58.1044 37.3302 58.6764 37.6702C58.4456 37.9202 58.2148 38.0702 57.994 38.1902C57.7732 38.3202 57.5424 38.4102 57.3116 38.4902C56.8399 38.6302 56.3984 38.7102 55.7461 38.6702Z" fill="#474747"/>
<path d="M34.9828 36.5802C34.9025 37.8102 34.2201 38.7602 33.4574 38.7102C32.6947 38.6602 32.1428 37.6202 32.2231 36.3902C32.3034 35.1602 32.9858 34.2102 33.7484 34.2602C34.5111 34.3102 35.0631 35.3502 34.9828 36.5802Z" fill="#474747"/>
<path d="M33.4976 38.6702C33.5879 38.3402 33.7886 38.1102 34.0094 37.9202C34.2301 37.7302 34.481 37.6102 34.7419 37.5102C35.2738 37.3502 35.8558 37.3302 36.4279 37.6702C36.197 37.9202 35.9662 38.0702 35.7455 38.1902C35.5247 38.3202 35.2939 38.4102 35.0631 38.4902C34.5914 38.6302 34.1499 38.7102 33.4976 38.6702Z" fill="#474747"/>
<path d="M56.7893 29.09C57.9032 28.36 59.559 28.69 60.6529 29.44C61.7768 30.21 62.5596 31.59 62.2485 31.97C61.9675 32.31 61.0443 31.51 58.5355 30.94C57.0703 30.61 56.1471 30.6 56.0266 30.14C55.9162 29.68 56.709 29.14 56.7793 29.1L56.7893 29.09Z" fill="#F7F7F7"/>
<path d="M32.9661 30.18C33.6083 29.02 35.234 28.55 36.5587 28.71C37.9034 28.87 39.2481 29.74 39.1478 30.22C39.0575 30.65 37.8733 30.36 35.3745 31.01C33.9194 31.39 33.0965 31.81 32.7854 31.45C32.4743 31.09 32.9259 30.25 32.9661 30.18Z" fill="#F7F7F7"/>
<path d="M35.1835 45.6202C35.4444 44.3202 37.3913 43.5802 38.0436 44.0802C38.4951 44.4302 38.3547 45.3902 38.1038 45.9602C37.7224 46.8202 36.7089 47.7002 35.9362 47.3802C35.3441 47.1402 35.0631 46.2702 35.1935 45.6102L35.1835 45.6202Z" fill="#CCA98F"/>
<path d="M40.0406 42.7801C40.2212 42.0201 41.5559 41.6001 42.0075 41.8901C42.3186 42.0901 42.2182 42.6501 42.0476 42.9801C41.7867 43.4801 41.0842 43.9901 40.5524 43.8101C40.1409 43.6701 39.9503 43.1701 40.0406 42.7901V42.7801Z" fill="#CCA98F"/>
<path d="M37.8531 50.0101C38.0337 49.2501 39.3684 48.8301 39.82 49.1201C40.1311 49.3201 40.0307 49.8801 39.8601 50.2101C39.5992 50.7101 38.8967 51.2201 38.3649 51.0401C37.9534 50.9001 37.7628 50.4001 37.8531 50.0201V50.0101Z" fill="#CCA98F"/>
<path d="M68.2295 16.8399C68.2295 16.8399 68.6309 6.07989 70.5777 5.64989C72.5246 5.21989 76.0369 10.9499 76.8096 13.2499C77.5824 15.5599 76.1272 22.6299 76.1272 22.6299L68.2395 16.8399H68.2295Z" fill="#FFD6D6"/>
<path d="M51.3205 89.7599C50.5879 87.1399 39.7097 75.0699 39.7097 75.0699L37.8331 72.4399C34.0197 73.0499 29.3032 71.4099 29.2831 71.3999C22.0176 78.4299 13.3772 88.3099 13.6482 95.3399C14.1098 107.41 16.3777 113.57 13.6482 119.95C13.6482 119.95 8.61046 140.23 13.6482 150.71C16.7992 157.26 20.8334 159.18 23.4225 159.7C24.8475 159.99 25.7607 161.39 25.5299 162.82C25.3493 163.94 25.1185 165.31 24.8676 166.83C25.831 166.85 26.8144 167.05 27.8581 167.56C29.8049 168.53 31.5511 170.06 33.0764 171.79C33.7789 166.87 34.7122 161.47 35.9565 156.37C36.2476 155.17 36.0268 153.91 35.3143 152.9C33.0965 149.78 28.8415 141.79 33.1667 130.63C34.1301 131.4 34.9731 132.18 35.6153 132.93C36.7594 134.28 38.5256 135.72 40.7233 137C42.0379 144.51 44.1654 157.81 43.8442 163.68C43.8242 164.08 43.8041 164.54 43.784 165.03C46.4735 153.12 49.4941 139.4 49.464 138.17C49.4038 135.96 45.2191 115.39 45.5402 108.55C45.8613 101.71 52.0832 92.3699 51.3506 89.7499L51.3205 89.7599Z" fill="#CCA98F"/>
<path d="M24.7168 57.0402L25.7003 60.4802C25.8709 61.0502 26.0515 61.6202 26.2622 62.1702C26.3124 62.3102 26.3726 62.4402 26.4328 62.5702C26.5131 62.6802 26.5834 62.7602 26.6737 62.8602C26.8944 63.0502 27.1052 63.2402 27.346 63.4102C29.2327 64.8202 31.31 66.0202 33.4174 67.1102C35.5348 68.1802 37.7125 69.1302 39.9503 69.8902C42.1882 70.6402 44.5063 71.1802 46.8245 71.2902L46.5736 71.3402C51.4808 68.7602 56.4182 66.1902 61.1247 63.2902C62.2988 62.5702 63.483 61.8302 64.5066 60.9702C64.7876 60.7602 64.9482 60.5202 65.1689 60.2902C65.3295 60.0202 65.48 59.7402 65.5904 59.4202C65.8313 58.8002 65.9818 58.1302 66.1223 57.4702C66.6441 54.7702 66.7645 51.9902 66.8247 49.2202C67.0054 51.9902 67.0154 54.7802 66.6441 57.5602C66.5337 58.2502 66.4033 58.9502 66.1624 59.6302C66.0621 59.9702 65.8915 60.3102 65.7108 60.6402C65.48 60.9202 65.2392 61.2702 64.9582 61.4802C63.8945 62.4502 62.7304 63.2202 61.5663 64.0002C59.2281 65.5302 56.7995 66.9102 54.381 68.2802C51.9525 69.6402 49.5139 70.9802 47.0252 72.2402L46.9048 72.3002H46.7743C44.3157 72.1502 41.9373 71.5502 39.6493 70.7602C37.3612 69.9702 35.1635 68.9502 33.0661 67.7702C30.9688 66.5802 28.9216 65.3302 27.055 63.7802C26.8242 63.5902 26.6034 63.3702 26.3827 63.1502C26.2823 63.0302 26.1619 62.8702 26.0816 62.7302C26.0214 62.5802 25.9712 62.4402 25.9311 62.2902C25.7504 61.7102 25.6099 61.1302 25.4694 60.5502C25.1885 59.3902 24.9576 58.2202 24.7369 57.0402H24.7168Z" fill="#474747"/>
<path d="M63.7139 49.0199C64.2658 48.6399 64.9281 48.4499 65.5905 48.3799C66.2628 48.3099 66.9452 48.3799 67.6075 48.5799C68.2498 48.7899 68.882 49.0999 69.3838 49.5599C69.9056 49.9899 70.307 50.5399 70.578 51.1399C69.9859 50.8199 69.4841 50.4799 68.9422 50.2199C68.4104 49.9399 67.8685 49.7299 67.3165 49.5599C66.2026 49.1999 65.0385 49.0799 63.7239 49.0099L63.7139 49.0199Z" fill="#474747"/>
<path d="M26.2523 62.6802C26.1821 63.7102 26.0115 64.6102 25.7907 65.5302C25.6602 65.9802 25.5398 66.4402 25.3692 66.8902C25.1986 67.3402 25.018 67.7902 24.7269 68.2402C24.466 67.2302 24.5664 66.2402 24.7972 65.2802C24.9277 64.8102 25.0882 64.3402 25.3291 63.8902C25.5599 63.4502 25.8409 63.0202 26.2623 62.6902L26.2523 62.6802Z" fill="#474747"/>
<path d="M21.0541 104.69C21.0541 104.69 10.9586 123.62 31.3904 137.85H31.4004C31.6112 135.63 32.143 133.22 33.1466 130.64C34.11 131.41 34.9529 132.19 35.5952 132.94C36.7392 134.29 38.5054 135.73 40.7031 137.01L37.241 119.49C37.241 119.49 22.5293 117.45 21.0641 104.69H21.0541Z" fill="#A68674"/>
<path d="M59.2783 140.69C60.4023 140.39 61.5061 140.08 62.5699 139.67C63.6437 139.29 64.6974 138.84 65.7009 138.32C67.718 137.28 69.6247 136.04 71.3708 134.6L71.6819 134.35L72.0131 134.59C73.7391 135.87 75.6258 137 77.5425 138.04C78.5059 138.56 79.4893 139.03 80.5029 139.46C81.4964 139.93 82.5401 140.28 83.5837 140.66C81.386 140.33 79.2485 139.64 77.2113 138.73C75.1641 137.84 73.2273 136.72 71.4009 135.4H72.0432C70.2268 136.87 68.2197 138.14 66.0521 139.04C64.9683 139.49 63.8544 139.86 62.7304 140.16C61.5965 140.42 60.4424 140.63 59.2884 140.7L59.2783 140.69Z" fill="#474747"/>
<path d="M71.9028 38.1699C71.9028 38.1699 59.8605 43.1699 58.7767 44.9699C57.6929 46.7599 57.6929 48.5599 57.6929 48.5599C57.6929 48.5599 65.2595 40.9699 71.9028 38.1699Z" fill="#A68674"/>
</g>
<defs>
<clipPath id="clip0_306_3133">
<rect width="111" height="216" fill="white"/>
</clipPath>
</defs>
</svg>
