<svg width="54" height="54" viewBox="0 0 54 54" fill="none" xmlns="http://www.w3.org/2000/svg">
<path d="M43.875 13.5H18.5625V6.75C18.5625 5.40734 18.0291 4.11967 17.0797 3.17027C16.1303 2.22087 14.8427 1.6875 13.5 1.6875C12.1573 1.6875 10.8697 2.22087 9.92027 3.17027C8.97087 4.11967 8.4375 5.40734 8.4375 6.75V13.5H3.375C2.92745 13.5 2.49822 13.6778 2.18176 13.9943C1.86529 14.3107 1.6875 14.7399 1.6875 15.1875V43.875C1.6875 44.3226 1.86529 44.7518 2.18176 45.0682C2.49822 45.3847 2.92745 45.5625 3.375 45.5625H43.875C44.3226 45.5625 44.7518 45.3847 45.0682 45.0682C45.3847 44.7518 45.5625 44.3226 45.5625 43.875V15.1875C45.5625 14.7399 45.3847 14.3107 45.0682 13.9943C44.7518 13.6778 44.3226 13.5 43.875 13.5ZM11.8125 6.75C11.8125 6.30245 11.9903 5.87322 12.3068 5.55676C12.6232 5.24029 13.0524 5.0625 13.5 5.0625C13.9476 5.0625 14.3768 5.24029 14.6932 5.55676C15.0097 5.87322 15.1875 6.30245 15.1875 6.75V13.5H11.8125V6.75ZM42.1875 42.1875H5.0625V16.875H8.4375V21.9375C8.4375 22.3851 8.61529 22.8143 8.93176 23.1307C9.24823 23.4472 9.67745 23.625 10.125 23.625H13.5C13.9476 23.625 14.3768 23.4472 14.6932 23.1307C15.0097 22.8143 15.1875 22.3851 15.1875 21.9375C15.1875 21.4899 15.0097 21.0607 14.6932 20.7443C14.3768 20.4278 13.9476 20.25 13.5 20.25H11.8125V16.875H42.1875V42.1875Z" fill="#313D4A"/>
<path d="M50.625 20.25H48.9375V45.5625C48.9375 46.4576 48.5819 47.316 47.949 47.949C47.316 48.5819 46.4576 48.9375 45.5625 48.9375H8.4375V50.625C8.4375 51.0726 8.61529 51.5018 8.93176 51.8182C9.24823 52.1347 9.67745 52.3125 10.125 52.3125H50.625C51.0726 52.3125 51.5018 52.1347 51.8182 51.8182C52.1347 51.5018 52.3125 51.0726 52.3125 50.625V21.9375C52.3125 21.4899 52.1347 21.0607 51.8182 20.7443C51.5018 20.4278 51.0726 20.25 50.625 20.25Z" fill="#0046C6"/>
<path d="M11.8125 38.8125H35.4375C35.8851 38.8125 36.3143 38.6347 36.6307 38.3182C36.9472 38.0018 37.125 37.5726 37.125 37.125C37.125 36.6774 36.9472 36.2482 36.6307 35.9318C36.3143 35.6153 35.8851 35.4375 35.4375 35.4375H11.8125C11.3649 35.4375 10.9357 35.6153 10.6193 35.9318C10.3028 36.2482 10.125 36.6774 10.125 37.125C10.125 37.5726 10.3028 38.0018 10.6193 38.3182C10.9357 38.6347 11.3649 38.8125 11.8125 38.8125Z" fill="#0046C6"/>
<path d="M33.75 32.0625H35.4375C35.8851 32.0625 36.3143 31.8847 36.6307 31.5682C36.9472 31.2518 37.125 30.8226 37.125 30.375C37.125 29.9274 36.9472 29.4982 36.6307 29.1818C36.3143 28.8653 35.8851 28.6875 35.4375 28.6875H33.75C33.3024 28.6875 32.8732 28.8653 32.5568 29.1818C32.2403 29.4982 32.0625 29.9274 32.0625 30.375C32.0625 30.8226 32.2403 31.2518 32.5568 31.5682C32.8732 31.8847 33.3024 32.0625 33.75 32.0625Z" fill="#0046C6"/>
<path d="M11.8125 32.0625H27C27.4476 32.0625 27.8768 31.8847 28.1932 31.5682C28.5097 31.2518 28.6875 30.8226 28.6875 30.375C28.6875 29.9274 28.5097 29.4982 28.1932 29.1818C27.8768 28.8653 27.4476 28.6875 27 28.6875H11.8125C11.3649 28.6875 10.9357 28.8653 10.6193 29.1818C10.3028 29.4982 10.125 29.9274 10.125 30.375C10.125 30.8226 10.3028 31.2518 10.6193 31.5682C10.9357 31.8847 11.3649 32.0625 11.8125 32.0625Z" fill="#0046C6"/>
</svg>
