<svg width="262" height="124" viewBox="0 0 262 124" fill="none" xmlns="http://www.w3.org/2000/svg">
<g clip-path="url(#clip0_325_1657)">
<path d="M131 124C203.349 124 262 120.549 262 116.292C262 112.035 203.349 108.584 131 108.584C58.6507 108.584 0 112.035 0 116.292C0 120.549 58.6507 124 131 124Z" fill="#F5F5F5"/>
<path d="M215.624 116.619H26.2755C25.5593 115.489 25.1404 114.249 25.0053 113.003C24.9918 112.874 24.985 112.738 24.9715 112.608C24.9648 112.479 24.958 112.343 24.958 112.214C24.958 112.084 24.958 111.948 24.9648 111.819C24.9715 111.533 24.9985 111.247 25.0458 110.967C25.0594 110.859 25.0796 110.75 25.0999 110.647C25.1269 110.525 25.1539 110.396 25.181 110.28C25.2148 110.144 25.2485 110.014 25.2891 109.885C25.3634 109.633 25.4512 109.395 25.5593 109.156C25.6066 109.04 25.6674 108.918 25.7215 108.802C25.7755 108.686 25.8363 108.571 25.9039 108.455C25.9715 108.339 26.0323 108.237 26.1066 108.121C26.2417 107.903 26.3971 107.685 26.566 107.481C26.6471 107.372 26.7282 107.277 26.8228 107.175C26.8903 107.093 26.9647 107.018 27.039 106.936C27.1944 106.787 27.3498 106.637 27.5187 106.494C27.6876 106.351 27.8565 106.215 28.0389 106.092C28.1943 105.983 28.343 105.881 28.5051 105.793C28.5186 105.779 28.5321 105.772 28.5457 105.765C28.6943 105.684 28.8362 105.602 28.9983 105.52C29.0524 105.493 29.1132 105.466 29.1672 105.438C29.3429 105.357 29.5321 105.275 29.728 105.2C29.9037 105.132 30.0794 105.071 30.2618 105.016C35.4913 103.396 49.8148 104.703 51.4499 104.703C51.5377 104.703 51.6323 104.683 51.7337 104.642C52.7539 104.233 54.2943 101.85 55.3754 99.9708C55.4362 99.8687 55.497 99.7665 55.551 99.6644C56.1794 98.5681 56.6185 97.7102 56.6591 97.6285H55.0646C55.5172 96.7978 55.9024 95.9603 56.2469 95.1159C56.4361 94.6597 56.6118 94.1967 56.7672 93.7473C56.8347 93.5635 56.8956 93.3864 56.9496 93.2026C57.159 92.5625 57.3415 91.9361 57.5036 91.3505C57.5847 91.0577 57.659 90.7649 57.7266 90.4926C57.7942 90.2134 57.855 89.941 57.909 89.6823C57.9563 89.4576 58.0104 89.2329 58.0509 89.0218C58.0847 88.8652 58.1117 88.7018 58.1387 88.5588C58.1995 88.2388 58.2468 87.9596 58.2941 87.7009C58.3076 87.5851 58.3279 87.483 58.3414 87.3808C58.3617 87.2923 58.3752 87.197 58.382 87.1221C58.3955 87.0404 58.4022 86.9723 58.409 86.9042C58.4157 86.8361 58.4293 86.7748 58.436 86.7204C58.4563 86.5365 58.4698 86.4344 58.4698 86.4344H57.2672C57.2334 86.0871 57.2063 85.7398 57.1861 85.3926C57.1726 85.236 57.1658 85.0726 57.1658 84.9091C57.159 84.7798 57.1523 84.6504 57.1523 84.521C57.1388 84.1329 57.1455 83.738 57.1523 83.3431C57.1523 83.0843 57.1726 82.8188 57.1793 82.5532C57.1861 82.3285 57.1996 82.1038 57.2131 81.8791C57.2131 81.7565 57.2266 81.634 57.2334 81.5114C57.2807 80.8714 57.3415 80.2381 57.4226 79.6049C57.4428 79.3938 57.4766 79.1827 57.5036 78.9784C57.5307 78.7674 57.5644 78.5631 57.5915 78.352C57.6523 77.9435 57.7198 77.5349 57.7874 77.1332C57.855 76.7314 57.9293 76.3365 58.0036 75.9484C58.1185 75.3628 58.2401 74.7977 58.3617 74.2529C58.4022 74.0759 58.4428 73.8989 58.4833 73.7218C58.5644 73.3678 58.6455 73.0273 58.7333 72.7005C58.7401 72.6732 58.7468 72.646 58.7536 72.6188C58.8279 72.3192 58.909 72.0264 58.9765 71.7608V71.7472C59.0576 71.4544 59.1387 71.1684 59.2062 70.9029C59.4697 69.9496 59.7062 69.1938 59.8751 68.6899C59.8954 68.615 59.9157 68.5537 59.9359 68.4925C59.9765 68.3767 60.0035 68.2882 60.0238 68.2133C60.0575 68.1316 60.0711 68.0839 60.0778 68.0567C60.0778 68.0567 60.0778 68.0521 60.0778 68.0431V68.0295H58.7806L63.983 46.3017C63.983 46.3017 83.1509 40.0442 91.6843 40.5276C91.9951 40.5412 92.2991 40.5685 92.5829 40.6093C92.7248 40.6229 92.8667 40.6502 92.995 40.6706C93.2315 40.7115 93.4545 40.7591 93.6707 40.8204C93.9747 40.8953 94.2517 40.9974 94.4882 41.12C94.6436 41.1949 94.7855 41.2766 94.9139 41.3719C94.9949 41.4264 95.0693 41.4877 95.1301 41.5558C95.1976 41.6171 95.2584 41.6783 95.3125 41.7464C95.4206 41.8894 95.5152 42.0324 95.576 42.2026C95.6165 42.2844 95.6368 42.3729 95.6571 42.4614C95.7854 43.0265 95.9814 43.653 96.2314 44.3066C96.2854 44.4428 96.3395 44.579 96.4003 44.722C96.5151 45.0284 96.657 45.3484 96.8056 45.6685C96.8867 45.8591 96.9813 46.0566 97.0759 46.254C97.3394 46.8124 97.6299 47.3775 97.9407 47.9563C99.3258 50.5506 101.096 53.3014 102.63 55.562C103.204 56.4064 103.744 57.1826 104.224 57.8567C104.353 58.0337 104.467 58.1971 104.582 58.3538C104.785 58.6397 104.967 58.8917 105.143 59.1232C105.319 59.3547 105.474 59.5658 105.602 59.7496C105.663 59.8381 105.724 59.9267 105.778 59.9947C105.805 60.0356 105.832 60.0696 105.859 60.1037C105.947 60.2194 106.015 60.3216 106.075 60.3965C106.136 60.4714 106.177 60.519 106.19 60.5463C106.19 60.5463 106.204 60.5599 106.204 60.5667L103.609 60.5395C107.933 63.8555 121.622 69.8339 121.622 69.8339L120.352 70.7803C133.027 75.6965 178.788 73.858 179.396 73.8376L178.714 74.1168L176.923 74.8317H176.91C177.356 74.893 177.808 74.9543 178.247 75.0292C180.234 75.356 182.119 75.8871 183.875 76.534C184.267 76.6838 184.646 76.8268 185.017 76.9766C185.578 77.2081 186.132 77.4464 186.659 77.6983C192.909 80.5922 196.909 84.5074 196.909 84.5074H193.578C196.105 85.8488 201.037 92.8894 205.584 100.039C207.631 103.26 209.604 106.494 211.246 109.245C213.8 113.541 215.563 116.653 215.563 116.653L215.624 116.619Z" fill="#407BFF"/>
<path opacity="0.3" d="M215.624 116.619H26.2755C25.5593 115.489 25.1404 114.249 25.0053 113.003C24.9918 112.874 24.985 112.738 24.9715 112.608C24.9648 112.479 24.958 112.343 24.958 112.214C24.958 112.084 24.958 111.948 24.9648 111.819C24.9715 111.533 24.9985 111.247 25.0458 110.967C25.0594 110.859 25.0796 110.75 25.0999 110.647C25.1269 110.525 25.1539 110.396 25.181 110.28C25.2148 110.144 25.2485 110.014 25.2891 109.885C25.3634 109.633 25.4512 109.395 25.5593 109.156C25.6066 109.04 25.6674 108.918 25.7215 108.802C25.7755 108.686 25.8363 108.571 25.9039 108.455C25.9715 108.339 26.0323 108.237 26.1066 108.121C26.2417 107.903 26.3971 107.685 26.566 107.481C26.6471 107.372 26.7282 107.277 26.8228 107.175C26.8903 107.093 26.9647 107.018 27.039 106.936C27.1944 106.787 27.3498 106.637 27.5187 106.494C27.6876 106.351 27.8565 106.215 28.0389 106.092C28.1943 105.983 28.343 105.881 28.5051 105.793C28.5186 105.779 28.5321 105.772 28.5457 105.765C28.6943 105.684 28.8362 105.602 28.9983 105.52C29.0524 105.493 29.1132 105.466 29.1672 105.438C29.3429 105.357 29.5321 105.275 29.728 105.2C29.9037 105.132 30.0794 105.071 30.2618 105.016C35.4913 103.396 49.8148 104.703 51.4499 104.703C51.5377 104.703 51.6323 104.683 51.7337 104.642C52.7539 104.233 54.2943 101.85 55.3754 99.9708C55.4362 99.8687 55.497 99.7665 55.551 99.6644C56.1794 98.5681 56.6185 97.7102 56.6591 97.6285H55.0578C55.5105 96.7978 55.9024 95.9603 56.2537 95.1159C56.3753 94.7959 56.5037 94.4827 56.6185 94.1695C56.6793 94.0265 56.7266 93.8835 56.7739 93.7473C56.8415 93.5635 56.9023 93.3864 56.9564 93.2026C57.1658 92.5625 57.3482 91.9361 57.5104 91.3505C57.5915 91.0577 57.6658 90.7649 57.7333 90.4926C57.8009 90.2134 57.8617 89.941 57.9158 89.6823C57.9631 89.4576 58.0171 89.2329 58.0577 89.0218C58.0914 88.8652 58.1185 88.7018 58.1455 88.5588C58.2063 88.2388 58.2536 87.9596 58.3009 87.7009C58.3144 87.5851 58.3347 87.483 58.3482 87.3808C58.3684 87.2923 58.382 87.197 58.3887 87.1221C58.4022 87.0404 58.409 86.9723 58.4157 86.9042C58.4225 86.8361 58.436 86.7748 58.4428 86.7204C58.463 86.5365 58.4766 86.4344 58.4766 86.4344H57.2739C57.2401 86.0871 57.2131 85.7398 57.1928 85.3926C57.1793 85.236 57.1726 85.0726 57.1726 84.9091C57.1658 84.7798 57.159 84.6504 57.159 84.521C57.1455 84.1329 57.1523 83.738 57.159 83.3431C57.159 83.0843 57.1793 82.8188 57.1861 82.5532C57.1928 82.3285 57.2063 82.1038 57.2199 81.8791C57.2199 81.7565 57.2334 81.634 57.2401 81.5114C57.2874 80.8714 57.3482 80.2381 57.4293 79.6049C57.4496 79.3938 57.4834 79.1827 57.5104 78.9784C57.5374 78.7674 57.5712 78.5631 57.5982 78.352C57.659 77.9435 57.7266 77.5349 57.7942 77.1332C57.8617 76.7314 57.936 76.3365 58.0104 75.9484C58.1252 75.3628 58.2468 74.7977 58.3684 74.2529C58.409 74.0759 58.4495 73.8989 58.4901 73.7218C58.5711 73.3678 58.6522 73.0273 58.7401 72.7005C58.7468 72.6732 58.7536 72.646 58.7603 72.6188C58.8346 72.3192 58.9157 72.0264 58.9833 71.7608V71.7472C59.0644 71.4544 59.1454 71.1684 59.213 70.9029C59.4833 69.9496 59.7197 69.1938 59.8819 68.6899C59.9021 68.615 59.9224 68.5537 59.9427 68.4925C59.9832 68.3767 60.0103 68.2882 60.0305 68.2133C60.0643 68.1316 60.0778 68.0839 60.0846 68.0567C60.0846 68.0567 60.0846 68.0521 60.0846 68.0431L60.0913 68.0295H58.7873L63.9898 46.3017C63.9898 46.3017 83.1577 40.0442 91.6911 40.5276C92.0018 40.5412 92.3059 40.5685 92.5896 40.6093C92.7315 40.6229 92.8734 40.6502 93.0018 40.6706C93.2383 40.7115 93.4612 40.7591 93.6774 40.8204C93.9815 40.8953 94.2585 40.9974 94.495 41.12C94.6504 41.1949 94.7922 41.2766 94.9206 41.3719C95.0017 41.4264 95.076 41.4877 95.1368 41.5558C95.2044 41.6171 95.2652 41.6783 95.3192 41.7464C95.4273 41.8894 95.5219 42.0324 95.5827 42.2026C95.6165 42.2844 95.6368 42.3661 95.6638 42.4546C95.7922 43.0265 95.9881 43.6462 96.2449 44.3066C96.2922 44.4428 96.3462 44.579 96.4138 44.722C96.5286 45.0284 96.6705 45.3484 96.8192 45.6685C96.9002 45.8591 96.9948 46.0566 97.0894 46.254C97.3529 46.8124 97.6434 47.3775 97.9542 47.9563C99.3393 50.5506 101.109 53.3014 102.643 55.562C103.217 56.4064 103.758 57.1826 104.238 57.8567C104.366 58.0337 104.481 58.1971 104.596 58.3538C104.798 58.6397 104.988 58.8917 105.157 59.1232C105.325 59.3547 105.488 59.5658 105.616 59.7496C105.677 59.8381 105.738 59.9267 105.792 59.9947C105.819 60.0356 105.846 60.0696 105.873 60.1037C105.961 60.2194 106.035 60.3216 106.089 60.3965C106.15 60.4714 106.19 60.519 106.204 60.5463C106.204 60.5463 106.217 60.5599 106.217 60.5667L103.623 60.5395C107.947 63.8555 121.635 69.8339 121.635 69.8339L120.365 70.7803C133.04 75.6965 178.801 73.858 179.41 73.8376L178.727 74.1168L176.923 74.8317H176.937C177.383 74.8862 177.829 74.9475 178.268 75.0292C180.254 75.356 182.139 75.8871 183.896 76.534C184.288 76.677 184.666 76.82 185.038 76.9766C185.598 77.2081 186.152 77.4464 186.679 77.6983C192.929 80.5922 196.929 84.5074 196.929 84.5074H193.598C196.125 85.8488 201.057 92.8894 205.604 100.039C207.651 103.26 209.624 106.494 211.266 109.245C213.82 113.541 215.583 116.653 215.583 116.653L215.624 116.619Z" fill="white"/>
<path opacity="0.6" d="M92.0826 53.0632V60.8051H90.2246C90.2246 60.8051 87.8936 71.5226 88.6909 75.1791C88.6909 75.1791 87.6707 74.7297 86.9477 72.0605C86.9477 72.0605 82.4007 83.561 78.8265 86.6456L78.6103 84.5892C78.6103 84.5892 73.4011 100.23 85.968 116.626H79.8197C76.5429 114.011 72.8809 109.579 69.6581 102.054C61.395 82.744 63.3611 75.1859 63.3611 75.1859L61.5166 76.1732L64.2462 65.197H62.2936C62.2936 65.197 62.449 54.1459 68.0838 51.1907C73.7254 48.2424 92.0826 53.0768 92.0826 53.0768V53.0632Z" fill="white"/>
<path opacity="0.1" d="M102.664 58.1088C101.657 59.6409 100.623 60.4239 100.623 60.4239L99.8328 59.4298C99.4206 62.3032 96.5762 66.5793 96.5762 66.5793L95.7181 65.6601L95.1506 67.4985C89.009 67.6824 76.2394 63.0999 76.2394 63.0999L76.3543 64.5638C65.1319 58.9395 63.5576 48.1948 63.5576 48.1948C63.5576 48.1948 86.3132 47.6501 97.9815 47.9225C99.3666 51.3951 101.137 55.0788 102.677 58.1088H102.664Z" fill="black"/>
<path opacity="0.1" d="M120.257 116.619H26.2753C23.6066 112.411 25.0389 106.617 30.2616 105.003C35.4911 103.382 49.8147 104.69 51.4497 104.69C53.0848 104.69 56.6589 97.6151 56.6589 97.6151H55.0576C57.9088 92.4129 58.4696 86.4141 58.4696 86.4141H57.267C57.0981 84.8344 57.1048 83.1526 57.2264 81.4844C57.5778 83.1186 57.9291 84.2012 57.9291 84.2012L58.5102 82.2606C58.4291 85.2498 60.6519 91.5278 60.6519 91.5278L61.4357 89.1378C62.8816 98.5479 69.6515 102.055 69.6515 102.055L69.7934 100.346C72.3878 102.286 78.0159 103.267 78.0159 103.267C77.8808 99.1607 79.9618 94.3671 79.9618 94.3671H78.7118C81.3198 86.598 86.4209 83.4318 86.4209 83.4318C86.4209 83.4318 115.98 88.3411 119.716 98.9496C122.101 105.711 121.216 112.554 120.257 116.626V116.619Z" fill="black"/>
<path opacity="0.1" d="M170.221 92.8079C170.221 92.8079 161.032 92.304 155.417 92.8079C149.803 93.3117 140.405 98.9905 140.614 103.777C140.824 108.557 152.073 111.846 152.073 111.846C152.073 111.846 138.459 108.762 134.459 109.034C130.459 109.306 129.25 116.619 129.25 116.619H124.987C124.987 116.619 123.345 108.421 126.628 105.65C129.919 102.878 137.378 105.65 137.378 105.65C137.378 105.65 136.141 95.4089 143.709 90.772L143.628 92.8079C143.628 92.8079 148.398 88.5318 158.559 88.6816C158.559 88.6816 156.343 90.3226 156.776 90.1728C157.208 90.023 160.769 89.308 170.221 92.8011V92.8079Z" fill="black"/>
<path opacity="0.1" d="M211.3 109.211C210.847 111.989 208.921 114.569 206.138 116.619H178.511C171.139 111.41 170.876 105.527 170.876 105.527L173.112 106.535C171.498 100.822 172.68 92.8076 172.68 92.8076C176.308 96.6071 191.415 99.9435 191.882 100.046C191.456 99.7324 180.882 91.9497 188.706 96.4505C189.409 96.859 190.132 97.2199 190.861 97.5467C196.726 100.127 203.111 100.127 205.644 100.005C207.692 103.225 209.665 106.46 211.306 109.211H211.3Z" fill="black"/>
<path d="M79.0977 18.9018C79.0977 18.9018 84.3879 4.08531 93.1645 0.0134843C94.6712 -0.681041 98.8331 20.2092 91.8943 29.3197C91.374 30.0006 79.0977 18.9018 79.0977 18.9018Z" fill="#407BFF"/>
<path opacity="0.3" d="M95.644 17.5944C95.5021 19.4056 95.2319 21.1964 94.7927 22.8987C94.1846 25.3159 93.2523 27.5356 91.8875 29.3196C91.374 30.0005 79.0908 18.9017 79.0908 18.9017C79.0908 18.9017 84.3811 4.07838 93.1577 0.0133637C94.1576 -0.449653 96.367 8.7494 95.6373 17.5876L95.644 17.5944Z" fill="white"/>
<path opacity="0.6" d="M93.0362 1.76318C93.0362 1.76318 86.8067 13.7608 91.7997 20.277C96.6981 26.6708 96.313 6.28441 93.0362 1.76318Z" fill="white"/>
<path opacity="0.1" d="M95.6433 17.5945C95.5014 19.4057 95.2312 21.1965 94.792 22.8987C91.7111 22.1565 87.7991 20.2159 84.0088 16.4846C84.0088 16.4846 88.8666 14.5848 95.6433 17.5945Z" fill="black"/>
<path d="M112.879 36.5849C111.825 34.4809 103.893 33.1667 103.893 33.1667C103.893 33.1667 103.751 28.3595 101.684 25.3159C99.5962 22.2382 90.7386 16.825 85.4213 16.5185C80.0973 16.2121 68.8005 17.9825 68.8005 17.9825L60.9428 34.3719C60.9428 34.3719 60.9361 34.4673 60.9226 34.6443C60.9226 34.6443 59.5848 38.6072 59.6861 42.1275L60.2807 41.5623C60.2807 41.5623 59.8348 46.3763 61.5982 49.5221L62.213 48.8344C62.213 48.8344 63.6049 51.0201 65.3683 52.3819C67.483 54.3225 70.7937 56.0861 76.5434 56.7465C83.2728 57.516 91.4818 59.8719 96.468 59.6881C107.663 59.2795 108.244 48.0309 108.244 48.0309C114.258 48.351 113.933 38.6753 112.893 36.5849H112.879Z" fill="#407BFF"/>
<path opacity="0.3" d="M108.238 48.031C108.238 48.031 107.657 59.2796 96.4612 59.6881C91.475 59.8719 83.2727 57.516 76.5433 56.7466C70.7868 56.0861 67.4762 54.3225 65.3614 52.3888C63.6048 51.0201 62.2062 48.8344 62.2062 48.8344L61.5981 49.529C59.8347 46.3764 60.2739 41.5623 60.2739 41.5623L59.6793 42.1275C59.578 38.614 60.9157 34.6443 60.9157 34.6443C60.9292 34.4673 60.9428 34.372 60.9428 34.372L68.8005 17.9825C68.8005 17.9825 69.0099 17.9485 69.3815 17.894C69.949 17.8123 70.9287 17.6693 72.1314 17.5127C75.8812 17.0088 81.9417 16.3211 85.4212 16.5186C90.7385 16.825 99.5894 22.2382 101.684 25.3227C103.143 27.4676 103.643 30.4976 103.812 32.0909C103.88 32.7514 103.893 33.1668 103.893 33.1668C103.893 33.1668 111.832 34.4877 112.886 36.5849C113.927 38.6753 114.251 48.351 108.238 48.031Z" fill="white"/>
<path opacity="0.6" d="M111.427 46.9076C110.65 47.6566 109.609 48.106 108.237 48.0311C108.237 48.0311 107.852 55.487 101.664 58.4762C100.251 59.1639 98.5421 59.6133 96.4611 59.6882C91.4748 59.8721 83.2726 57.5161 76.5432 56.7467C70.7867 56.0862 67.4761 54.3227 65.3613 52.3889C65.6789 50.8705 66.341 48.2694 67.4288 46.5944L65.7667 46.6625C65.7667 46.6625 64.9897 43.1967 73.138 41.4808C81.3673 39.7376 87.5156 35.945 89.4344 33.9363C91.3667 31.914 90.4141 24.4172 89.2587 23.1508C88.0966 21.8843 85.7049 21.1421 86.2994 20.3318C86.9075 19.5147 90.5425 21.8298 91.8532 24.2742C93.1437 26.6983 95.7246 32.3566 96.7043 33.0171C96.7043 33.0171 101.157 32.8877 103.893 33.1669C103.893 33.1669 111.832 34.4879 112.886 36.585C113.69 38.1988 114.068 44.3338 111.427 46.9076Z" fill="white"/>
<path d="M83.8402 31.8868C83.57 33.378 82.4011 34.3925 81.2187 34.1542C80.0431 33.9159 79.2932 32.5132 79.5567 31.022C79.8134 29.5241 80.989 28.4891 82.1781 28.7342C83.3673 28.9725 84.1105 30.3888 83.8402 31.8936V31.8868Z" fill="#263238"/>
<path d="M101.313 29.2991C101.664 30.7835 101.096 32.2066 100.049 32.4722C99.0018 32.7377 97.8532 31.7572 97.4951 30.2728C97.1303 28.7816 97.6911 27.3517 98.7518 27.0794C99.8126 26.807 100.961 27.8079 101.319 29.2991H101.313Z" fill="#263238"/>
<path d="M112.211 36.4761C109.954 34.7534 105.259 35.4138 103.725 37.8855C102.455 39.9351 109.285 42.6723 109.285 42.6723C109.285 42.6723 113.826 37.7085 112.211 36.4761Z" fill="#263238"/>
<path opacity="0.1" d="M111.427 46.9077C110.65 47.6567 109.609 48.1061 108.238 48.0312C108.238 48.0312 107.852 55.4871 101.664 58.4763C93.9883 57.666 89.9209 51.0068 89.9209 51.0068C98.211 52.5047 108.251 46.9009 108.251 46.9009C109.947 47.8133 111.42 46.9009 111.42 46.9009L111.427 46.9077Z" fill="black"/>
<path d="M108.251 46.9009C108.251 46.9009 109.096 47.5546 109.947 47.3979" stroke="#263238" stroke-width="0.69" stroke-linecap="round" stroke-linejoin="round"/>
<path d="M106.481 48.0381C106.481 48.0381 106.386 55.3034 99.8798 55.3102C96.1368 55.3102 91.8262 51.5924 91.8262 51.5924C91.8262 51.5924 99.0961 51.109 106.481 48.0381Z" fill="#263238"/>
<path d="M95.1641 51.5852C95.1641 51.5852 97.6099 55.5481 100.468 58.4011C103.299 61.2269 106.697 56.9167 103.089 49.4268C103.089 49.4268 99.3868 50.775 95.1641 51.5852Z" fill="#407BFF"/>
<path d="M108.872 40.2549C108.872 40.2549 110.129 44.9259 108.258 46.9005C106.393 48.8615 93.9272 52.6746 90.3395 51.1698C89.3396 50.7477 87.441 50.2234 86.4141 48.1057" stroke="#263238" stroke-width="0.69" stroke-linecap="round" stroke-linejoin="round"/>
<path d="M99.7246 50.4893C99.7246 50.4893 101.029 52.1098 101.63 54.2479" stroke="#263238" stroke-width="0.69" stroke-linecap="round" stroke-linejoin="round"/>
<path opacity="0.1" d="M72.1317 17.5127C72.0912 18.8813 71.4223 19.9095 71.4223 19.9095L69.3818 17.894C69.9561 17.8123 70.9291 17.6693 72.1317 17.5127Z" fill="black"/>
<path d="M71.422 19.9095C71.422 19.9095 67.8006 5.61048 58.9632 0.585387C55.2269 -1.53904 55.3756 31.6552 63.4427 38.2532C71.3545 44.7286 71.422 19.9095 71.422 19.9095Z" fill="#407BFF"/>
<path opacity="0.3" d="M71.422 19.9095C71.422 19.9095 67.8006 5.61048 58.9632 0.585387C55.2269 -1.53904 55.3756 31.6552 63.4427 38.2532C71.3545 44.7286 71.422 19.9095 71.422 19.9095Z" fill="white"/>
<path opacity="0.6" d="M59.2063 2.21299C59.4766 1.13035 65.9695 14.2378 66.8613 21.8844C67.7329 29.3403 62.321 34.2837 62.321 34.2837C62.321 34.2837 54.2336 21.9661 59.2063 2.21299Z" fill="white"/>
<path opacity="0.2" d="M103.386 44.6334C103.386 44.8241 103.231 44.9807 103.042 44.9807C102.853 44.9807 102.697 44.8241 102.697 44.6334C102.697 44.4427 102.853 44.2861 103.042 44.2861C103.231 44.2861 103.386 44.4427 103.386 44.6334Z" fill="black"/>
<path opacity="0.2" d="M111.697 46.077C111.603 46.2404 111.474 46.3494 111.413 46.3085C111.353 46.2745 111.38 46.1111 111.474 45.9476C111.569 45.7842 111.697 45.6753 111.758 45.7161C111.819 45.7502 111.792 45.9136 111.697 46.077Z" fill="black"/>
<path opacity="0.2" d="M113.129 42.8494C113.109 43.04 113.028 43.183 112.96 43.1762C112.893 43.1694 112.852 43.006 112.872 42.8153C112.893 42.6247 112.974 42.4817 113.041 42.4885C113.109 42.4953 113.149 42.6587 113.129 42.8494Z" fill="black"/>
<path opacity="0.2" d="M111.454 43.9661C111.434 44.1567 111.353 44.2997 111.285 44.2929C111.218 44.2861 111.177 44.1227 111.198 43.932C111.218 43.7414 111.299 43.5984 111.367 43.6052C111.434 43.612 111.475 43.7754 111.454 43.9661Z" fill="black"/>
<path opacity="0.2" d="M101.55 46.901C101.55 47.0916 101.394 47.2482 101.205 47.2482C101.016 47.2482 100.86 47.0916 100.86 46.901C100.86 46.7103 101.016 46.5537 101.205 46.5537C101.394 46.5537 101.55 46.7103 101.55 46.901Z" fill="black"/>
<path opacity="0.2" d="M100.083 43.9459C100.083 44.1366 99.9273 44.2932 99.7381 44.2932C99.5489 44.2932 99.3936 44.1366 99.3936 43.9459C99.3936 43.7552 99.5489 43.5986 99.7381 43.5986C99.9273 43.5986 100.083 43.7552 100.083 43.9459Z" fill="black"/>
<path opacity="0.2" d="M97.8739 46.7849C98.0642 46.7849 98.2184 46.6294 98.2184 46.4376C98.2184 46.2458 98.0642 46.0903 97.8739 46.0903C97.6836 46.0903 97.5293 46.2458 97.5293 46.4376C97.5293 46.6294 97.6836 46.7849 97.8739 46.7849Z" fill="black"/>
<path opacity="0.2" d="M96.07 48.0377C96.07 48.2283 95.9146 48.385 95.7254 48.385C95.5363 48.385 95.3809 48.2283 95.3809 48.0377C95.3809 47.847 95.5363 47.6904 95.7254 47.6904C95.9146 47.6904 96.07 47.847 96.07 48.0377Z" fill="black"/>
<path opacity="0.2" d="M92.536 46.9074C92.7263 46.9074 92.8806 46.7519 92.8806 46.5601C92.8806 46.3684 92.7263 46.2129 92.536 46.2129C92.3457 46.2129 92.1914 46.3684 92.1914 46.5601C92.1914 46.7519 92.3457 46.9074 92.536 46.9074Z" fill="black"/>
<path opacity="0.2" d="M95.7253 44.6334C95.7253 44.8241 95.5699 44.9807 95.3807 44.9807C95.1915 44.9807 95.0361 44.8241 95.0361 44.6334C95.0361 44.4427 95.1915 44.2861 95.3807 44.2861C95.5699 44.2861 95.7253 44.4427 95.7253 44.6334Z" fill="black"/>
<path opacity="0.1" d="M103.893 33.1668C103.893 33.1668 95.5219 32.5948 91.8262 33.8341C91.8262 33.8341 95.1638 31.0968 103.812 32.091C103.88 32.7514 103.893 33.1668 103.893 33.1668Z" fill="black"/>
<path d="M87.6368 80.4969C87.6368 80.4969 81.6979 88.1162 81.1439 93.4069H82.4884C82.4884 93.4069 80.448 98.5477 81.0763 104.826C81.0763 104.826 76.3536 105.044 69.9553 104.676C59.1383 104.049 55.5979 108.319 59.0031 116.619H109.163C109.163 116.619 113.48 112.663 113.399 110.048L113.764 113.487C113.764 113.487 120 106.535 119.885 100.481C119.77 94.4282 109.73 64.7543 87.6436 80.4901L87.6368 80.4969Z" fill="#407BFF"/>
<path opacity="0.3" d="M119.885 100.488C120 106.542 113.764 113.494 113.764 113.494L113.399 110.055C113.487 112.67 109.163 116.626 109.163 116.626H59.0032C55.6048 108.319 59.1384 104.056 69.9554 104.683C76.3537 105.05 81.0764 104.833 81.0764 104.833C80.4548 98.5546 82.4953 93.4137 82.4953 93.4137H81.1508C81.7115 88.1231 87.6504 80.5037 87.6504 80.5037C109.737 64.768 119.777 94.4419 119.892 100.495L119.885 100.488Z" fill="white"/>
<path opacity="0.1" d="M81.0762 104.826C87.4948 104.642 91.5621 107.107 92.0486 109.572C92.0486 109.572 90.8527 105.663 89.6365 104.819H91.5419C91.5419 104.819 89.3055 102.742 85.3868 102.756C82.468 102.77 81.0762 104.826 81.0762 104.826Z" fill="black"/>
<path opacity="0.1" d="M64.1383 116.619H62.4898C62.4898 116.619 59.571 111.499 62.1654 108.652C62.1519 108.952 61.9087 114.072 64.1383 116.619Z" fill="black"/>
<path opacity="0.1" d="M70.1102 116.619H67.7928C67.6577 116.347 65.428 111.921 67.4212 109.565C67.4212 109.565 67.4617 114.141 70.1102 116.619Z" fill="black"/>
<path opacity="0.1" d="M77.0497 116.619H74.8877C74.8877 116.619 76.5025 114.985 75.7728 113.793C75.7728 113.793 77.8335 114.148 77.0497 116.619Z" fill="black"/>
<path opacity="0.1" d="M205.421 101.666C205.732 101.653 206.043 101.618 206.354 101.578C205.942 101.7 205.503 101.727 205.057 101.687C205.178 101.687 205.3 101.673 205.421 101.673V101.666Z" fill="black"/>
<path d="M231.927 108.359L229.583 106.752C229.583 106.752 232.137 114.14 224.806 116.619H183.112C182.572 116.36 176.14 113.119 175.045 106.065C175.045 106.065 175.809 107.066 177.978 107.318C177.978 107.318 172.667 99.9774 175.14 90.2881C175.14 90.2881 181.227 95.5992 188.49 97.5874L187.599 94.4008C187.599 94.4008 188.511 95.2042 190.051 96.2733C190.193 96.3754 190.342 96.4775 190.49 96.5729C191.173 97.0359 191.957 97.5397 192.828 98.0436C192.99 98.1458 193.159 98.2411 193.335 98.3296C193.436 98.3841 193.544 98.4453 193.652 98.5066C193.815 98.5951 193.983 98.6905 194.152 98.7722C194.436 98.922 194.727 99.0718 195.024 99.208C195.26 99.3237 195.49 99.4327 195.727 99.5416C195.902 99.6233 196.091 99.7118 196.274 99.7867C196.625 99.9365 196.977 100.086 197.348 100.229C197.558 100.311 197.774 100.386 197.99 100.461C198.172 100.529 198.355 100.59 198.537 100.645C198.578 100.658 198.618 100.672 198.659 100.692C198.814 100.74 198.976 100.794 199.132 100.842C199.145 100.842 199.159 100.842 199.172 100.856C199.929 101.08 200.713 101.278 201.503 101.414C201.665 101.441 201.828 101.469 201.99 101.496C202.064 101.509 202.145 101.523 202.219 101.53C202.368 101.55 202.524 101.571 202.672 101.584C202.78 101.598 202.888 101.612 202.996 101.618C203.192 101.639 203.382 101.652 203.571 101.666C204.064 101.7 204.557 101.707 205.057 101.68C205.179 101.68 205.3 101.666 205.422 101.666C205.733 101.652 206.044 101.618 206.354 101.578L203.53 96.7771C205.436 94.5438 208.489 92.2968 213.178 91.7861L212.354 94.5778C212.354 94.5778 220.874 92.5827 226.88 97.7032C232.894 102.824 231.927 108.359 231.927 108.359Z" fill="#407BFF"/>
<path opacity="0.3" d="M231.927 108.359L229.583 106.752C229.583 106.752 232.137 114.14 224.806 116.619H183.112C182.572 116.36 176.14 113.119 175.045 106.065C175.045 106.065 175.809 107.066 177.978 107.318C177.978 107.318 172.667 99.9774 175.14 90.2881C175.14 90.2881 181.227 95.5992 188.49 97.5874L187.599 94.4008C187.599 94.4008 188.511 95.2042 190.051 96.2733C190.193 96.3686 190.335 96.4707 190.49 96.5729C191.173 97.0359 191.957 97.5397 192.828 98.0436C192.99 98.1389 193.159 98.2343 193.335 98.3296C193.436 98.3841 193.544 98.4453 193.652 98.5066C193.815 98.5951 193.983 98.6837 194.152 98.7722C194.436 98.922 194.727 99.0718 195.024 99.208C195.26 99.3237 195.49 99.4327 195.727 99.5416C195.902 99.6233 196.091 99.705 196.274 99.7867C196.625 99.9365 196.983 100.086 197.348 100.229C197.558 100.311 197.774 100.386 197.99 100.461C198.172 100.529 198.355 100.59 198.537 100.645C198.578 100.658 198.618 100.672 198.659 100.692C198.814 100.74 198.976 100.788 199.132 100.842C199.145 100.842 199.159 100.842 199.172 100.856C199.929 101.08 200.713 101.278 201.503 101.414C201.665 101.441 201.828 101.469 201.99 101.496C202.064 101.509 202.145 101.523 202.219 101.53C202.368 101.55 202.524 101.578 202.672 101.584C202.78 101.598 202.888 101.612 202.996 101.618C203.186 101.639 203.382 101.652 203.571 101.666C204.064 101.7 204.557 101.707 205.057 101.68C205.179 101.68 205.3 101.666 205.422 101.666C205.733 101.652 206.044 101.618 206.354 101.578L203.53 96.7771C205.436 94.5438 208.489 92.2968 213.178 91.7861L212.354 94.5778C212.354 94.5778 220.874 92.5827 226.88 97.7032C232.894 102.824 231.927 108.359 231.927 108.359Z" fill="white"/>
<path opacity="0.1" d="M211.983 98.3704C210.152 101.189 206.354 101.571 206.354 101.571L203.53 96.7702C208.152 94.9658 210.956 97.1243 210.956 97.1243C211.57 96.566 211.699 95.6672 211.699 95.6672C211.699 95.6672 213.807 95.5514 211.989 98.3704H211.983Z" fill="black"/>
<path opacity="0.6" d="M204.936 111.063C204.936 111.063 203.213 113.827 193.024 112.704C193.024 112.704 194.497 113.936 196.909 114.501C196.909 114.501 195.787 115.795 192.896 116.619H183.119C182.579 116.36 176.147 113.119 175.052 106.065C175.052 106.065 175.816 107.066 177.984 107.318C177.984 107.318 172.674 99.9774 175.147 90.2881C175.147 90.2881 181.234 95.5992 188.497 97.5874L187.605 94.4008C187.605 94.4008 192.774 98.9424 199.172 100.856C199.943 101.741 201.037 102.694 202.557 103.457C202.557 103.457 198.105 103.688 195.869 102.653C195.869 102.653 196.814 108.414 204.936 111.063Z" fill="white"/>
<path d="M153.107 43.081C153.107 43.081 162.89 48.93 163.127 52.818C163.127 52.818 197.652 72.3941 186.436 116.619H135.527C135.527 116.619 128.602 100.706 133.48 90.5266L133.04 90.6084C134.669 88.1094 136.007 88.4907 136.007 88.4907C136.007 88.4907 137.581 69.6636 136.966 64.2164C136.344 58.7691 133.486 46.8873 133.486 46.8873L153.121 43.0742L153.107 43.081Z" fill="#263238"/>
<path opacity="0.2" d="M188.673 99.8687C188.673 100.284 188.659 100.699 188.652 101.128C188.591 103.573 188.382 106.119 187.997 108.768C187.943 109.136 187.889 109.497 187.835 109.871C187.49 112.057 187.024 114.311 186.436 116.626H135.527C135.527 116.626 134.892 115.169 134.148 112.86C133.432 110.647 132.608 107.645 132.142 104.39C131.466 99.8006 131.493 94.687 133.486 90.5335L133.047 90.6152C134.108 89.0014 135.033 88.5861 135.56 88.4976C135.851 88.4499 136.013 88.4976 136.013 88.4976C136.013 88.4976 136.101 87.4694 136.223 85.8216C136.628 80.4288 137.445 68.3972 136.973 64.2232C136.81 62.8001 136.493 60.9208 136.108 58.9326C135.047 53.3559 133.493 46.8941 133.493 46.8941L153.127 43.0811C153.127 43.0811 153.938 43.5645 155.093 44.3475C157.742 46.1383 162.221 49.4816 163.018 52.1644C163.093 52.3891 163.133 52.6069 163.14 52.818C163.14 52.818 163.491 53.0155 164.106 53.4172C165.079 54.0505 166.721 55.1944 168.701 56.849C169.248 57.3188 169.829 57.8159 170.424 58.3606C171.971 59.7701 173.646 61.4519 175.349 63.4198C175.896 64.0598 176.45 64.7339 177.004 65.4352C177.004 65.4352 177.004 65.4352 177.018 65.4352C178.423 67.226 179.808 69.2143 181.112 71.4C181.639 72.292 182.146 73.2044 182.639 74.1577C183.876 76.5408 184.99 79.1283 185.923 81.9336C186.146 82.6009 186.355 83.275 186.544 83.9559C187.173 86.128 187.686 88.4227 188.051 90.8399C188.139 91.405 188.213 91.9702 188.281 92.5421C188.564 94.8777 188.713 97.3085 188.693 99.8619L188.673 99.8687Z" fill="white"/>
<path opacity="0.2" d="M143.222 50.8435C143.222 50.8435 139.648 53.8599 139.351 55.7664L138.533 55.3102C138.533 55.3102 138.79 60.6758 138.324 63.6854L137.77 62.1942C137.77 62.1942 137.831 65.4966 137.195 68.8535C137.162 67.0491 137.087 65.4285 136.952 64.2233C136.331 58.776 133.473 46.8942 133.473 46.8942L135.817 46.438C139.979 48.6305 143.222 50.8435 143.222 50.8435Z" fill="white"/>
<path opacity="0.2" d="M155.073 44.3476C154.296 46.792 152.168 52.1167 147.857 54.0573V53.356C147.857 53.356 144.533 54.6633 141.567 57.0669L141.871 55.3102C141.871 55.3102 138.702 56.4405 136.087 58.9394C135.027 53.3628 133.473 46.901 133.473 46.901L153.107 43.0879C153.107 43.0879 153.918 43.5713 155.073 44.3544V44.3476Z" fill="black"/>
<path opacity="0.2" d="M136 88.4977H135.547C135.837 88.4501 136 88.4977 136 88.4977Z" fill="black"/>
<path opacity="0.2" d="M146.635 97.5267C146.635 97.5267 142.04 90.0026 135.993 88.4978C135.993 88.4978 136.081 87.4697 136.203 85.8219C137.507 85.6448 138.527 85.7946 138.527 85.7946L140.108 79.8503C141.763 78.8698 144.27 73.8583 144.27 73.8583V75.3018C146.351 73.6813 145.459 67.9004 145.459 67.9004C146.783 69.8478 145.939 75.3018 145.939 75.3018L145.459 73.8719C145.459 73.8719 145.621 76.0236 143.223 77.8757C140.824 79.7346 141.317 84.5962 141.317 84.5962C144.621 88.5114 146.635 97.5335 146.635 97.5335V97.5267Z" fill="black"/>
<g opacity="0.4">
<path d="M138.323 68.8533C138.938 69.0576 139.512 68.9282 140.026 68.649C140.546 68.3698 141.033 68.0022 141.546 67.6481C142.066 67.3008 142.607 66.9536 143.215 66.722C143.816 66.4905 144.478 66.3748 145.107 66.4974C143.857 66.7221 142.891 67.4098 141.87 68.1179C141.357 68.4584 140.83 68.8329 140.208 69.0576C140.053 69.112 139.897 69.1665 139.729 69.1869C139.566 69.221 139.398 69.2278 139.229 69.2142C139.06 69.2142 138.898 69.1393 138.749 69.0984C138.6 69.0371 138.465 68.935 138.337 68.8533H138.323Z" fill="black"/>
<path d="M139.168 64.6181C139.769 64.4683 140.168 64.0394 140.573 63.6172C140.972 63.1814 141.364 62.7184 141.789 62.2826C142.229 61.8537 142.702 61.4315 143.269 61.1455C143.83 60.8527 144.506 60.7234 145.1 60.9004C144.485 60.9685 143.958 61.2068 143.492 61.5336C143.026 61.8673 142.6 62.269 142.188 62.6912C141.762 63.1065 141.35 63.5559 140.871 63.944C140.404 64.3254 139.796 64.7203 139.168 64.625V64.6181Z" fill="black"/>
<path d="M144.276 69.4663C143.499 70.4195 142.702 71.3252 141.797 72.1491C141.337 72.5576 140.857 72.9457 140.317 73.2657C139.79 73.5721 139.155 73.8513 138.533 73.7424C139.135 73.6062 139.601 73.2521 140.074 72.8912C140.533 72.5236 140.979 72.1218 141.418 71.7201C141.871 71.3252 142.31 70.9098 142.783 70.5285C143.249 70.1404 143.736 69.7591 144.276 69.4595V69.4663Z" fill="black"/>
<path d="M137.77 91.2485C136.884 91.8205 136.439 92.801 135.986 93.7134C135.553 94.6463 135.189 95.62 134.871 96.6005C134.547 97.581 134.263 98.5819 134.013 99.5896C133.776 100.597 133.567 101.619 133.472 102.667C133.344 101.619 133.418 100.55 133.581 99.5011C133.743 98.4525 134.006 97.4244 134.331 96.4234C134.668 95.4225 135.067 94.4352 135.594 93.5092C135.722 93.2776 135.871 93.0529 136.013 92.8282C136.168 92.6104 136.33 92.3993 136.493 92.1882C136.864 91.8069 137.249 91.3983 137.763 91.2485H137.77Z" fill="black"/>
<path d="M135.999 108.591C136.121 107.454 136.33 106.324 136.614 105.214C136.898 104.104 137.256 103.015 137.688 101.946C138.141 100.89 138.661 99.8484 139.364 98.9224C140.046 98.01 140.985 97.1384 142.134 96.9546C141.053 97.3563 140.33 98.2619 139.722 99.1743C139.12 100.114 138.641 101.129 138.208 102.164C137.769 103.199 137.398 104.268 137.033 105.337C136.675 106.412 136.33 107.495 135.992 108.584L135.999 108.591Z" fill="black"/>
<path d="M140.175 112.793C140.506 111.063 141.215 109.415 142.188 107.938C142.688 107.209 143.256 106.515 143.931 105.929C144.607 105.35 145.391 104.894 146.222 104.635C145.479 105.098 144.83 105.65 144.235 106.256C143.654 106.875 143.134 107.55 142.661 108.258C142.181 108.959 141.756 109.708 141.344 110.464C140.945 111.226 140.546 111.996 140.175 112.793Z" fill="black"/>
<path d="M153.43 46.438C157.268 50.5711 160.694 55.0923 163.775 59.8382C165.302 62.2214 166.734 64.6727 168.045 67.192C169.328 69.725 170.538 72.3057 171.511 74.9816C173.524 80.3199 174.598 85.9919 174.956 91.6638C175.152 94.5032 175.112 97.3494 174.943 100.182C174.733 103.008 174.429 105.834 173.808 108.598C174.173 105.793 174.369 102.981 174.389 100.162C174.423 97.3494 174.342 94.5305 174.071 91.7387C173.781 88.947 173.436 86.1621 172.801 83.4317C172.673 82.744 172.49 82.0699 172.315 81.389C172.132 80.7149 171.997 80.0271 171.774 79.3599C171.355 78.0253 170.963 76.6839 170.436 75.3834C168.518 70.1267 165.883 65.1425 163.018 60.3149C160.086 55.5281 156.917 50.8639 153.417 46.4448L153.43 46.438Z" fill="black"/>
<path d="M155.073 52.0078C153.938 52.5457 152.958 53.2334 152.174 54.0914C151.391 54.9493 150.762 55.9503 150.249 57.0261C149.715 58.0883 149.283 59.2254 148.816 60.3625C148.357 61.4997 147.904 62.6776 147.235 63.7535C147.458 62.5142 147.668 61.3022 147.979 60.0902C148.276 58.8782 148.674 57.673 149.235 56.5154C149.81 55.3783 150.56 54.2684 151.58 53.4445C152.58 52.607 153.83 52.0827 155.08 52.0078H155.073Z" fill="black"/>
<path d="M157.424 56.4134C156.674 56.5973 156.072 57.033 155.525 57.5233C154.978 58.0135 154.498 58.5787 154.039 59.1643C153.133 60.3354 152.329 61.5951 151.593 62.8956C150.843 64.1894 150.167 65.5308 149.532 66.8926C148.904 68.2612 148.316 69.6502 147.775 71.0938C147.856 69.5481 148.221 68.0229 148.715 66.5589C149.201 65.0882 149.856 63.6787 150.62 62.3237C151.404 60.9891 152.289 59.6954 153.39 58.5719C153.937 58.0067 154.539 57.4961 155.207 57.0739C155.876 56.6722 156.653 56.3385 157.437 56.4134H157.424Z" fill="black"/>
<path d="M161.309 62.1533C160.694 62.2895 160.208 62.698 159.742 63.0998C159.275 63.5015 158.857 63.9577 158.451 64.4207C157.634 65.3468 156.897 66.3477 156.194 67.3622C155.499 68.3836 154.83 69.4254 154.222 70.508C153.6 71.5771 153.026 72.6733 152.505 73.79L151.681 75.5059C151.377 76.071 151.06 76.6362 150.715 77.1673C150.012 78.2363 149.269 79.2509 148.512 80.245C147.769 81.2459 147.026 82.2332 146.458 83.3159C145.877 84.3917 145.492 85.5765 145.459 86.843C145.236 85.5901 145.486 84.2692 145.952 83.0776C146.431 81.8792 147.1 80.7829 147.79 79.7275C148.465 78.6653 149.188 77.6507 149.81 76.5885L150.276 75.7919L150.708 74.9816L151.492 73.2929C152.587 70.9915 153.911 68.8126 155.492 66.8243C156.276 65.8302 157.127 64.8837 158.059 64.019C158.539 63.5968 159.019 63.1815 159.559 62.841C160.086 62.5006 160.674 62.1601 161.309 62.1465V62.1533Z" fill="black"/>
<path d="M164.917 68.8535C163.654 69.194 162.525 69.8476 161.505 70.6103C160.478 71.3729 159.58 72.2853 158.769 73.2658C157.951 74.2395 157.269 75.3289 156.627 76.432L155.728 78.1411C155.424 78.7267 155.127 79.3191 154.803 79.8978C154.161 81.0486 153.458 82.1721 152.742 83.2751L150.539 86.5162C149.823 87.5921 149.134 88.6815 148.641 89.8595C148.127 91.0307 147.857 92.3108 147.79 93.6249C147.607 92.3244 147.722 90.9558 148.114 89.6688C148.506 88.3819 149.127 87.1835 149.79 86.0396C151.127 83.7654 152.58 81.6205 153.816 79.3395C154.141 78.7811 154.438 78.2092 154.742 77.6372C155.039 77.0721 155.377 76.4661 155.701 75.8941C156.424 74.7706 157.161 73.6471 158.107 72.687C159.019 71.7065 160.053 70.8418 161.201 70.154C162.35 69.4868 163.606 68.9556 164.917 68.8603V68.8535Z" fill="black"/>
<path d="M168.497 78.2979C166.187 78.8562 163.998 79.789 162.079 81.076C161.133 81.7364 160.227 82.4514 159.478 83.3161C159.275 83.5136 159.113 83.7519 158.93 83.9698C158.755 84.1877 158.572 84.4124 158.383 84.6575C158.018 85.1478 157.633 85.6108 157.234 86.0738C155.633 87.8918 153.876 89.5124 152.187 91.1602C151.356 91.9909 150.525 92.8284 149.829 93.7613C149.133 94.6873 148.559 95.7359 148.519 96.9479C148.296 95.7427 148.762 94.4966 149.363 93.448C149.985 92.3926 150.748 91.4394 151.545 90.5406C153.133 88.7362 154.849 87.0952 156.383 85.318C156.768 84.8822 157.147 84.4328 157.505 83.9698C157.68 83.7451 157.876 83.5068 158.079 83.2685C158.282 83.037 158.464 82.7782 158.694 82.5739C159.552 81.6752 160.545 80.9262 161.606 80.3201C163.727 79.1013 166.099 78.3932 168.484 78.2979H168.497Z" fill="black"/>
<path d="M169.95 86.8432C167.93 87.4424 165.971 88.1778 164.167 89.1651C163.275 89.669 162.41 90.2137 161.647 90.8674C161.282 91.2078 160.904 91.5347 160.593 91.916C160.431 92.0862 160.255 92.2973 160.079 92.5152C159.897 92.7195 159.714 92.9237 159.518 93.1212C157.958 94.6669 156.14 95.8108 154.357 96.9139C153.465 97.4722 152.573 98.0033 151.742 98.6161C151.323 98.9157 150.924 99.2494 150.573 99.6171C150.222 99.9847 149.931 100.421 149.803 100.945C149.809 100.407 150.026 99.8758 150.33 99.4264C150.627 98.9702 151.005 98.5685 151.384 98.1871C152.167 97.445 153.012 96.7981 153.863 96.1717C155.552 94.9188 157.289 93.7476 158.721 92.3109C158.904 92.1339 159.073 91.95 159.241 91.7662C159.397 91.5824 159.566 91.3917 159.768 91.1738C160.133 90.7448 160.552 90.384 160.978 90.0231C161.856 89.3558 162.795 88.7974 163.782 88.3617C165.748 87.4833 167.842 86.9726 169.95 86.8364V86.8432Z" fill="black"/>
<path d="M170.511 96.9543C168.694 96.9203 166.93 97.1994 165.214 97.6216C163.498 98.0506 161.876 98.7111 160.214 99.426C158.559 100.114 156.91 100.829 155.296 101.598C154.492 101.986 153.694 102.388 152.931 102.844C152.546 103.069 152.181 103.314 151.836 103.593C151.661 103.729 151.505 103.886 151.363 104.049C151.222 104.213 151.1 104.41 151.066 104.635C151.032 104.158 151.33 103.723 151.613 103.368C151.911 103.001 152.255 102.688 152.607 102.388C153.323 101.802 154.086 101.285 154.877 100.815C156.451 99.8686 158.1 99.0924 159.775 98.3774C160.626 98.037 161.451 97.6965 162.336 97.4037C163.221 97.1314 164.113 96.8862 165.032 96.7569C166.849 96.4845 168.741 96.4573 170.504 96.9543H170.511Z" fill="black"/>
<path d="M170.512 104.635C168.951 104.778 167.404 104.874 165.856 104.976C164.316 105.092 162.775 105.18 161.249 105.343C160.485 105.405 159.722 105.5 158.965 105.602C158.208 105.691 157.458 105.827 156.708 105.97C155.222 106.283 153.735 106.651 152.411 107.502C152.911 106.882 153.58 106.413 154.276 106.018C154.985 105.643 155.729 105.343 156.485 105.105C158.005 104.615 159.573 104.37 161.134 104.206C162.701 104.063 164.269 104.016 165.836 104.084C167.397 104.152 168.964 104.302 170.498 104.629L170.512 104.635Z" fill="black"/>
<path d="M164.093 53.4171C163.897 53.3286 163.694 53.2469 163.485 53.1652C162.417 52.7498 161.343 52.3413 160.201 52.0076C161.134 51.8987 162.073 51.9872 162.998 52.1642C163.073 52.3889 163.113 52.6068 163.12 52.8179C163.12 52.8179 163.471 53.0154 164.086 53.4171H164.093Z" fill="black"/>
<path d="M170.409 58.3605C170.024 58.2038 169.632 58.054 169.241 57.9042C167.484 57.2574 165.68 56.699 163.788 56.4131C165.423 56.2564 167.072 56.4743 168.68 56.8556C169.227 57.3255 169.808 57.8225 170.403 58.3673L170.409 58.3605Z" fill="black"/>
<path d="M176.991 65.4354C176.275 64.986 175.538 64.5502 174.795 64.1416C172.788 63.0658 170.721 62.0785 168.505 61.4316C169.66 61.4997 170.802 61.7721 171.917 62.1057C173.038 62.4394 174.126 62.8615 175.187 63.3518C175.241 63.3722 175.288 63.3995 175.342 63.4267C175.89 64.0668 176.444 64.7408 176.998 65.4422L176.991 65.4354Z" fill="black"/>
<path d="M182.618 74.1647C182.497 74.0421 182.361 73.9196 182.233 73.797C180.632 72.2854 178.814 71.0393 176.821 70.0997C174.828 69.1532 172.686 68.5064 170.511 67.8936C172.761 68.0434 175.017 68.4587 177.166 69.2826C178.247 69.6707 179.26 70.2427 180.253 70.8283C180.531 71.0189 180.814 71.2096 181.085 71.407C181.612 72.299 182.118 73.2114 182.611 74.1647H182.618Z" fill="black"/>
<path d="M186.524 83.9629L185.43 82.9756C185.004 82.6079 184.531 82.2947 184.085 81.9406C183.653 81.5729 183.153 81.3074 182.68 80.9873C182.213 80.6673 181.713 80.4086 181.214 80.1362C179.214 79.0672 177.072 78.2501 174.795 77.8007C177.119 77.7734 179.45 78.3795 181.599 79.3327C183.119 80.0136 184.571 80.8852 185.896 81.927C186.119 82.5943 186.328 83.2684 186.517 83.9493L186.524 83.9629Z" fill="black"/>
<path d="M188.26 92.549C188.017 92.3038 187.754 92.0791 187.49 91.8544C187.166 91.5753 186.862 91.2757 186.504 91.0442C185.18 89.9751 183.693 89.1376 182.132 88.4295C180.572 87.7349 178.93 87.1902 177.2 86.8498C178.964 86.7204 180.754 87.0336 182.45 87.6056C184.146 88.1775 185.767 89.0287 187.193 90.1454C187.477 90.3769 187.754 90.6084 188.024 90.8535C188.112 91.4186 188.186 91.9838 188.254 92.5558L188.26 92.549Z" fill="black"/>
<path d="M188.672 99.8686C188.672 100.284 188.659 100.699 188.652 101.128L188.456 101.006C188.132 100.801 187.801 100.604 187.463 100.427C187.125 100.25 186.794 100.046 186.45 99.8822L185.423 99.3715L184.362 98.9085C183.659 98.6089 182.936 98.3366 182.207 98.0914C180.74 97.6012 179.247 97.1926 177.687 96.9475C179.261 96.716 180.876 96.8862 182.443 97.2335C184.011 97.574 185.531 98.1323 186.963 98.8677C187.544 99.1809 188.125 99.5145 188.686 99.8686H188.672Z" fill="black"/>
<path d="M187.997 108.768C187.943 109.136 187.889 109.497 187.835 109.871L187.308 109.619C186.699 109.32 186.078 109.041 185.45 108.795C184.2 108.251 182.909 107.815 181.612 107.352L177.68 106.024C179.085 106.01 180.477 106.208 181.848 106.501C183.22 106.8 184.571 107.209 185.875 107.747C186.591 108.06 187.308 108.394 187.99 108.782L187.997 108.768Z" fill="black"/>
<path d="M181.889 116.619H180.376L179.227 115.339C178.545 114.57 177.856 113.787 177.214 112.949C178.16 113.426 179.018 114.032 179.835 114.692C180.565 115.278 181.261 115.925 181.896 116.619H181.889Z" fill="black"/>
</g>
<path d="M156.985 33.8616C160.181 25.9291 155.951 17.2271 155.951 17.2271C151.12 18.8544 147.904 21.6802 145.931 23.9817C144.188 23.7502 141.472 23.4506 139.175 23.437C138.128 21.2172 135.175 16.0968 129.804 15.0073C129.804 15.0073 126.622 24.8328 129.25 30.2528C128.04 31.8734 126.973 33.494 126.284 34.7264C124.385 38.1377 126.615 42.8837 128.297 45.5324C129.979 48.1811 134.939 51.4971 139.844 52.0214C147.006 52.7977 154.971 47.6023 156.613 44.6813C157.485 43.1288 158.214 38.4373 156.978 33.8616H156.985Z" fill="#263238"/>
<path opacity="0.2" d="M156.62 44.6813C156.512 44.8787 156.37 45.0898 156.195 45.3077C156.1 45.4371 155.992 45.5664 155.87 45.7026C153.404 48.508 146.999 52.2802 140.905 52.0963C140.554 52.0963 140.195 52.0623 139.844 52.0282C136.486 51.6674 133.101 49.9991 130.763 48.1266C129.682 47.2687 128.824 46.3631 128.291 45.5324C127.345 44.048 126.23 41.91 125.777 39.7038C125.743 39.554 125.716 39.4042 125.689 39.2612C125.426 37.6815 125.521 36.1018 126.284 34.7264C126.284 34.7264 126.284 34.7264 126.297 34.7128C126.392 34.5494 126.487 34.3791 126.595 34.2021C126.662 34.0795 126.737 33.9502 126.818 33.8276C127.466 32.7586 128.318 31.5057 129.25 30.2528C128.993 29.7353 128.804 29.177 128.649 28.5914C127.196 23.042 129.804 15.0073 129.804 15.0073C134.831 16.0287 137.736 20.5703 138.952 22.9739C139.033 23.1374 139.114 23.3008 139.182 23.4438C139.202 23.4438 139.216 23.4438 139.236 23.4438C139.324 23.4438 139.412 23.4438 139.5 23.4438C139.702 23.4438 139.905 23.4438 140.114 23.4574C140.324 23.4574 140.54 23.4642 140.756 23.4846C140.797 23.4846 140.844 23.4914 140.885 23.4914C141.358 23.5187 141.83 23.5527 142.303 23.5868C142.344 23.5868 142.385 23.5868 142.425 23.6004C143.047 23.648 143.648 23.7093 144.215 23.7706C144.236 23.7706 144.263 23.7774 144.283 23.7774C144.465 23.7978 144.648 23.8183 144.817 23.8455C145.229 23.8932 145.607 23.934 145.952 23.9817C147.918 21.6802 151.141 18.8613 155.965 17.2271C155.965 17.2271 160.194 25.9291 156.999 33.8616C157.613 36.1223 157.742 38.4033 157.613 40.3235C157.586 40.6843 157.553 41.0316 157.512 41.3584C157.33 42.8564 156.992 44.0344 156.634 44.6744L156.62 44.6813Z" fill="white"/>
<path opacity="0.2" d="M140.932 52.008C140.574 52.0216 140.216 52.008 139.857 51.9875C136.466 51.7424 133.121 49.9448 130.851 47.8408C129.534 45.4644 130.304 43.1085 130.304 43.1085L130.452 43.6805C130.385 42.9791 130.5 42.128 131.196 41.4675V42.6795C131.196 42.6795 131.851 38.8256 134.952 39.9695L137.128 40.3304C140.513 39.8333 142.074 44.5929 142.074 44.5929L142.371 43.5307C142.371 43.5307 144.459 45.1989 144.654 47.3846L145.458 47.0101C145.458 47.0101 144.709 51.0751 140.932 52.0011V52.008Z" fill="white"/>
<path d="M146.364 37.0073C146.243 38.3759 145.418 39.4245 144.513 39.3428C143.608 39.2611 142.972 38.0899 143.094 36.7145C143.216 35.3459 144.04 34.2973 144.945 34.379C145.851 34.4607 146.486 35.6318 146.364 37.0073Z" fill="#263238"/>
<path d="M134.209 35.3394C133.885 36.674 132.905 37.5864 132.027 37.3685C131.148 37.1506 130.696 35.891 131.02 34.5564C131.344 33.2218 132.324 32.3094 133.202 32.5273C134.081 32.7452 134.533 34.0049 134.209 35.3394Z" fill="#263238"/>
<path d="M134.04 39.9012C134.04 39.9012 135.222 39.016 136.668 40.2144C137.134 40.5957 135.324 41.9371 135.324 41.9371C135.324 41.9371 133.648 40.4664 134.04 39.9012Z" fill="#263238"/>
<path d="M135.331 40.7251C135.331 40.7251 134.919 43.7619 135.263 44.4428C135.615 45.1238 140.817 47.3027 140.277 44.0139" stroke="#263238" stroke-width="0.8" stroke-linecap="round" stroke-linejoin="round"/>
<path d="M135.263 44.443C135.263 44.443 134.297 45.2601 132.891 44.2592C131.486 43.2582 132.263 42.373 132.263 42.373" stroke="#263238" stroke-width="0.8" stroke-linecap="round" stroke-linejoin="round"/>
<path opacity="0.4" d="M157.498 41.3654C156.444 40.2283 153.776 38.2877 147.235 36.8374C147.235 36.8374 154.58 37.2868 157.6 40.3305C157.573 40.6913 157.539 41.0386 157.498 41.3654Z" fill="black"/>
<path opacity="0.4" d="M137.567 34.7534C137.547 34.9168 137.918 27.6652 140.878 23.4912C141.351 23.5184 141.824 23.5525 142.297 23.5865C142.337 23.5865 142.378 23.5865 142.418 23.6002C140.918 25.6225 138.439 29.6126 137.567 34.7534Z" fill="black"/>
<path opacity="0.2" d="M146.635 26.6306C146.635 26.6306 150.932 20.2982 155.499 18.1533C155.499 18.1533 159.418 25.2688 156.08 33.3716C156.08 33.3716 152.959 32.6771 151.999 31.3425C151.999 31.3425 152.716 29.436 154.013 28.755C154.013 28.755 152.351 29.2725 151.702 30.1441C151.702 30.1441 152.189 26.9983 153.418 25.5344C153.418 25.5344 151.033 27.2502 150.418 29.5994C150.418 29.5994 147.223 28.5031 146.648 26.6374L146.635 26.6306Z" fill="white"/>
<path opacity="0.2" d="M145.938 23.9816C145.587 24.574 145.182 25.8065 145.182 25.8065C145.182 25.8065 144.351 24.8668 144.27 23.7842C144.878 23.8523 145.452 23.9204 145.938 23.9885V23.9816Z" fill="black"/>
<path opacity="0.2" d="M129.77 29.8718C129.77 29.8718 132.054 27.5158 133.331 26.8349C133.331 26.8349 132.338 24.9216 131.919 24.7377C131.919 24.7377 132.912 25.085 133.615 25.8136C133.615 25.8136 133.419 23.764 132.594 22.7631C132.594 22.7631 134.162 24.2134 134.723 25.725L136.763 24.4926C136.763 24.4926 135.121 18.9773 130.027 15.811C130.027 15.811 127.128 24.6015 129.77 29.8718Z" fill="white"/>
<path opacity="0.2" d="M126.305 34.7125C126.987 33.4801 128.055 31.8732 129.257 30.2526C129 29.7351 128.811 29.1768 128.656 28.5912C131.386 26.0174 135.574 25.2207 135.574 25.2207C129.757 29.4151 126.501 34.4061 126.305 34.7125Z" fill="black"/>
<path opacity="0.4" d="M144.81 23.8454C144.337 24.3765 143.898 24.9621 143.513 25.5613C143.209 26.0243 142.946 26.5214 142.736 27.0321C142.534 27.5291 142.398 28.1147 142.128 28.6322C141.581 29.6604 140.811 30.5047 140.088 31.3695C139.385 32.2138 138.642 33.0785 138.331 34.1612C138.588 33.0581 139.304 32.1525 139.98 31.2809C140.676 30.389 141.398 29.5106 141.878 28.5028C142.121 28.0058 142.216 27.4679 142.412 26.9095C142.608 26.358 142.865 25.8405 143.148 25.3434C143.473 24.7987 143.824 24.2812 144.209 23.7773C144.229 23.7773 144.256 23.7842 144.277 23.7842C144.459 23.8046 144.642 23.825 144.81 23.8522V23.8454Z" fill="black"/>
<path opacity="0.4" d="M137.115 30.3074C137.115 31.3492 137.149 32.391 136.959 33.4192C137.101 32.391 137.02 31.3492 136.973 30.3142C136.959 29.7899 136.932 29.2724 136.986 28.7413C137.034 28.2102 137.257 27.6927 137.48 27.2365C137.716 26.7735 137.885 26.3105 138.074 25.8066C138.277 25.3164 138.54 24.8534 138.831 24.4108C139.04 24.0771 139.27 23.7639 139.5 23.4507C139.703 23.4507 139.905 23.4507 140.115 23.4643C139.784 23.8456 139.48 24.2337 139.182 24.6491C138.892 25.0644 138.615 25.4934 138.405 25.9496C138.203 26.4058 137.986 26.9165 137.736 27.3659C137.48 27.8221 137.263 28.2647 137.196 28.7686C137.122 29.2724 137.122 29.7899 137.115 30.3074Z" fill="black"/>
<path opacity="0.4" d="M156.194 45.3076C156.1 45.437 155.992 45.5663 155.87 45.7025C154.438 45.0625 153.093 44.2658 151.857 43.3125C150.999 42.6316 150.147 41.8622 149.641 40.8681C149.134 39.9148 148.141 39.2339 147.06 39.1113C148.147 39.1862 149.195 39.8331 149.762 40.7932C150.303 41.7396 151.147 42.4478 152.019 43.081C153.316 43.9934 154.721 44.7356 156.187 45.3076H156.194Z" fill="black"/>
<path opacity="0.4" d="M130.297 33.5486C129.676 33.5282 129.041 33.535 128.433 33.6507C127.818 33.7597 127.223 33.9299 126.656 34.1682C126.635 34.1682 126.622 34.1818 126.602 34.1954C126.669 34.0729 126.743 33.9435 126.825 33.8209C127.345 33.6643 127.879 33.5622 128.412 33.5077C129.041 33.4328 129.676 33.4805 130.297 33.5486Z" fill="black"/>
<path opacity="0.4" d="M129.757 36.0747C129.034 36.2449 128.412 36.6535 127.885 37.1505C127.352 37.6408 126.899 38.2196 126.46 38.7983C126.23 39.0979 126.007 39.4043 125.777 39.7039C125.744 39.5541 125.716 39.4043 125.689 39.2614C125.865 39.0435 126.054 38.8324 126.237 38.6213C126.716 38.063 127.216 37.5182 127.791 37.0484C128.358 36.5854 129.027 36.2041 129.75 36.0815L129.757 36.0747Z" fill="black"/>
<path opacity="0.2" d="M164.917 107.366C164.917 107.366 143.154 116.408 134.141 112.861C133.425 110.648 132.601 107.645 132.135 104.39C138.074 106.303 153.357 109.728 164.917 107.366Z" fill="black"/>
<path d="M167.491 105.731C167.491 105.731 137.763 116.265 123.858 104.506C107.177 90.3971 121.818 72.0671 118.237 68.8464C114.656 65.6326 109.643 65.7006 107.447 76.493C105.251 87.2854 106.467 116.612 135.527 116.612C164.586 116.612 171.079 116.612 171.079 116.612L167.498 105.731H167.491Z" fill="#263238"/>
<path opacity="0.2" d="M171.072 116.619H135.527C134.635 116.619 133.763 116.592 132.925 116.53C132.547 116.51 132.169 116.476 131.797 116.442C127.527 116.04 123.953 114.944 120.967 113.337C120.622 113.153 120.284 112.963 119.967 112.758C117.129 111.056 114.859 108.884 113.048 106.433C112.812 106.106 112.582 105.786 112.359 105.452C110.575 102.769 109.305 99.8074 108.427 96.7841C108.312 96.4028 108.204 96.0215 108.116 95.6402C107.413 92.9302 107.021 90.2066 106.846 87.6191C106.819 87.2242 106.798 86.8293 106.785 86.4412C106.684 84.1329 106.758 81.9608 106.94 80.0543C107.069 78.7333 107.244 77.5281 107.454 76.4931C109.65 65.7007 114.656 65.6258 118.244 68.8465C119.859 70.2969 117.771 74.8113 116.521 80.633C116.156 82.3217 115.859 84.1261 115.751 85.9986C115.73 86.3731 115.71 86.7544 115.703 87.1425C115.67 89.049 115.845 91.0169 116.338 92.9915C116.433 93.366 116.534 93.7473 116.656 94.1218C117.271 96.076 118.217 98.037 119.615 99.9708C119.838 100.291 120.088 100.611 120.338 100.924C121.318 102.143 122.48 103.341 123.865 104.512C124.5 105.05 125.169 105.541 125.865 105.99C126.203 106.201 126.547 106.412 126.899 106.603C128.662 107.59 130.574 108.332 132.594 108.87C132.959 108.966 133.324 109.061 133.696 109.143C136.621 109.803 139.722 110.075 142.81 110.075C143.202 110.075 143.594 110.075 143.986 110.062C147.046 109.994 150.073 109.681 152.891 109.252C153.303 109.19 153.708 109.129 154.114 109.061C161.742 107.781 167.498 105.738 167.498 105.738L171.072 116.619Z" fill="white"/>
<path opacity="0.4" d="M116.514 80.633C113.204 79.2167 109.467 79.5368 106.934 80.0543C107.062 78.7333 107.238 77.5281 107.447 76.4931C109.643 65.7007 114.649 65.6258 118.237 68.8465C119.852 70.2969 117.764 74.8113 116.514 80.633Z" fill="black"/>
<g opacity="0.4">
<path d="M115.744 86.0055C115.724 86.38 115.704 86.7613 115.697 87.1494C112.298 86.7409 109.332 86.8975 106.839 87.6261C106.812 87.2312 106.792 86.8362 106.778 86.4481C109.339 85.7536 112.339 85.597 115.744 86.0055Z" fill="black"/>
<path d="M116.649 94.122C113.643 94.3399 110.684 95.5655 108.42 96.7843C108.305 96.403 108.197 96.0217 108.109 95.6404C110.393 94.4352 113.312 93.2641 116.332 92.9917C116.427 93.3662 116.528 93.7475 116.649 94.122Z" fill="black"/>
<path d="M120.332 100.924C117.981 101.993 115.089 103.736 113.042 106.439C112.805 106.112 112.576 105.792 112.353 105.459C114.44 102.803 117.251 101.06 119.609 99.9707C119.832 100.291 120.082 100.611 120.332 100.924Z" fill="black"/>
<path d="M125.858 105.99C126.196 106.201 126.541 106.412 126.892 106.603C124.541 108.51 122.514 111.049 120.96 113.337C120.615 113.153 120.278 112.963 119.96 112.758C121.494 110.491 123.5 107.965 125.858 105.983V105.99Z" fill="black"/>
<path d="M133.69 109.143C133.406 110.961 133 113.957 132.919 116.537C132.541 116.517 132.163 116.483 131.791 116.449C131.879 113.752 132.298 110.695 132.582 108.877C132.946 108.972 133.311 109.068 133.683 109.149L133.69 109.143Z" fill="black"/>
<path d="M143.986 110.062C143.412 112.016 143.303 114.495 143.378 116.619H142.243C142.182 114.529 142.276 112.112 142.81 110.069C143.202 110.069 143.594 110.069 143.986 110.055V110.062Z" fill="black"/>
<path d="M157.046 116.619H155.897C155.451 113.793 153.897 110.913 152.884 109.252C153.296 109.19 153.701 109.129 154.107 109.061C155.181 110.872 156.634 113.746 157.046 116.626V116.619Z" fill="black"/>
<path d="M165.315 116.619H164.201C164.917 112.792 163.572 108.428 163.572 108.428C165.369 111.539 165.613 114.386 165.315 116.619Z" fill="black"/>
</g>
<path d="M21.0391 101.905C21.0391 101.489 21.1877 100.087 22.2417 99.4058C22.593 99.1811 23.0457 99.0313 23.6268 99.0313C23.6268 99.0313 23.0863 97.9419 24.9578 97.8465C26.8293 97.758 26.1199 97.615 26.7415 96.7911C27.3631 95.9604 29.1468 96.2804 29.1468 96.2804C29.1468 96.2804 28.7008 95.5246 31.1939 94.8914C33.6938 94.2582 34.2681 95.5178 34.2681 95.5178C34.2681 95.5178 35.1059 94.3603 36.1802 94.8914C37.2544 95.4225 37.5247 96.7911 37.5247 96.7911C37.5247 96.7911 38.68 95.6404 39.8421 96.7911L40.9975 97.9419C40.9975 97.9419 42.065 97.9827 42.9569 98.5955C43.8487 99.2015 43.6663 99.2015 44.3352 99.2015C44.7405 99.2015 45.477 98.97 46.254 99.256C46.7742 99.4467 47.308 99.862 47.7674 100.72C48.9295 102.878 21.0391 101.905 21.0391 101.905Z" fill="#407BFF"/>
<path d="M54.7198 116.619H13.8232L16.8163 101.088C16.8907 100.707 17.1136 100.387 17.4244 100.189C17.6406 100.053 17.8906 99.9712 18.1609 99.9712H50.3822C50.5578 99.9712 50.7267 100.005 50.8754 100.067C51.3078 100.23 51.6321 100.611 51.7267 101.088L52.4226 104.697L53.0847 108.135L53.4766 110.185L53.9496 112.609L54.7198 116.619Z" fill="#263238"/>
<path opacity="0.4" d="M53.9499 112.608H35.7617C33.5929 112.608 31.7011 110.838 31.5389 108.652C31.5389 108.55 31.5254 108.441 31.5254 108.339C31.5254 106.303 33.0929 104.696 35.1603 104.696H52.423L53.0851 108.135L53.477 110.184L53.9499 112.608Z" fill="white"/>
<g opacity="0.4">
<path d="M38.0929 106.964L37.4308 108.87L36.4849 106.964H35.8633L37.174 109.545L37.1402 109.647C37.0457 109.905 36.924 110.001 36.7146 110.001C36.5524 110.001 36.3835 109.939 36.2619 109.824L36.0592 110.266C36.2349 110.416 36.5051 110.505 36.7619 110.505C37.1808 110.505 37.4983 110.328 37.6875 109.742L38.6672 106.964H38.0929Z" fill="black"/>
<path d="M41.5049 106.964H40.9103L41.0117 108.264C41.0522 108.782 40.7887 109.041 40.3698 109.041C39.9915 109.041 39.755 108.823 39.7212 108.353L39.6199 106.964H39.0186L39.1334 108.435C39.1875 109.211 39.6604 109.572 40.3158 109.572C40.6468 109.572 40.9374 109.442 41.113 109.211L41.1333 109.538H41.7008L41.5049 106.964Z" fill="black"/>
<path d="M46.6402 108.067C46.5794 107.291 46.1199 106.937 45.5051 106.937C45.0997 106.937 44.7687 107.1 44.5862 107.365C44.3835 107.08 44.066 106.937 43.6944 106.937C43.3431 106.937 43.0593 107.066 42.8836 107.297L42.8566 106.964H42.2891L42.485 109.538H43.0796L42.985 108.23C42.9444 107.72 43.1944 107.461 43.5863 107.461C43.9511 107.461 44.1809 107.686 44.2146 108.142L44.316 109.538H44.9173L44.816 108.23C44.7754 107.72 45.0322 107.461 45.424 107.461C45.7821 107.461 46.0118 107.686 46.0456 108.142L46.1537 109.538H46.7483L46.6402 108.067Z" fill="black"/>
<path d="M51.6666 108.067C51.6058 107.291 51.1463 106.937 50.5315 106.937C50.1261 106.937 49.795 107.1 49.6126 107.365C49.4099 107.08 49.0924 106.937 48.7208 106.937C48.3694 106.937 48.0857 107.066 47.91 107.297L47.883 106.964H47.3154L47.5114 109.538H48.1059L48.0113 108.23C47.9708 107.72 48.2208 107.461 48.6127 107.461C48.9775 107.461 49.2072 107.686 49.241 108.142L49.3424 109.538H49.9437L49.8423 108.23C49.8018 107.72 50.0585 107.461 50.4504 107.461C50.8085 107.461 51.0382 107.686 51.072 108.142L51.1801 109.538H51.7747L51.6666 108.067Z" fill="black"/>
<path d="M53.0855 108.135L52.5044 106.964H51.8828L53.1868 109.545L53.153 109.647C53.0584 109.905 52.9436 110.001 52.7341 110.001C52.572 110.001 52.4031 109.939 52.2814 109.824L52.072 110.266C52.2477 110.416 52.5247 110.505 52.7747 110.505C53.0652 110.505 53.3017 110.423 53.4773 110.185L53.0855 108.135Z" fill="black"/>
</g>
<path opacity="0.2" d="M46.2545 99.256C46.1734 99.3582 46.0788 99.4467 45.9639 99.5148C45.7342 99.6441 45.464 99.6782 45.2072 99.6918C44.0721 99.7463 42.9573 99.4603 41.8628 99.1743C41.6128 99.1062 41.3561 99.0381 41.1061 98.9768C41.0318 98.9564 40.9574 98.936 40.8899 98.9496C40.748 98.97 40.6264 99.0994 40.4845 99.079C40.3629 99.0654 40.2818 98.9496 40.1669 98.9019C39.8764 98.793 39.5926 99.1879 39.2886 99.1334C39.194 99.1198 39.1129 99.0586 39.0251 99.0313C38.8967 98.9973 38.7616 99.0177 38.6265 99.0177C38.086 99.0381 37.5455 98.7249 37.2887 98.2415C36.8766 98.7862 36.309 99.256 35.6401 99.3786C34.9713 99.5011 34.1943 99.1947 33.924 98.5683C33.8767 98.4593 33.8362 98.33 33.7281 98.2755C33.5794 98.2074 33.4173 98.33 33.3295 98.473C33.2484 98.6091 33.2078 98.7794 33.093 98.8883C32.9443 99.0313 32.7214 99.0449 32.5119 99.0517C31.5998 99.0722 30.6134 99.0722 29.8837 98.5138C29.7823 98.4321 29.6675 98.3368 29.5324 98.364C29.4107 98.3776 29.3364 98.5002 29.2621 98.5955C28.4581 99.7326 26.6406 99.9437 25.6001 99.0245C25.4109 99.2969 24.9988 99.3854 24.715 99.2083C24.6407 99.1607 24.5732 99.0926 24.4853 99.0926C24.3772 99.0858 24.2894 99.1811 24.2015 99.256C23.8029 99.6101 22.8165 99.6578 22.2422 99.4058C22.5935 99.1811 23.0462 99.0313 23.6273 99.0313C23.6273 99.0313 23.0867 97.9419 24.9583 97.8465C26.8298 97.758 26.1204 97.615 26.742 96.7911C27.3635 95.9604 29.1472 96.2804 29.1472 96.2804C29.1472 96.2804 28.7013 95.5246 31.1944 94.8914C33.6943 94.2582 34.2686 95.5178 34.2686 95.5178C34.2686 95.5178 35.1064 94.3603 36.1807 94.8914C37.2549 95.4225 37.5252 96.7911 37.5252 96.7911C37.5252 96.7911 38.6805 95.6404 39.8426 96.7911L40.998 97.9419C40.998 97.9419 42.0655 97.9827 42.9573 98.5955C43.8492 99.2015 43.6668 99.2015 44.3356 99.2015C44.741 99.2015 45.4775 98.97 46.2545 99.256Z" fill="white"/>
<path opacity="0.1" d="M50.8893 100.189C50.8893 100.829 50.369 101.353 49.7339 101.353H18.5801C17.945 101.353 17.4248 100.829 17.4248 100.189C17.641 100.053 17.891 99.9712 18.1613 99.9712H50.3826C50.5582 99.9712 50.7271 100.005 50.8758 100.067C50.8893 100.107 50.8893 100.148 50.8893 100.189Z" fill="white"/>
</g>
<defs>
<clipPath id="clip0_325_1657">
<rect width="262" height="124" fill="white"/>
</clipPath>
</defs>
</svg>
